G75*
G70*
%OFA0B0*%
%FSLAX24Y24*%
%IPPOS*%
%LPD*%
%AMOC8*
5,1,8,0,0,1.08239X$1,22.5*
%
%ADD10C,0.0000*%
%ADD11C,0.0520*%
%ADD12OC8,0.0660*%
%ADD13OC8,0.0560*%
%ADD14C,0.0600*%
%ADD15OC8,0.0520*%
%ADD16C,0.0660*%
%ADD17R,0.0594X0.0594*%
%ADD18C,0.0594*%
%ADD19OC8,0.0630*%
%ADD20C,0.0630*%
%ADD21C,0.1890*%
%ADD22C,0.0740*%
%ADD23C,0.2100*%
%ADD24R,0.0740X0.0740*%
%ADD25OC8,0.0740*%
%ADD26C,0.0500*%
%ADD27R,0.0515X0.0515*%
%ADD28C,0.0650*%
%ADD29R,0.0315X0.0472*%
%ADD30C,0.0240*%
%ADD31C,0.0160*%
%ADD32C,0.0120*%
%ADD33C,0.0320*%
%ADD34C,0.0320*%
%ADD35C,0.0400*%
%ADD36C,0.0100*%
D10*
X000460Y000460D02*
X039560Y000460D01*
X039560Y019560D01*
X000460Y019560D01*
X000460Y000460D01*
D11*
X009960Y007700D02*
X009960Y008220D01*
X010960Y008220D02*
X010960Y007700D01*
X011960Y007700D02*
X011960Y008220D01*
X012960Y008220D02*
X012960Y007700D01*
X013960Y007700D02*
X013960Y008220D01*
X014960Y008220D02*
X014960Y007700D01*
X015960Y007700D02*
X015960Y008220D01*
X016960Y008220D02*
X016960Y007700D01*
X017960Y007700D02*
X017960Y008220D01*
X018960Y008220D02*
X018960Y007700D01*
X019960Y007700D02*
X019960Y008220D01*
X020960Y008220D02*
X020960Y007700D01*
X021960Y007700D02*
X021960Y008220D01*
X022960Y008220D02*
X022960Y007700D01*
X023960Y007700D02*
X023960Y008220D01*
X024960Y008220D02*
X024960Y007700D01*
X025960Y007700D02*
X025960Y008220D01*
X026960Y008220D02*
X026960Y007700D01*
X027960Y007700D02*
X027960Y008220D01*
X028960Y008220D02*
X028960Y007700D01*
X028960Y013700D02*
X028960Y014220D01*
X027960Y014220D02*
X027960Y013700D01*
X026960Y013700D02*
X026960Y014220D01*
X025960Y014220D02*
X025960Y013700D01*
X024960Y013700D02*
X024960Y014220D01*
X023960Y014220D02*
X023960Y013700D01*
X022960Y013700D02*
X022960Y014220D01*
X021960Y014220D02*
X021960Y013700D01*
X020960Y013700D02*
X020960Y014220D01*
X019960Y014220D02*
X019960Y013700D01*
X018960Y013700D02*
X018960Y014220D01*
X017960Y014220D02*
X017960Y013700D01*
X016960Y013700D02*
X016960Y014220D01*
X015960Y014220D02*
X015960Y013700D01*
X014960Y013700D02*
X014960Y014220D01*
X013960Y014220D02*
X013960Y013700D01*
X012960Y013700D02*
X012960Y014220D01*
X011960Y014220D02*
X011960Y013700D01*
X010960Y013700D02*
X010960Y014220D01*
X009960Y014220D02*
X009960Y013700D01*
D12*
X008960Y003110D03*
X008960Y002110D03*
D13*
X002810Y006360D03*
X001810Y006360D03*
X001810Y007360D03*
X002810Y007360D03*
X002810Y008360D03*
X001810Y008360D03*
D14*
X005080Y003650D02*
X005680Y003650D01*
X007640Y003650D02*
X008240Y003650D01*
X008240Y001870D02*
X007640Y001870D01*
X005680Y001870D02*
X005080Y001870D01*
D15*
X017660Y001360D03*
X018660Y001360D03*
X024260Y001360D03*
X025260Y001360D03*
D16*
X034560Y011760D03*
X034560Y015760D03*
D17*
X038460Y008160D03*
D18*
X038460Y007160D03*
X038460Y006160D03*
D19*
X034360Y002410D03*
X036060Y010260D03*
D20*
X036060Y011260D03*
X034360Y001410D03*
D21*
X035603Y013821D03*
X037925Y013821D03*
X036784Y015671D03*
D22*
X033460Y015460D03*
X032460Y015460D03*
X031460Y015460D03*
X030460Y015460D03*
X030460Y014460D03*
X031460Y014460D03*
X032460Y014460D03*
X033460Y014460D03*
X033460Y013460D03*
X032460Y013460D03*
X031460Y013460D03*
X030460Y013460D03*
X031460Y011460D03*
X032460Y011460D03*
X033460Y011460D03*
X033460Y010460D03*
X032460Y010460D03*
X031460Y010460D03*
X034460Y008960D03*
X035460Y008960D03*
X036460Y008960D03*
X038460Y010460D03*
X038460Y011460D03*
X033460Y008460D03*
X032460Y008460D03*
X031460Y008460D03*
X030460Y008460D03*
X030460Y007460D03*
X031460Y007460D03*
X032460Y007460D03*
X033460Y007460D03*
X034460Y006960D03*
X033460Y006460D03*
X032460Y006460D03*
X031460Y006460D03*
X030460Y006460D03*
X030760Y005360D03*
X031760Y005360D03*
X032760Y005360D03*
X034460Y005960D03*
X035460Y005960D03*
X036460Y005960D03*
X036460Y006960D03*
X035460Y006960D03*
X035460Y003960D03*
X036460Y003960D03*
X034460Y003960D03*
X036160Y002460D03*
X036160Y001460D03*
X032760Y002360D03*
X031760Y002360D03*
X030760Y002360D03*
X029860Y001460D03*
X028860Y001460D03*
X027860Y001460D03*
X022460Y001460D03*
X021460Y001460D03*
X020460Y001460D03*
X016660Y001460D03*
X015660Y001460D03*
X014660Y001460D03*
X013660Y001460D03*
X012660Y001460D03*
X011660Y001460D03*
X010660Y001460D03*
X003810Y001510D03*
X003810Y002510D03*
X003810Y003510D03*
X005460Y004960D03*
X006460Y004960D03*
X007460Y004960D03*
X009960Y005960D03*
X010960Y005960D03*
X011960Y005960D03*
X012960Y005960D03*
X013960Y005960D03*
X014960Y005960D03*
X015960Y005960D03*
X016960Y005960D03*
X017960Y005960D03*
X018960Y005960D03*
X019960Y005960D03*
X020960Y005960D03*
X021960Y005960D03*
X022960Y005960D03*
X023960Y005960D03*
X024960Y005960D03*
X025960Y005960D03*
X026960Y005960D03*
X027960Y005960D03*
X008460Y014960D03*
X007460Y014960D03*
X006460Y014960D03*
X005960Y015960D03*
X005960Y016960D03*
X005960Y017960D03*
X007160Y018960D03*
X008160Y018960D03*
X008960Y017960D03*
X008960Y016960D03*
X008960Y015960D03*
X009960Y015960D03*
X010960Y015960D03*
X011960Y015960D03*
X012960Y015960D03*
X013960Y015960D03*
X014960Y015960D03*
X015960Y015960D03*
X016960Y015960D03*
X017960Y015960D03*
X018960Y015960D03*
X019960Y015960D03*
X020960Y015960D03*
X021960Y015960D03*
X022960Y015960D03*
X023960Y015960D03*
X024960Y015960D03*
X025960Y015960D03*
X026960Y015960D03*
X027960Y015960D03*
X031460Y016460D03*
X032460Y016460D03*
X033460Y016460D03*
X033460Y017460D03*
X032460Y017460D03*
X031460Y017460D03*
X031460Y018460D03*
X032460Y018460D03*
X033460Y018460D03*
X035260Y017960D03*
X036260Y017960D03*
X003760Y018060D03*
X003760Y017060D03*
X002660Y016160D03*
X001560Y016160D03*
X001560Y015160D03*
X002660Y015160D03*
X002660Y014160D03*
X001560Y014160D03*
X001560Y013160D03*
X002660Y013160D03*
X002660Y012160D03*
X001560Y012160D03*
X001560Y011160D03*
X002660Y011160D03*
D23*
X001960Y017960D03*
X001960Y001960D03*
X037960Y001960D03*
X037960Y017960D03*
D24*
X030460Y017460D03*
X030460Y016460D03*
X028960Y015960D03*
X030460Y018460D03*
X030460Y012460D03*
X031460Y012460D03*
X032460Y012460D03*
X033460Y012460D03*
X030460Y011460D03*
X030460Y010460D03*
X030460Y009460D03*
X031460Y009460D03*
X032460Y009460D03*
X033460Y009460D03*
X028960Y005960D03*
X026860Y001460D03*
X009660Y001460D03*
X008460Y004960D03*
X005460Y014960D03*
D25*
X005460Y013960D03*
X006460Y013960D03*
X007460Y013960D03*
X008460Y013960D03*
X008460Y012960D03*
X007460Y012960D03*
X006460Y012960D03*
X005460Y012960D03*
X005460Y006960D03*
X006460Y006960D03*
X007460Y006960D03*
X008460Y006960D03*
X008460Y005960D03*
X007460Y005960D03*
X006460Y005960D03*
X005460Y005960D03*
D26*
X003160Y007360D02*
X002810Y007360D01*
X003160Y007360D02*
X004760Y008960D01*
X014260Y008960D01*
X014960Y008260D01*
X014960Y007960D01*
X014960Y005960D01*
X015960Y005960D02*
X015960Y007960D01*
X015960Y008260D01*
X014560Y009660D01*
X003160Y009660D01*
X001860Y008360D01*
X001810Y008360D01*
X001210Y008610D02*
X001210Y009010D01*
X002760Y010460D01*
X015060Y010460D01*
X016960Y008560D01*
X016960Y007960D01*
X016960Y005960D01*
X017960Y005960D02*
X017960Y007960D01*
X018960Y007960D02*
X018960Y006960D01*
X018960Y005960D01*
X020960Y005960D02*
X020960Y007960D01*
X021960Y007960D02*
X021960Y005960D01*
X022960Y005960D02*
X022960Y007960D01*
X023960Y007960D02*
X023960Y005960D01*
X024960Y005960D02*
X024960Y007960D01*
X025960Y007960D02*
X025960Y005960D01*
X026960Y005960D02*
X026960Y007960D01*
X027960Y007960D02*
X027960Y005960D01*
X028960Y005960D02*
X028960Y007960D01*
X028960Y004960D02*
X028960Y002960D01*
X027960Y002960D02*
X027960Y004960D01*
X026960Y004960D02*
X026960Y002960D01*
X025960Y002960D02*
X025960Y004960D01*
X024960Y004960D02*
X024960Y002960D01*
X023960Y002960D02*
X023960Y004960D01*
X022960Y004960D02*
X022960Y002960D01*
X021960Y002960D02*
X021960Y004960D01*
X020960Y004960D02*
X020960Y002960D01*
X019960Y002960D02*
X019960Y004960D01*
X018960Y004960D02*
X018960Y002960D01*
X017960Y002960D02*
X017960Y004960D01*
X016960Y004960D02*
X016960Y002960D01*
X015960Y002960D02*
X015960Y004960D01*
X014960Y004960D02*
X014960Y002960D01*
X013960Y002960D02*
X013960Y004960D01*
X012960Y004960D02*
X012960Y002960D01*
X011960Y002960D02*
X011960Y004960D01*
X010960Y004960D02*
X010960Y002960D01*
X009960Y002960D02*
X009960Y004960D01*
X009960Y005960D02*
X009960Y007960D01*
X010960Y007960D02*
X010960Y005960D01*
X011960Y005960D02*
X011960Y007960D01*
X012960Y007960D02*
X012960Y005960D01*
X013960Y005960D02*
X013960Y007960D01*
X019960Y013860D02*
X019960Y013960D01*
X019960Y014260D02*
X019960Y014960D01*
X019960Y015960D01*
X020960Y015960D02*
X020960Y013960D01*
X021960Y013960D02*
X021960Y015960D01*
X022960Y015960D02*
X022960Y013960D01*
X023960Y013960D02*
X023960Y015960D01*
X024960Y015960D02*
X024960Y013960D01*
X025960Y013960D02*
X025960Y015960D01*
X026960Y015960D02*
X026960Y013960D01*
X027960Y013960D02*
X027960Y015960D01*
X028960Y015960D02*
X028960Y013960D01*
X028960Y016960D02*
X028960Y018960D01*
X027960Y018960D02*
X027960Y016960D01*
X026960Y016960D02*
X026960Y018960D01*
X025960Y018960D02*
X025960Y016960D01*
X024960Y016960D02*
X024960Y018960D01*
X023960Y018960D02*
X023960Y016960D01*
X022960Y016960D02*
X022960Y018960D01*
X021960Y018960D02*
X021960Y016960D01*
X020960Y016960D02*
X020960Y018960D01*
X019960Y018960D02*
X019960Y016960D01*
X018960Y016960D02*
X018960Y018960D01*
X017960Y018960D02*
X017960Y016960D01*
X016960Y016960D02*
X016960Y018960D01*
X015960Y018960D02*
X015960Y016960D01*
X014960Y016960D02*
X014960Y018960D01*
X013960Y018960D02*
X013960Y016960D01*
X012960Y016960D02*
X012960Y018960D01*
X011960Y018960D02*
X011960Y016960D01*
X010960Y016960D02*
X010960Y018960D01*
X009960Y018960D02*
X009960Y016960D01*
X009960Y015960D02*
X009960Y013960D01*
X010960Y013960D02*
X010960Y015960D01*
X011960Y015960D02*
X011960Y013960D01*
X012960Y013960D02*
X012960Y015960D01*
X013960Y015960D02*
X013960Y013960D01*
X014960Y013960D02*
X014960Y015960D01*
X015960Y015960D02*
X015960Y013960D01*
X016960Y013960D02*
X016960Y015960D01*
X017960Y015960D02*
X017960Y013960D01*
X037925Y013821D02*
X038125Y013695D01*
X038760Y013060D01*
X038460Y006160D02*
X038460Y005110D01*
X003260Y001060D02*
X002760Y001060D01*
X001960Y001860D01*
X001960Y001960D01*
D27*
X009960Y002960D03*
X010960Y002960D03*
X011960Y002960D03*
X012960Y002960D03*
X013960Y002960D03*
X014960Y002960D03*
X015960Y002960D03*
X016960Y002960D03*
X017960Y002960D03*
X018960Y002960D03*
X019960Y002960D03*
X020960Y002960D03*
X021960Y002960D03*
X022960Y002960D03*
X023960Y002960D03*
X024960Y002960D03*
X025960Y002960D03*
X026960Y002960D03*
X027960Y002960D03*
X028960Y002960D03*
X028960Y003960D03*
X027960Y003960D03*
X026960Y003960D03*
X025960Y003960D03*
X024960Y003960D03*
X023960Y003960D03*
X022960Y003960D03*
X021960Y003960D03*
X020960Y003960D03*
X019960Y003960D03*
X018960Y003960D03*
X017960Y003960D03*
X016960Y003960D03*
X015960Y003960D03*
X014960Y003960D03*
X013960Y003960D03*
X012960Y003960D03*
X011960Y003960D03*
X010960Y003960D03*
X009960Y003960D03*
X009960Y004960D03*
X010960Y004960D03*
X011960Y004960D03*
X012960Y004960D03*
X013960Y004960D03*
X014960Y004960D03*
X015960Y004960D03*
X016960Y004960D03*
X017960Y004960D03*
X018960Y004960D03*
X019960Y004960D03*
X020960Y004960D03*
X021960Y004960D03*
X022960Y004960D03*
X023960Y004960D03*
X024960Y004960D03*
X025960Y004960D03*
X026960Y004960D03*
X027960Y004960D03*
X028960Y004960D03*
X028960Y016960D03*
X027960Y016960D03*
X026960Y016960D03*
X025960Y016960D03*
X024960Y016960D03*
X023960Y016960D03*
X022960Y016960D03*
X021960Y016960D03*
X020960Y016960D03*
X019960Y016960D03*
X018960Y016960D03*
X017960Y016960D03*
X016960Y016960D03*
X015960Y016960D03*
X014960Y016960D03*
X013960Y016960D03*
X012960Y016960D03*
X011960Y016960D03*
X010960Y016960D03*
X009960Y016960D03*
X009960Y017960D03*
X010960Y017960D03*
X011960Y017960D03*
X012960Y017960D03*
X013960Y017960D03*
X014960Y017960D03*
X015960Y017960D03*
X016960Y017960D03*
X017960Y017960D03*
X018960Y017960D03*
X019960Y017960D03*
X020960Y017960D03*
X021960Y017960D03*
X022960Y017960D03*
X023960Y017960D03*
X024960Y017960D03*
X025960Y017960D03*
X026960Y017960D03*
X027960Y017960D03*
X028960Y017960D03*
X028960Y018960D03*
X027960Y018960D03*
X026960Y018960D03*
X025960Y018960D03*
X024960Y018960D03*
X023960Y018960D03*
X022960Y018960D03*
X021960Y018960D03*
X020960Y018960D03*
X019960Y018960D03*
X018960Y018960D03*
X017960Y018960D03*
X016960Y018960D03*
X015960Y018960D03*
X014960Y018960D03*
X013960Y018960D03*
X012960Y018960D03*
X011960Y018960D03*
X010960Y018960D03*
X009960Y018960D03*
D28*
X004860Y018060D03*
X004860Y017060D03*
X018960Y014960D03*
X019960Y014960D03*
X019960Y006960D03*
X018960Y006960D03*
D29*
X019106Y008760D03*
X019814Y008760D03*
X019814Y013160D03*
X019106Y013160D03*
D30*
X019960Y013260D02*
X019960Y013860D01*
X019960Y013960D02*
X019960Y014260D01*
X019960Y013260D02*
X019960Y012560D01*
X022060Y012060D02*
X004660Y012060D01*
X004360Y012360D01*
X004360Y014360D01*
X003560Y015160D01*
X002660Y015160D01*
X001560Y015160D01*
X001560Y014160D02*
X002660Y014160D01*
X003160Y014160D01*
X003760Y013560D01*
X003760Y012060D01*
X004360Y011460D01*
X021260Y011460D01*
X022960Y009360D01*
X022960Y007960D01*
X023960Y007960D02*
X023960Y009560D01*
X022060Y012060D01*
X018960Y009360D02*
X018960Y008660D01*
X018960Y007960D01*
X008960Y003110D02*
X007920Y003650D01*
X007940Y003650D02*
X005380Y003650D01*
X004870Y003650D02*
X003760Y004760D01*
X002060Y004760D01*
X001810Y005010D01*
X001810Y006360D01*
X001810Y007360D02*
X001210Y007960D01*
X001210Y008610D01*
X001560Y011060D02*
X001560Y011960D01*
X001660Y012060D01*
X000710Y012510D02*
X001360Y013160D01*
X001560Y013160D01*
X002660Y013160D01*
X000710Y012510D02*
X000710Y004010D01*
X001360Y003360D01*
X002560Y003360D02*
X003660Y003360D01*
X003810Y003510D01*
X004260Y002960D02*
X003810Y002510D01*
X003860Y002560D01*
X003810Y001510D02*
X004460Y000860D01*
X004460Y000760D01*
X003760Y000760D02*
X003610Y000860D01*
X008960Y002060D02*
X009660Y001460D01*
X010660Y001460D01*
X011660Y001460D01*
X012660Y001460D01*
X018660Y001360D02*
X020360Y001360D01*
X020460Y001460D01*
X022460Y001460D02*
X022460Y001360D01*
X024260Y001360D01*
X038810Y007110D02*
X039160Y006760D01*
X039160Y003160D01*
X038810Y007110D02*
X038810Y007160D01*
X039160Y012886D02*
X038986Y013060D01*
X038760Y013060D01*
X004860Y018060D02*
X004790Y018130D01*
X003760Y018060D01*
X003760Y017060D02*
X002930Y016160D01*
X002660Y016160D01*
X001560Y016160D01*
D31*
X001560Y011060D02*
X012560Y011060D01*
X015160Y011060D01*
X016260Y009960D01*
X017460Y008760D01*
X019960Y010060D02*
X021460Y008560D01*
X020960Y005960D02*
X020460Y005460D01*
X018960Y005960D02*
X018460Y005460D01*
X017960Y005960D02*
X017460Y005460D01*
X021960Y005960D02*
X022460Y005460D01*
X022460Y001460D01*
X018660Y002360D02*
X018460Y002360D01*
X018160Y002060D01*
X013260Y002060D01*
X012760Y001460D01*
X012660Y001460D01*
X009660Y002360D02*
X008960Y003060D01*
X008960Y003110D01*
X007940Y003650D02*
X007920Y003650D01*
X008760Y004160D02*
X005010Y004160D01*
X002810Y006360D01*
X004870Y003650D02*
X005380Y003650D01*
X008960Y002110D02*
X008960Y002060D01*
X009660Y002360D02*
X017160Y002360D01*
X017460Y002660D01*
X007940Y001870D02*
X005380Y001870D01*
X005040Y002010D01*
X004060Y002010D01*
X003560Y002010D02*
X003410Y002010D01*
X003260Y001860D01*
X003260Y001060D01*
X003260Y001010D01*
X003610Y000860D01*
X038460Y007160D02*
X038710Y007160D01*
X039160Y007610D01*
X039160Y012886D01*
X038810Y007160D02*
X038710Y007160D01*
D32*
X020460Y005460D02*
X020460Y001460D01*
X018460Y002360D02*
X018460Y005460D01*
X017460Y005460D02*
X017460Y002660D01*
X018960Y008660D02*
X019006Y008660D01*
X019106Y008760D01*
X019106Y013160D02*
X018960Y013306D01*
X018960Y013760D01*
X019814Y013160D02*
X019914Y013260D01*
X019960Y013260D01*
X004060Y002010D02*
X003560Y002010D01*
D33*
X004260Y002960D03*
X002360Y003960D03*
X003160Y005460D03*
X004160Y007260D03*
X003660Y008860D03*
X001260Y010160D03*
X003660Y011160D03*
X010160Y012960D03*
X009260Y014860D03*
X007460Y015960D03*
X003760Y015760D03*
X000960Y015660D03*
X007660Y017960D03*
X014360Y012960D03*
X017560Y012860D03*
X019960Y012560D03*
X023660Y011860D03*
X020960Y009860D03*
X018960Y009360D03*
X017960Y010160D03*
X012560Y011060D03*
X009260Y006960D03*
X009260Y004560D03*
X006660Y003060D03*
X008360Y001260D03*
X003260Y000860D03*
X018660Y002360D03*
X021960Y001960D03*
X025960Y001460D03*
X030460Y003760D03*
X034360Y004960D03*
X037160Y005360D03*
X038760Y003760D03*
X035060Y002860D03*
X031760Y001360D03*
X036460Y007960D03*
X029060Y009760D03*
X029060Y012460D03*
X026460Y014760D03*
X029660Y014960D03*
X036760Y012660D03*
X038760Y016360D03*
X021460Y014760D03*
D34*
X021460Y013548D02*
X021519Y013405D01*
X021665Y013259D01*
X021857Y013180D01*
X022063Y013180D01*
X022255Y013259D01*
X022401Y013405D01*
X022460Y013548D01*
X022519Y013405D01*
X022665Y013259D01*
X022857Y013180D01*
X023063Y013180D01*
X023255Y013259D01*
X023401Y013405D01*
X023460Y013548D01*
X023519Y013405D01*
X023665Y013259D01*
X023857Y013180D01*
X024063Y013180D01*
X024255Y013259D01*
X024401Y013405D01*
X024460Y013548D01*
X024519Y013405D01*
X024665Y013259D01*
X024857Y013180D01*
X025063Y013180D01*
X025255Y013259D01*
X025401Y013405D01*
X025460Y013548D01*
X025519Y013405D01*
X025665Y013259D01*
X025857Y013180D01*
X026063Y013180D01*
X026255Y013259D01*
X026401Y013405D01*
X026460Y013548D01*
X026519Y013405D01*
X026665Y013259D01*
X026857Y013180D01*
X027063Y013180D01*
X027255Y013259D01*
X027401Y013405D01*
X027460Y013548D01*
X027519Y013405D01*
X027665Y013259D01*
X027857Y013180D01*
X028063Y013180D01*
X028255Y013259D01*
X028401Y013405D01*
X028460Y013548D01*
X028519Y013405D01*
X028665Y013259D01*
X028857Y013180D01*
X029063Y013180D01*
X029255Y013259D01*
X029401Y013405D01*
X029480Y013597D01*
X029480Y014323D01*
X029470Y014348D01*
X029470Y015367D01*
X029477Y015370D01*
X029550Y015443D01*
X029590Y015538D01*
X029590Y016382D01*
X029550Y016477D01*
X029477Y016550D01*
X029442Y016565D01*
X029477Y016651D01*
X029477Y017269D01*
X029470Y017287D01*
X029470Y017633D01*
X029477Y017651D01*
X029477Y018269D01*
X029470Y018287D01*
X029470Y018633D01*
X029477Y018651D01*
X029477Y019269D01*
X029465Y019300D01*
X039300Y019300D01*
X039300Y000720D01*
X038385Y000720D01*
X038402Y000725D01*
X038521Y000774D01*
X038634Y000835D01*
X038741Y000907D01*
X038841Y000988D01*
X038932Y001079D01*
X039013Y001179D01*
X039085Y001286D01*
X039146Y001399D01*
X039195Y001518D01*
X039232Y001641D01*
X039257Y001768D01*
X039265Y001844D01*
X038076Y001844D01*
X038076Y002076D01*
X037844Y002076D01*
X037844Y003265D01*
X037768Y003257D01*
X037641Y003232D01*
X037557Y003207D01*
X038883Y004533D01*
X038947Y004595D01*
X038948Y004597D01*
X038950Y004599D01*
X038984Y004681D01*
X039019Y004763D01*
X039019Y004766D01*
X039020Y004768D01*
X039020Y004857D01*
X039021Y004946D01*
X039020Y004949D01*
X039020Y004951D01*
X038986Y005033D01*
X038970Y005074D01*
X038970Y005936D01*
X039017Y006049D01*
X039017Y006271D01*
X038932Y006475D01*
X038775Y006632D01*
X038706Y006661D01*
X038752Y006684D01*
X038823Y006735D01*
X038885Y006797D01*
X038936Y006868D01*
X038976Y006946D01*
X039003Y007030D01*
X039017Y007116D01*
X039017Y007160D01*
X039017Y007204D01*
X039003Y007290D01*
X038976Y007374D01*
X038936Y007452D01*
X038885Y007523D01*
X038823Y007585D01*
X038797Y007603D01*
X038809Y007603D01*
X038904Y007643D01*
X038977Y007716D01*
X039017Y007811D01*
X039017Y008509D01*
X038977Y008604D01*
X038920Y008661D01*
X038920Y010029D01*
X038994Y010103D01*
X039090Y010335D01*
X039090Y010585D01*
X038994Y010817D01*
X038848Y010963D01*
X038870Y010979D01*
X038941Y011050D01*
X038999Y011130D01*
X039044Y011218D01*
X039074Y011312D01*
X039090Y011410D01*
X039090Y011460D01*
X039090Y011510D01*
X039074Y011608D01*
X039044Y011702D01*
X038999Y011790D01*
X038941Y011870D01*
X038870Y011941D01*
X038790Y011999D01*
X038702Y012044D01*
X038608Y012074D01*
X038510Y012090D01*
X038460Y012090D01*
X038460Y011460D01*
X038460Y011460D01*
X039090Y011460D01*
X038460Y011460D01*
X038460Y011460D01*
X038460Y011460D01*
X037830Y011460D01*
X037830Y011510D01*
X037846Y011608D01*
X037876Y011702D01*
X037921Y011790D01*
X037979Y011870D01*
X038050Y011941D01*
X038130Y011999D01*
X038218Y012044D01*
X038312Y012074D01*
X038410Y012090D01*
X038460Y012090D01*
X038460Y011460D01*
X037830Y011460D01*
X037830Y011410D01*
X037846Y011312D01*
X037876Y011218D01*
X037921Y011130D01*
X037979Y011050D01*
X038050Y010979D01*
X038072Y010963D01*
X038040Y010931D01*
X037321Y011650D01*
X037151Y011720D01*
X036413Y011720D01*
X036386Y011747D01*
X036174Y011835D01*
X035946Y011835D01*
X035734Y011747D01*
X035707Y011720D01*
X035407Y011720D01*
X035134Y011915D01*
X035060Y012094D01*
X034894Y012260D01*
X034677Y012350D01*
X034443Y012350D01*
X034226Y012260D01*
X034090Y012124D01*
X034090Y012882D01*
X034050Y012977D01*
X033977Y013050D01*
X033952Y013061D01*
X033994Y013103D01*
X034090Y013335D01*
X034090Y013585D01*
X033994Y013817D01*
X033851Y013960D01*
X033994Y014103D01*
X034090Y014335D01*
X034090Y014585D01*
X033994Y014817D01*
X033851Y014960D01*
X033994Y015103D01*
X034090Y015335D01*
X034090Y015396D01*
X034226Y015260D01*
X034443Y015170D01*
X034561Y015170D01*
X034967Y014845D01*
X034863Y014785D01*
X034638Y014560D01*
X034480Y014286D01*
X034398Y013979D01*
X034398Y013662D01*
X034480Y013356D01*
X034638Y013081D01*
X034863Y012856D01*
X035137Y012698D01*
X035444Y012616D01*
X035761Y012616D01*
X036068Y012698D01*
X036342Y012856D01*
X036567Y013081D01*
X036725Y013356D01*
X036763Y013497D01*
X036766Y013487D01*
X036810Y013359D01*
X036869Y013237D01*
X036941Y013122D01*
X037026Y013016D01*
X037121Y012921D01*
X037227Y012836D01*
X037342Y012764D01*
X037464Y012706D01*
X037591Y012661D01*
X037723Y012631D01*
X037790Y012623D01*
X037790Y013685D01*
X038061Y013685D01*
X038061Y013956D01*
X039123Y013956D01*
X039115Y014023D01*
X039085Y014155D01*
X039040Y014282D01*
X038982Y014404D01*
X038910Y014519D01*
X038825Y014625D01*
X038729Y014720D01*
X038624Y014805D01*
X038509Y014877D01*
X038387Y014936D01*
X038259Y014980D01*
X038127Y015010D01*
X038061Y015018D01*
X038061Y013956D01*
X037790Y013956D01*
X037790Y015004D01*
X037906Y015206D01*
X037989Y015512D01*
X037989Y015830D01*
X037906Y016136D01*
X037748Y016411D01*
X037523Y016635D01*
X037249Y016794D01*
X036942Y016876D01*
X036625Y016876D01*
X036319Y016794D01*
X036044Y016635D01*
X035819Y016411D01*
X035676Y016162D01*
X035678Y016168D01*
X035712Y016233D01*
X035713Y016252D01*
X035720Y016268D01*
X035720Y016342D01*
X035726Y016416D01*
X035720Y016433D01*
X035720Y017529D01*
X035763Y017572D01*
X035779Y017550D01*
X035850Y017479D01*
X035930Y017421D01*
X036018Y017376D01*
X036112Y017346D01*
X036210Y017330D01*
X036260Y017330D01*
X036310Y017330D01*
X036408Y017346D01*
X036502Y017376D01*
X036590Y017421D01*
X036670Y017479D01*
X036721Y017530D01*
X036725Y017518D01*
X036774Y017399D01*
X036835Y017286D01*
X036907Y017179D01*
X036988Y017079D01*
X037079Y016988D01*
X037179Y016907D01*
X037286Y016835D01*
X037399Y016774D01*
X037518Y016725D01*
X037641Y016688D01*
X037768Y016663D01*
X037844Y016655D01*
X037844Y017844D01*
X038076Y017844D01*
X038076Y018076D01*
X037844Y018076D01*
X037844Y019265D01*
X037768Y019257D01*
X037641Y019232D01*
X037518Y019195D01*
X037399Y019146D01*
X037286Y019085D01*
X037179Y019013D01*
X037079Y018932D01*
X036988Y018841D01*
X036907Y018741D01*
X036835Y018634D01*
X036774Y018521D01*
X036725Y018402D01*
X036721Y018390D01*
X036670Y018441D01*
X036590Y018499D01*
X036502Y018544D01*
X036408Y018574D01*
X036310Y018590D01*
X036260Y018590D01*
X036260Y017960D01*
X036260Y017960D01*
X036890Y017960D01*
X036890Y018010D01*
X036880Y018076D01*
X037844Y018076D01*
X037844Y017844D01*
X036880Y017844D01*
X036890Y017910D01*
X036890Y017960D01*
X036260Y017960D01*
X036260Y017960D01*
X036260Y018590D01*
X036210Y018590D01*
X036112Y018574D01*
X036018Y018544D01*
X035930Y018499D01*
X035850Y018441D01*
X035779Y018370D01*
X035763Y018348D01*
X035617Y018494D01*
X035385Y018590D01*
X035135Y018590D01*
X034903Y018494D01*
X034726Y018317D01*
X034630Y018085D01*
X034630Y017835D01*
X034726Y017603D01*
X034800Y017529D01*
X034800Y016572D01*
X034542Y016350D01*
X034443Y016350D01*
X034226Y016260D01*
X034060Y016094D01*
X033970Y015877D01*
X033970Y015841D01*
X033851Y015960D01*
X033994Y016103D01*
X034090Y016335D01*
X034090Y016585D01*
X033994Y016817D01*
X033851Y016960D01*
X033994Y017103D01*
X034090Y017335D01*
X034090Y017585D01*
X033994Y017817D01*
X033851Y017960D01*
X033994Y018103D01*
X034090Y018335D01*
X034090Y018585D01*
X033994Y018817D01*
X033817Y018994D01*
X033585Y019090D01*
X033335Y019090D01*
X033103Y018994D01*
X032960Y018851D01*
X032817Y018994D01*
X032585Y019090D01*
X032335Y019090D01*
X032103Y018994D01*
X031960Y018851D01*
X031817Y018994D01*
X031585Y019090D01*
X031335Y019090D01*
X031103Y018994D01*
X031061Y018952D01*
X031050Y018977D01*
X030977Y019050D01*
X030882Y019090D01*
X030038Y019090D01*
X029943Y019050D01*
X029870Y018977D01*
X029830Y018882D01*
X029830Y018038D01*
X029862Y017960D01*
X029830Y017882D01*
X029830Y017038D01*
X029862Y016960D01*
X029830Y016882D01*
X029830Y016038D01*
X029870Y015943D01*
X029943Y015870D01*
X029968Y015859D01*
X029926Y015817D01*
X029830Y015585D01*
X029830Y015335D01*
X029926Y015103D01*
X030069Y014960D01*
X029926Y014817D01*
X029830Y014585D01*
X029830Y014335D01*
X029926Y014103D01*
X030069Y013960D01*
X029926Y013817D01*
X029830Y013585D01*
X029830Y013335D01*
X029926Y013103D01*
X029968Y013061D01*
X029943Y013050D01*
X029870Y012977D01*
X029830Y012882D01*
X029830Y012038D01*
X029862Y011960D01*
X029830Y011882D01*
X029830Y011038D01*
X029862Y010960D01*
X029830Y010882D01*
X029830Y010038D01*
X029862Y009960D01*
X029830Y009882D01*
X029830Y009038D01*
X029870Y008943D01*
X029943Y008870D01*
X029968Y008859D01*
X029926Y008817D01*
X029830Y008585D01*
X029830Y008335D01*
X029926Y008103D01*
X030069Y007960D01*
X029926Y007817D01*
X029830Y007585D01*
X029830Y007335D01*
X029926Y007103D01*
X030069Y006960D01*
X029926Y006817D01*
X029830Y006585D01*
X029830Y006335D01*
X029926Y006103D01*
X030103Y005926D01*
X030335Y005830D01*
X030339Y005830D01*
X030226Y005717D01*
X030130Y005485D01*
X030130Y005235D01*
X030226Y005003D01*
X030403Y004826D01*
X030635Y004730D01*
X030885Y004730D01*
X031117Y004826D01*
X031260Y004969D01*
X031403Y004826D01*
X031635Y004730D01*
X031885Y004730D01*
X032117Y004826D01*
X032260Y004969D01*
X032403Y004826D01*
X032635Y004730D01*
X032885Y004730D01*
X033117Y004826D01*
X033294Y005003D01*
X033390Y005235D01*
X033390Y005485D01*
X033294Y005717D01*
X033117Y005894D01*
X032885Y005990D01*
X032881Y005990D01*
X032960Y006069D01*
X033103Y005926D01*
X033335Y005830D01*
X033585Y005830D01*
X033817Y005926D01*
X033830Y005939D01*
X033830Y005835D01*
X033926Y005603D01*
X034103Y005426D01*
X034335Y005330D01*
X034585Y005330D01*
X034817Y005426D01*
X034960Y005569D01*
X035103Y005426D01*
X035335Y005330D01*
X035585Y005330D01*
X035817Y005426D01*
X035960Y005569D01*
X036103Y005426D01*
X036335Y005330D01*
X036585Y005330D01*
X036817Y005426D01*
X036994Y005603D01*
X037090Y005835D01*
X037090Y006085D01*
X036994Y006317D01*
X036851Y006460D01*
X036994Y006603D01*
X037090Y006835D01*
X037090Y007085D01*
X036994Y007317D01*
X036817Y007494D01*
X036585Y007590D01*
X036335Y007590D01*
X036103Y007494D01*
X035960Y007351D01*
X035817Y007494D01*
X035585Y007590D01*
X035335Y007590D01*
X035103Y007494D01*
X034960Y007351D01*
X034817Y007494D01*
X034585Y007590D01*
X034335Y007590D01*
X034103Y007494D01*
X034090Y007481D01*
X034090Y007585D01*
X033994Y007817D01*
X033851Y007960D01*
X033994Y008103D01*
X034090Y008335D01*
X034090Y008439D01*
X034103Y008426D01*
X034335Y008330D01*
X034585Y008330D01*
X034817Y008426D01*
X034960Y008569D01*
X035103Y008426D01*
X035335Y008330D01*
X035585Y008330D01*
X035817Y008426D01*
X035960Y008569D01*
X036103Y008426D01*
X036335Y008330D01*
X036585Y008330D01*
X036817Y008426D01*
X036994Y008603D01*
X037090Y008835D01*
X037090Y009085D01*
X036994Y009317D01*
X036817Y009494D01*
X036585Y009590D01*
X036335Y009590D01*
X036103Y009494D01*
X035960Y009351D01*
X035817Y009494D01*
X035585Y009590D01*
X035335Y009590D01*
X035103Y009494D01*
X034960Y009351D01*
X034817Y009494D01*
X034585Y009590D01*
X034335Y009590D01*
X034103Y009494D01*
X034090Y009481D01*
X034090Y009882D01*
X034050Y009977D01*
X033977Y010050D01*
X033952Y010061D01*
X033994Y010103D01*
X034090Y010335D01*
X034090Y010585D01*
X033994Y010817D01*
X033851Y010960D01*
X033994Y011103D01*
X034090Y011335D01*
X034090Y011396D01*
X034226Y011260D01*
X034443Y011170D01*
X034595Y011170D01*
X034962Y010908D01*
X034999Y010870D01*
X035035Y010855D01*
X035067Y010833D01*
X035119Y010820D01*
X035168Y010800D01*
X035207Y010800D01*
X035245Y010791D01*
X035298Y010800D01*
X035707Y010800D01*
X035734Y010773D01*
X035752Y010765D01*
X035485Y010498D01*
X035485Y010260D01*
X036060Y010260D01*
X036635Y010260D01*
X036635Y010498D01*
X036368Y010765D01*
X036386Y010773D01*
X036413Y010800D01*
X036869Y010800D01*
X037470Y010199D01*
X037599Y010070D01*
X037768Y010000D01*
X038000Y010000D01*
X038000Y008661D01*
X037943Y008604D01*
X037903Y008509D01*
X037903Y007811D01*
X037943Y007716D01*
X038016Y007643D01*
X038111Y007603D01*
X038123Y007603D01*
X038097Y007585D01*
X038035Y007523D01*
X037984Y007452D01*
X037944Y007374D01*
X037917Y007290D01*
X037903Y007204D01*
X037903Y007160D01*
X037903Y007116D01*
X037917Y007030D01*
X037944Y006946D01*
X037984Y006868D01*
X038035Y006797D01*
X038097Y006735D01*
X038168Y006684D01*
X038214Y006661D01*
X038145Y006632D01*
X037988Y006475D01*
X037903Y006271D01*
X037903Y006049D01*
X037950Y005936D01*
X037950Y005009D01*
X037982Y004932D01*
X037090Y004041D01*
X037090Y004085D01*
X036994Y004317D01*
X036817Y004494D01*
X036585Y004590D01*
X036335Y004590D01*
X036103Y004494D01*
X035960Y004351D01*
X035817Y004494D01*
X035585Y004590D01*
X035335Y004590D01*
X035103Y004494D01*
X034960Y004351D01*
X034817Y004494D01*
X034585Y004590D01*
X034335Y004590D01*
X034103Y004494D01*
X033926Y004317D01*
X033830Y004085D01*
X033830Y003835D01*
X033926Y003603D01*
X034103Y003426D01*
X034335Y003330D01*
X034585Y003330D01*
X034817Y003426D01*
X034960Y003569D01*
X035103Y003426D01*
X035335Y003330D01*
X035585Y003330D01*
X035817Y003426D01*
X035960Y003569D01*
X036103Y003426D01*
X036335Y003330D01*
X036379Y003330D01*
X036139Y003090D01*
X036035Y003090D01*
X035803Y002994D01*
X035626Y002817D01*
X035530Y002585D01*
X035530Y002513D01*
X034797Y001920D01*
X034683Y001920D01*
X034935Y002172D01*
X034935Y002410D01*
X034935Y002648D01*
X034598Y002985D01*
X034360Y002985D01*
X034360Y002410D01*
X034360Y002410D01*
X034935Y002410D01*
X034360Y002410D01*
X034360Y002410D01*
X034360Y002410D01*
X033785Y002410D01*
X033785Y002648D01*
X034122Y002985D01*
X034360Y002985D01*
X034360Y002410D01*
X033785Y002410D01*
X033785Y002172D01*
X034037Y001920D01*
X033822Y001920D01*
X033793Y001932D01*
X033716Y001967D01*
X033709Y001967D01*
X033701Y001970D01*
X033617Y001970D01*
X033533Y001973D01*
X033526Y001970D01*
X033518Y001970D01*
X033441Y001938D01*
X033362Y001908D01*
X033357Y001903D01*
X033349Y001900D01*
X033290Y001841D01*
X032628Y001220D01*
X030444Y001220D01*
X030474Y001312D01*
X030490Y001410D01*
X030490Y001460D01*
X030490Y001510D01*
X030474Y001608D01*
X030444Y001702D01*
X030399Y001790D01*
X030341Y001870D01*
X030270Y001941D01*
X030190Y001999D01*
X030102Y002044D01*
X030008Y002074D01*
X029910Y002090D01*
X029860Y002090D01*
X029860Y001460D01*
X029860Y001460D01*
X030490Y001460D01*
X029860Y001460D01*
X029860Y001460D01*
X029860Y001460D01*
X028860Y001460D01*
X028860Y001460D01*
X028860Y001460D01*
X028860Y002090D01*
X028910Y002090D01*
X029008Y002074D01*
X029102Y002044D01*
X029190Y001999D01*
X029270Y001941D01*
X029341Y001870D01*
X029360Y001844D01*
X029379Y001870D01*
X029450Y001941D01*
X029530Y001999D01*
X029618Y002044D01*
X029712Y002074D01*
X029810Y002090D01*
X029860Y002090D01*
X029860Y001460D01*
X029230Y001460D01*
X028860Y001460D01*
X028860Y002090D01*
X028810Y002090D01*
X028712Y002074D01*
X028618Y002044D01*
X028530Y001999D01*
X028450Y001941D01*
X028379Y001870D01*
X028363Y001848D01*
X028217Y001994D01*
X027985Y002090D01*
X027735Y002090D01*
X027503Y001994D01*
X027461Y001952D01*
X027450Y001977D01*
X027377Y002050D01*
X027282Y002090D01*
X026438Y002090D01*
X026343Y002050D01*
X026270Y001977D01*
X026230Y001882D01*
X026230Y001220D01*
X025780Y001220D01*
X025780Y001360D01*
X025780Y001575D01*
X025475Y001880D01*
X025260Y001880D01*
X025260Y001360D01*
X025260Y001360D01*
X025780Y001360D01*
X025260Y001360D01*
X025260Y001360D01*
X025260Y001880D01*
X025045Y001880D01*
X024760Y001595D01*
X024475Y001880D01*
X024045Y001880D01*
X023905Y001740D01*
X023026Y001740D01*
X022994Y001817D01*
X022817Y001994D01*
X022800Y002001D01*
X022800Y002443D01*
X023269Y002443D01*
X023365Y002482D01*
X023438Y002555D01*
X023460Y002609D01*
X023482Y002555D01*
X023555Y002482D01*
X023651Y002443D01*
X024269Y002443D01*
X024365Y002482D01*
X024438Y002555D01*
X024460Y002609D01*
X024482Y002555D01*
X024555Y002482D01*
X024651Y002443D01*
X025269Y002443D01*
X025365Y002482D01*
X025438Y002555D01*
X025460Y002609D01*
X025482Y002555D01*
X025555Y002482D01*
X025651Y002443D01*
X026269Y002443D01*
X026365Y002482D01*
X026438Y002555D01*
X026460Y002609D01*
X026482Y002555D01*
X026555Y002482D01*
X026651Y002443D01*
X027269Y002443D01*
X027365Y002482D01*
X027438Y002555D01*
X027460Y002609D01*
X027482Y002555D01*
X027555Y002482D01*
X027651Y002443D01*
X028269Y002443D01*
X028365Y002482D01*
X028438Y002555D01*
X028460Y002609D01*
X028482Y002555D01*
X028555Y002482D01*
X028651Y002443D01*
X029269Y002443D01*
X029365Y002482D01*
X029438Y002555D01*
X029477Y002651D01*
X029477Y003269D01*
X029470Y003287D01*
X029470Y003633D01*
X029477Y003651D01*
X029477Y004269D01*
X029470Y004287D01*
X029470Y004633D01*
X029477Y004651D01*
X029477Y005269D01*
X029442Y005355D01*
X029477Y005370D01*
X029550Y005443D01*
X029590Y005538D01*
X029590Y006382D01*
X029550Y006477D01*
X029477Y006550D01*
X029470Y006553D01*
X029470Y007572D01*
X029480Y007597D01*
X029480Y008323D01*
X029401Y008515D01*
X029255Y008661D01*
X029063Y008740D01*
X028857Y008740D01*
X028665Y008661D01*
X028519Y008515D01*
X028460Y008372D01*
X028401Y008515D01*
X028255Y008661D01*
X028063Y008740D01*
X027857Y008740D01*
X027665Y008661D01*
X027519Y008515D01*
X027460Y008372D01*
X027401Y008515D01*
X027255Y008661D01*
X027063Y008740D01*
X026857Y008740D01*
X026665Y008661D01*
X026519Y008515D01*
X026460Y008372D01*
X026401Y008515D01*
X026255Y008661D01*
X026063Y008740D01*
X025857Y008740D01*
X025665Y008661D01*
X025519Y008515D01*
X025460Y008372D01*
X025401Y008515D01*
X025255Y008661D01*
X025063Y008740D01*
X024857Y008740D01*
X024665Y008661D01*
X024519Y008515D01*
X024460Y008372D01*
X024401Y008515D01*
X024340Y008575D01*
X024340Y009534D01*
X024347Y009584D01*
X024340Y009609D01*
X024340Y009636D01*
X024321Y009682D01*
X024308Y009730D01*
X024292Y009751D01*
X024282Y009775D01*
X024247Y009810D01*
X022392Y012251D01*
X022382Y012275D01*
X022347Y012310D01*
X022317Y012350D01*
X022294Y012363D01*
X022275Y012382D01*
X022229Y012401D01*
X022186Y012426D01*
X022160Y012430D01*
X022136Y012440D01*
X022086Y012440D01*
X022036Y012447D01*
X022011Y012440D01*
X020365Y012440D01*
X020380Y012476D01*
X020380Y012644D01*
X020340Y012740D01*
X020340Y013345D01*
X020401Y013405D01*
X020460Y013548D01*
X020519Y013405D01*
X020665Y013259D01*
X020857Y013180D01*
X021063Y013180D01*
X021255Y013259D01*
X021401Y013405D01*
X021460Y013548D01*
X021448Y013519D02*
X021472Y013519D01*
X021808Y013200D02*
X021112Y013200D01*
X020808Y013200D02*
X020340Y013200D01*
X020340Y012882D02*
X029830Y012882D01*
X029830Y012563D02*
X020380Y012563D01*
X019557Y012684D02*
X019540Y012644D01*
X019540Y012476D01*
X019555Y012440D01*
X008831Y012440D01*
X009090Y012699D01*
X009090Y013221D01*
X008851Y013460D01*
X009090Y013699D01*
X009090Y014221D01*
X008851Y014460D01*
X008994Y014603D01*
X009090Y014835D01*
X009090Y015085D01*
X008994Y015317D01*
X008981Y015330D01*
X009085Y015330D01*
X009317Y015426D01*
X009450Y015559D01*
X009450Y014348D01*
X009440Y014323D01*
X009440Y013597D01*
X009519Y013405D01*
X009665Y013259D01*
X009857Y013180D01*
X010063Y013180D01*
X010255Y013259D01*
X010401Y013405D01*
X010460Y013548D01*
X010519Y013405D01*
X010665Y013259D01*
X010857Y013180D01*
X011063Y013180D01*
X011255Y013259D01*
X011401Y013405D01*
X011460Y013548D01*
X011519Y013405D01*
X011665Y013259D01*
X011857Y013180D01*
X012063Y013180D01*
X012255Y013259D01*
X012401Y013405D01*
X012460Y013548D01*
X012519Y013405D01*
X012665Y013259D01*
X012857Y013180D01*
X013063Y013180D01*
X013255Y013259D01*
X013401Y013405D01*
X013460Y013548D01*
X013519Y013405D01*
X013665Y013259D01*
X013857Y013180D01*
X014063Y013180D01*
X014255Y013259D01*
X014401Y013405D01*
X014460Y013548D01*
X014519Y013405D01*
X014665Y013259D01*
X014857Y013180D01*
X015063Y013180D01*
X015255Y013259D01*
X015401Y013405D01*
X015460Y013548D01*
X015519Y013405D01*
X015665Y013259D01*
X015857Y013180D01*
X016063Y013180D01*
X016255Y013259D01*
X016401Y013405D01*
X016460Y013548D01*
X016519Y013405D01*
X016665Y013259D01*
X016857Y013180D01*
X017063Y013180D01*
X017255Y013259D01*
X017401Y013405D01*
X017460Y013548D01*
X017519Y013405D01*
X017665Y013259D01*
X017857Y013180D01*
X018063Y013180D01*
X018255Y013259D01*
X018401Y013405D01*
X018461Y013552D01*
X018478Y013500D01*
X018515Y013427D01*
X018563Y013361D01*
X018621Y013303D01*
X018687Y013255D01*
X018688Y013255D01*
X018688Y013160D01*
X018688Y012898D01*
X018698Y012848D01*
X018718Y012801D01*
X018746Y012758D01*
X018782Y012722D01*
X018825Y012693D01*
X018872Y012674D01*
X018923Y012664D01*
X019106Y012664D01*
X019289Y012664D01*
X019339Y012674D01*
X019386Y012693D01*
X019429Y012722D01*
X019460Y012753D01*
X019510Y012703D01*
X019557Y012684D01*
X019540Y012563D02*
X008954Y012563D01*
X009090Y012882D02*
X018692Y012882D01*
X019106Y012882D02*
X019106Y012882D01*
X019106Y012664D02*
X019106Y013160D01*
X019106Y013160D01*
X019106Y012664D01*
X019106Y013160D02*
X018688Y013160D01*
X019106Y013160D01*
X019106Y013160D01*
X018688Y013200D02*
X018112Y013200D01*
X017808Y013200D02*
X017112Y013200D01*
X016808Y013200D02*
X016112Y013200D01*
X015808Y013200D02*
X015112Y013200D01*
X014808Y013200D02*
X014112Y013200D01*
X013808Y013200D02*
X013112Y013200D01*
X012808Y013200D02*
X012112Y013200D01*
X011808Y013200D02*
X011112Y013200D01*
X010808Y013200D02*
X010112Y013200D01*
X009808Y013200D02*
X009090Y013200D01*
X008909Y013519D02*
X009472Y013519D01*
X009440Y013837D02*
X009090Y013837D01*
X009090Y014156D02*
X009440Y014156D01*
X009450Y014474D02*
X008865Y014474D01*
X009073Y014793D02*
X009450Y014793D01*
X009450Y015111D02*
X009079Y015111D01*
X009320Y015430D02*
X009450Y015430D01*
X008439Y015590D02*
X008335Y015590D01*
X008103Y015494D01*
X007960Y015351D01*
X007817Y015494D01*
X007585Y015590D01*
X007335Y015590D01*
X007103Y015494D01*
X006960Y015351D01*
X006817Y015494D01*
X006585Y015590D01*
X006481Y015590D01*
X006494Y015603D01*
X006590Y015835D01*
X006590Y016085D01*
X006494Y016317D01*
X006351Y016460D01*
X006494Y016603D01*
X006590Y016835D01*
X006590Y017085D01*
X006494Y017317D01*
X006351Y017460D01*
X006494Y017603D01*
X006590Y017835D01*
X006590Y018085D01*
X006494Y018317D01*
X006317Y018494D01*
X006085Y018590D01*
X005835Y018590D01*
X005603Y018494D01*
X005426Y018317D01*
X005406Y018270D01*
X005356Y018391D01*
X005191Y018556D01*
X004976Y018645D01*
X004744Y018645D01*
X004529Y018556D01*
X004461Y018489D01*
X004238Y018473D01*
X004117Y018594D01*
X003885Y018690D01*
X003635Y018690D01*
X003403Y018594D01*
X003226Y018417D01*
X003205Y018367D01*
X003195Y018402D01*
X003146Y018521D01*
X003085Y018634D01*
X003013Y018741D01*
X002932Y018841D01*
X002841Y018932D01*
X002741Y019013D01*
X002634Y019085D01*
X002521Y019146D01*
X002402Y019195D01*
X002279Y019232D01*
X002152Y019257D01*
X002076Y019265D01*
X002076Y018076D01*
X001844Y018076D01*
X001844Y019265D01*
X001768Y019257D01*
X001641Y019232D01*
X001518Y019195D01*
X001399Y019146D01*
X001286Y019085D01*
X001179Y019013D01*
X001079Y018932D01*
X000988Y018841D01*
X000907Y018741D01*
X000835Y018634D01*
X000774Y018521D01*
X000725Y018402D01*
X000720Y018385D01*
X000720Y019300D01*
X006628Y019300D01*
X006621Y019290D01*
X006576Y019202D01*
X006546Y019108D01*
X006530Y019010D01*
X006530Y018960D01*
X007160Y018960D01*
X007160Y018960D01*
X007160Y018330D01*
X007210Y018330D01*
X007308Y018346D01*
X007402Y018376D01*
X007490Y018421D01*
X007570Y018479D01*
X007641Y018550D01*
X007657Y018572D01*
X007803Y018426D01*
X008035Y018330D01*
X008285Y018330D01*
X008517Y018426D01*
X008694Y018603D01*
X008790Y018835D01*
X008790Y019085D01*
X008701Y019300D01*
X009455Y019300D01*
X009443Y019269D01*
X009443Y018651D01*
X009450Y018633D01*
X009450Y018361D01*
X009317Y018494D01*
X009085Y018590D01*
X008835Y018590D01*
X008603Y018494D01*
X008426Y018317D01*
X008330Y018085D01*
X008330Y017835D01*
X008426Y017603D01*
X008569Y017460D01*
X008426Y017317D01*
X008330Y017085D01*
X008330Y016835D01*
X008426Y016603D01*
X008569Y016460D01*
X008426Y016317D01*
X008330Y016085D01*
X008330Y015835D01*
X008426Y015603D01*
X008439Y015590D01*
X008366Y015748D02*
X006554Y015748D01*
X006590Y016067D02*
X008330Y016067D01*
X008494Y016385D02*
X006426Y016385D01*
X006536Y016704D02*
X008384Y016704D01*
X008330Y017022D02*
X006590Y017022D01*
X006470Y017341D02*
X008450Y017341D01*
X008403Y017659D02*
X006517Y017659D01*
X006590Y017978D02*
X008330Y017978D01*
X008417Y018296D02*
X006503Y018296D01*
X006750Y018479D02*
X006830Y018421D01*
X006918Y018376D01*
X007012Y018346D01*
X007110Y018330D01*
X007160Y018330D01*
X007160Y018960D01*
X007160Y018960D01*
X006530Y018960D01*
X006530Y018910D01*
X006546Y018812D01*
X006576Y018718D01*
X006621Y018630D01*
X006679Y018550D01*
X006750Y018479D01*
X006632Y018615D02*
X005050Y018615D01*
X004670Y018615D02*
X004068Y018615D01*
X003452Y018615D02*
X003096Y018615D01*
X002839Y018933D02*
X006530Y018933D01*
X006601Y019252D02*
X002182Y019252D01*
X002076Y019252D02*
X001844Y019252D01*
X001738Y019252D02*
X000720Y019252D01*
X000720Y018933D02*
X001081Y018933D01*
X000824Y018615D02*
X000720Y018615D01*
X001844Y018615D02*
X002076Y018615D01*
X002076Y018933D02*
X001844Y018933D01*
X001844Y018296D02*
X002076Y018296D01*
X002076Y017844D02*
X001844Y017844D01*
X001844Y016724D01*
X001917Y016694D01*
X002071Y016540D01*
X002149Y016540D01*
X002303Y016694D01*
X002313Y016698D01*
X002279Y016688D01*
X002152Y016663D01*
X002076Y016655D01*
X002076Y017844D01*
X002076Y017659D02*
X001844Y017659D01*
X001844Y017341D02*
X002076Y017341D01*
X002076Y017022D02*
X001844Y017022D01*
X001398Y016775D02*
X001203Y016694D01*
X001026Y016517D01*
X000930Y016285D01*
X000930Y016035D01*
X001026Y015803D01*
X001169Y015660D01*
X001026Y015517D01*
X000930Y015285D01*
X000930Y015035D01*
X001026Y014803D01*
X001169Y014660D01*
X001026Y014517D01*
X000930Y014285D01*
X000930Y014035D01*
X001026Y013803D01*
X001169Y013660D01*
X001026Y013517D01*
X000930Y013285D01*
X000930Y013267D01*
X000720Y013057D01*
X000720Y017535D01*
X000725Y017518D01*
X000774Y017399D01*
X000835Y017286D01*
X000907Y017179D01*
X000988Y017079D01*
X001079Y016988D01*
X001179Y016907D01*
X001286Y016835D01*
X001398Y016775D01*
X001226Y016704D02*
X000720Y016704D01*
X000720Y016385D02*
X000971Y016385D01*
X000930Y016067D02*
X000720Y016067D01*
X000720Y015748D02*
X001081Y015748D01*
X000990Y015430D02*
X000720Y015430D01*
X000720Y015111D02*
X000930Y015111D01*
X001037Y014793D02*
X000720Y014793D01*
X000720Y014474D02*
X001008Y014474D01*
X000930Y014156D02*
X000720Y014156D01*
X000720Y013837D02*
X001012Y013837D01*
X001028Y013519D02*
X000720Y013519D01*
X000720Y013200D02*
X000863Y013200D01*
X001560Y012160D02*
X002660Y012160D01*
X003290Y012160D01*
X003290Y012210D01*
X003274Y012308D01*
X003244Y012402D01*
X003199Y012490D01*
X003141Y012570D01*
X003070Y012641D01*
X003048Y012657D01*
X003194Y012803D01*
X003290Y013035D01*
X003290Y013285D01*
X003194Y013517D01*
X003051Y013660D01*
X003087Y013696D01*
X003380Y013403D01*
X003380Y011984D01*
X003438Y011845D01*
X003545Y011738D01*
X004145Y011138D01*
X004284Y011080D01*
X021079Y011080D01*
X022580Y009225D01*
X022580Y008575D01*
X022519Y008515D01*
X022460Y008372D01*
X022401Y008515D01*
X022255Y008661D01*
X022063Y008740D01*
X021857Y008740D01*
X021665Y008661D01*
X021519Y008515D01*
X021460Y008372D01*
X021401Y008515D01*
X021255Y008661D01*
X021063Y008740D01*
X020857Y008740D01*
X020665Y008661D01*
X020519Y008515D01*
X020459Y008368D01*
X020442Y008420D01*
X020405Y008493D01*
X020357Y008559D01*
X020299Y008617D01*
X020233Y008665D01*
X020232Y008665D01*
X020232Y008760D01*
X020232Y009022D01*
X020222Y009072D01*
X020202Y009119D01*
X020174Y009162D01*
X020138Y009198D01*
X020095Y009227D01*
X020048Y009246D01*
X019997Y009256D01*
X019814Y009256D01*
X019631Y009256D01*
X019581Y009246D01*
X019534Y009227D01*
X019491Y009198D01*
X019460Y009167D01*
X019410Y009217D01*
X019363Y009236D01*
X019380Y009276D01*
X019380Y009444D01*
X019316Y009598D01*
X019198Y009716D01*
X019044Y009780D01*
X018876Y009780D01*
X018722Y009716D01*
X018604Y009598D01*
X018540Y009444D01*
X018540Y009276D01*
X018580Y009180D01*
X018580Y008575D01*
X018519Y008515D01*
X018460Y008372D01*
X018401Y008515D01*
X018255Y008661D01*
X018063Y008740D01*
X017857Y008740D01*
X017665Y008661D01*
X017519Y008515D01*
X017470Y008396D01*
X017470Y008661D01*
X017392Y008849D01*
X015492Y010749D01*
X015349Y010892D01*
X015161Y010970D01*
X003261Y010970D01*
X003274Y011012D01*
X003290Y011110D01*
X003290Y011160D01*
X003290Y011210D01*
X003274Y011308D01*
X003244Y011402D01*
X003199Y011490D01*
X003141Y011570D01*
X003070Y011641D01*
X003044Y011660D01*
X003070Y011679D01*
X003141Y011750D01*
X003199Y011830D01*
X003244Y011918D01*
X003274Y012012D01*
X003290Y012110D01*
X003290Y012160D01*
X002660Y012160D01*
X002660Y012160D01*
X002660Y011160D01*
X002660Y011160D01*
X003290Y011160D01*
X002660Y011160D01*
X002660Y011160D01*
X002660Y011160D01*
X001560Y011160D01*
X001560Y011160D01*
X001560Y011160D01*
X001560Y012160D01*
X001560Y012160D01*
X002030Y012160D01*
X002660Y012160D01*
X002660Y012160D01*
X002660Y012160D01*
X002660Y011530D01*
X002660Y011160D01*
X002190Y011160D01*
X001560Y011160D01*
X001560Y011790D01*
X001560Y012160D01*
X001560Y012160D01*
X001560Y011926D02*
X001560Y011926D01*
X001560Y011608D02*
X001560Y011608D01*
X001560Y011289D02*
X001560Y011289D01*
X001560Y011160D02*
X001560Y010530D01*
X001610Y010530D01*
X001708Y010546D01*
X001802Y010576D01*
X001890Y010621D01*
X001970Y010679D01*
X002041Y010750D01*
X002099Y010830D01*
X002110Y010852D01*
X002121Y010830D01*
X002179Y010750D01*
X002249Y010680D01*
X001090Y009596D01*
X001090Y010739D01*
X001150Y010679D01*
X001230Y010621D01*
X001318Y010576D01*
X001412Y010546D01*
X001510Y010530D01*
X001560Y010530D01*
X001560Y011160D01*
X001560Y011160D01*
X001560Y010971D02*
X001560Y010971D01*
X001560Y010652D02*
X001560Y010652D01*
X001933Y010652D02*
X002219Y010652D01*
X001878Y010334D02*
X001090Y010334D01*
X001090Y010652D02*
X001187Y010652D01*
X001090Y010015D02*
X001538Y010015D01*
X001197Y009697D02*
X001090Y009697D01*
X003077Y008856D02*
X003371Y009150D01*
X004229Y009150D01*
X003350Y008271D01*
X003350Y008584D01*
X003077Y008856D01*
X003193Y008741D02*
X003820Y008741D01*
X004138Y009060D02*
X003281Y009060D01*
X003350Y008423D02*
X003501Y008423D01*
X004307Y007786D02*
X009440Y007786D01*
X009440Y007597D02*
X009450Y007572D01*
X009450Y006341D01*
X009426Y006317D01*
X009330Y006085D01*
X009330Y005835D01*
X009426Y005603D01*
X009581Y005448D01*
X009555Y005438D01*
X009482Y005365D01*
X009443Y005269D01*
X009443Y004651D01*
X009450Y004633D01*
X009450Y004287D01*
X009443Y004269D01*
X009443Y003651D01*
X009450Y003633D01*
X009450Y003454D01*
X009204Y003700D01*
X008800Y003700D01*
X008800Y003761D01*
X008715Y003967D01*
X008557Y004125D01*
X008351Y004210D01*
X007529Y004210D01*
X007323Y004125D01*
X007228Y004030D01*
X006092Y004030D01*
X005997Y004125D01*
X005791Y004210D01*
X004969Y004210D01*
X004883Y004174D01*
X004082Y004975D01*
X003975Y005082D01*
X003836Y005140D01*
X002217Y005140D01*
X002190Y005167D01*
X002190Y005976D01*
X002310Y006096D01*
X002586Y005820D01*
X002810Y005820D01*
X003034Y005820D01*
X003350Y006136D01*
X003350Y006360D01*
X003350Y006584D01*
X003084Y006850D01*
X003261Y006850D01*
X003449Y006928D01*
X004971Y008450D01*
X009492Y008450D01*
X009440Y008323D01*
X009440Y007597D01*
X009450Y007467D02*
X008844Y007467D01*
X008721Y007590D02*
X008199Y007590D01*
X007960Y007351D01*
X007721Y007590D01*
X007199Y007590D01*
X006960Y007351D01*
X006721Y007590D01*
X006199Y007590D01*
X005960Y007351D01*
X005721Y007590D01*
X005199Y007590D01*
X004830Y007221D01*
X004830Y006699D01*
X005069Y006460D01*
X004830Y006221D01*
X004830Y005699D01*
X005069Y005460D01*
X004926Y005317D01*
X004830Y005085D01*
X004830Y004835D01*
X004926Y004603D01*
X005103Y004426D01*
X005335Y004330D01*
X005585Y004330D01*
X005817Y004426D01*
X005960Y004569D01*
X006103Y004426D01*
X006335Y004330D01*
X006585Y004330D01*
X006817Y004426D01*
X006960Y004569D01*
X007103Y004426D01*
X007335Y004330D01*
X007585Y004330D01*
X007817Y004426D01*
X007859Y004468D01*
X007870Y004443D01*
X007943Y004370D01*
X008038Y004330D01*
X008882Y004330D01*
X008977Y004370D01*
X009050Y004443D01*
X009090Y004538D01*
X009090Y005382D01*
X009050Y005477D01*
X008977Y005550D01*
X008952Y005561D01*
X009090Y005699D01*
X009090Y006221D01*
X008851Y006460D01*
X009090Y006699D01*
X009090Y007221D01*
X008721Y007590D01*
X009090Y007149D02*
X009450Y007149D01*
X009450Y006830D02*
X009090Y006830D01*
X008902Y006512D02*
X009450Y006512D01*
X009375Y006193D02*
X009090Y006193D01*
X009090Y005875D02*
X009330Y005875D01*
X009473Y005556D02*
X008964Y005556D01*
X009090Y005238D02*
X009443Y005238D01*
X009443Y004919D02*
X009090Y004919D01*
X009090Y004601D02*
X009450Y004601D01*
X009448Y004282D02*
X004775Y004282D01*
X004929Y004601D02*
X004457Y004601D01*
X003701Y004282D02*
X001090Y004282D01*
X001090Y004167D02*
X001090Y007543D01*
X001270Y007363D01*
X001270Y007136D01*
X001546Y006860D01*
X001270Y006584D01*
X001270Y006136D01*
X001430Y005976D01*
X001430Y004934D01*
X001488Y004795D01*
X001595Y004688D01*
X001845Y004438D01*
X001984Y004380D01*
X003603Y004380D01*
X003843Y004140D01*
X003685Y004140D01*
X003453Y004044D01*
X003276Y003867D01*
X003223Y003740D01*
X002740Y003740D01*
X002644Y003780D01*
X001477Y003780D01*
X001090Y004167D01*
X001294Y003964D02*
X003373Y003964D01*
X004440Y003543D02*
X004574Y003409D01*
X004605Y003333D01*
X004763Y003175D01*
X004969Y003090D01*
X005791Y003090D01*
X005997Y003175D01*
X006092Y003270D01*
X007228Y003270D01*
X007323Y003175D01*
X007529Y003090D01*
X008174Y003090D01*
X008370Y002988D01*
X008370Y002866D01*
X008626Y002610D01*
X008417Y002401D01*
X008371Y002416D01*
X008284Y002430D01*
X007940Y002430D01*
X007940Y001870D01*
X007940Y001870D01*
X007940Y001310D01*
X008284Y001310D01*
X008371Y001324D01*
X008455Y001351D01*
X008534Y001391D01*
X008605Y001443D01*
X008667Y001505D01*
X008694Y001542D01*
X008716Y001520D01*
X009006Y001520D01*
X009030Y001500D01*
X009030Y001220D01*
X004637Y001220D01*
X004440Y001417D01*
X004440Y001635D01*
X004344Y001867D01*
X004201Y002010D01*
X004344Y002153D01*
X004440Y002385D01*
X004440Y002580D01*
X004498Y002604D01*
X004616Y002722D01*
X004680Y002876D01*
X004680Y003044D01*
X004616Y003198D01*
X004498Y003316D01*
X004424Y003347D01*
X004440Y003385D01*
X004440Y003543D01*
X004473Y003327D02*
X004612Y003327D01*
X004680Y003008D02*
X008332Y003008D01*
X008546Y002690D02*
X004583Y002690D01*
X004949Y002416D02*
X005036Y002430D01*
X005380Y002430D01*
X005380Y001870D01*
X005380Y001870D01*
X006240Y001870D01*
X006240Y001914D01*
X006226Y002001D01*
X006199Y002085D01*
X006159Y002164D01*
X006107Y002235D01*
X006045Y002297D01*
X005974Y002349D01*
X005895Y002389D01*
X005811Y002416D01*
X005724Y002430D01*
X005380Y002430D01*
X005380Y001870D01*
X005380Y001870D01*
X005380Y001310D01*
X005724Y001310D01*
X005811Y001324D01*
X005895Y001351D01*
X005974Y001391D01*
X006045Y001443D01*
X006107Y001505D01*
X006159Y001576D01*
X006199Y001655D01*
X006226Y001739D01*
X006240Y001826D01*
X006240Y001870D01*
X005380Y001870D01*
X005380Y001870D01*
X005380Y001870D01*
X004520Y001870D01*
X004520Y001914D01*
X004534Y002001D01*
X004561Y002085D01*
X004601Y002164D01*
X004653Y002235D01*
X004715Y002297D01*
X004786Y002349D01*
X004865Y002389D01*
X004949Y002416D01*
X004830Y002371D02*
X004434Y002371D01*
X004550Y002053D02*
X004243Y002053D01*
X004520Y001870D02*
X004520Y001826D01*
X004534Y001739D01*
X004561Y001655D01*
X004601Y001576D01*
X004653Y001505D01*
X004715Y001443D01*
X004786Y001391D01*
X004865Y001351D01*
X004949Y001324D01*
X005036Y001310D01*
X005380Y001310D01*
X005380Y001870D01*
X004520Y001870D01*
X004535Y001734D02*
X004399Y001734D01*
X004442Y001416D02*
X004753Y001416D01*
X005380Y001416D02*
X005380Y001416D01*
X005380Y001734D02*
X005380Y001734D01*
X006007Y001416D02*
X007313Y001416D01*
X007346Y001391D02*
X007275Y001443D01*
X007213Y001505D01*
X007161Y001576D01*
X007121Y001655D01*
X007094Y001739D01*
X007080Y001826D01*
X007080Y001870D01*
X007940Y001870D01*
X007940Y001870D01*
X007940Y001870D01*
X007940Y002430D01*
X007596Y002430D01*
X007509Y002416D01*
X007425Y002389D01*
X007346Y002349D01*
X007275Y002297D01*
X007213Y002235D01*
X007161Y002164D01*
X007121Y002085D01*
X007094Y002001D01*
X007080Y001914D01*
X007080Y001870D01*
X007940Y001870D01*
X007940Y001310D01*
X007596Y001310D01*
X007509Y001324D01*
X007425Y001351D01*
X007346Y001391D01*
X007095Y001734D02*
X006225Y001734D01*
X006210Y002053D02*
X007110Y002053D01*
X007390Y002371D02*
X005930Y002371D01*
X005380Y002371D02*
X005380Y002371D01*
X005380Y002053D02*
X005380Y002053D01*
X003419Y002010D02*
X003276Y001867D01*
X003264Y001839D01*
X003265Y001844D01*
X002076Y001844D01*
X002076Y002076D01*
X003265Y002076D01*
X003257Y002152D01*
X003240Y002240D01*
X003276Y002153D01*
X003419Y002010D01*
X003377Y002053D02*
X002076Y002053D01*
X003180Y001482D02*
X003180Y001385D01*
X003276Y001153D01*
X003453Y000976D01*
X003685Y000880D01*
X003903Y000880D01*
X004000Y000783D01*
X004000Y000720D01*
X002385Y000720D01*
X002402Y000725D01*
X002521Y000774D01*
X002634Y000835D01*
X002741Y000907D01*
X002841Y000988D01*
X002932Y001079D01*
X003013Y001179D01*
X003085Y001286D01*
X003146Y001399D01*
X003180Y001482D01*
X003180Y001416D02*
X003152Y001416D01*
X003332Y001097D02*
X002946Y001097D01*
X002529Y000779D02*
X004000Y000779D01*
X007940Y001416D02*
X007940Y001416D01*
X007940Y001734D02*
X007940Y001734D01*
X008567Y001416D02*
X009030Y001416D01*
X007940Y002053D02*
X007940Y002053D01*
X007940Y002371D02*
X007940Y002371D01*
X009259Y003645D02*
X009445Y003645D01*
X009443Y003964D02*
X008716Y003964D01*
X004973Y005556D02*
X002190Y005556D01*
X002810Y005820D02*
X002810Y006360D01*
X003350Y006360D01*
X002810Y006360D01*
X002810Y006360D01*
X002810Y005820D01*
X002810Y005875D02*
X002810Y005875D01*
X003088Y005875D02*
X004830Y005875D01*
X004830Y006193D02*
X003350Y006193D01*
X003350Y006512D02*
X005018Y006512D01*
X004830Y006830D02*
X003104Y006830D01*
X002810Y006360D02*
X002810Y006360D01*
X002810Y006193D02*
X002810Y006193D01*
X002532Y005875D02*
X002190Y005875D01*
X001430Y005875D02*
X001090Y005875D01*
X001090Y006193D02*
X001270Y006193D01*
X001270Y006512D02*
X001090Y006512D01*
X001090Y006830D02*
X001516Y006830D01*
X001270Y007149D02*
X001090Y007149D01*
X001090Y007467D02*
X001166Y007467D01*
X003670Y007149D02*
X004830Y007149D01*
X005076Y007467D02*
X003988Y007467D01*
X004625Y008104D02*
X009440Y008104D01*
X009481Y008423D02*
X004944Y008423D01*
X005844Y007467D02*
X006076Y007467D01*
X006844Y007467D02*
X007076Y007467D01*
X007844Y007467D02*
X008076Y007467D01*
X004893Y005238D02*
X002190Y005238D01*
X001430Y005238D02*
X001090Y005238D01*
X001090Y004919D02*
X001436Y004919D01*
X001682Y004601D02*
X001090Y004601D01*
X001090Y005556D02*
X001430Y005556D01*
X004138Y004919D02*
X004830Y004919D01*
X002560Y003360D02*
X001360Y003360D01*
X013660Y001460D02*
X014660Y001460D01*
X015660Y001460D01*
X016660Y001460D01*
X016660Y001460D01*
X016290Y001460D01*
X015660Y001460D01*
X015660Y001460D01*
X015660Y001460D01*
X015030Y001460D01*
X014660Y001460D01*
X014660Y001460D01*
X014660Y001460D01*
X014030Y001460D01*
X013660Y001460D01*
X013660Y001460D01*
X020780Y002009D02*
X020780Y002443D01*
X021269Y002443D01*
X021365Y002482D01*
X021438Y002555D01*
X021460Y002609D01*
X021482Y002555D01*
X021555Y002482D01*
X021651Y002443D01*
X022120Y002443D01*
X022120Y002001D01*
X022103Y001994D01*
X021957Y001848D01*
X021941Y001870D01*
X021870Y001941D01*
X021790Y001999D01*
X021702Y002044D01*
X021608Y002074D01*
X021510Y002090D01*
X021460Y002090D01*
X021460Y001460D01*
X021460Y001460D01*
X021460Y002090D01*
X021410Y002090D01*
X021312Y002074D01*
X021218Y002044D01*
X021130Y001999D01*
X021050Y001941D01*
X020979Y001870D01*
X020963Y001848D01*
X020817Y001994D01*
X020780Y002009D01*
X020780Y002053D02*
X021245Y002053D01*
X021460Y002053D02*
X021460Y002053D01*
X021675Y002053D02*
X022120Y002053D01*
X022120Y002371D02*
X020780Y002371D01*
X021460Y001734D02*
X021460Y001734D01*
X022800Y002053D02*
X026348Y002053D01*
X026230Y001734D02*
X025621Y001734D01*
X025780Y001416D02*
X026230Y001416D01*
X025260Y001416D02*
X025260Y001416D01*
X025260Y001734D02*
X025260Y001734D01*
X024899Y001734D02*
X024621Y001734D01*
X022800Y002371D02*
X030130Y002371D01*
X030130Y002485D02*
X030130Y002235D01*
X030226Y002003D01*
X030403Y001826D01*
X030635Y001730D01*
X030885Y001730D01*
X031117Y001826D01*
X031260Y001969D01*
X031403Y001826D01*
X031635Y001730D01*
X031885Y001730D01*
X032117Y001826D01*
X032260Y001969D01*
X032403Y001826D01*
X032635Y001730D01*
X032885Y001730D01*
X033117Y001826D01*
X033294Y002003D01*
X033390Y002235D01*
X033390Y002485D01*
X033294Y002717D01*
X033117Y002894D01*
X032885Y002990D01*
X032635Y002990D01*
X032403Y002894D01*
X032260Y002751D01*
X032117Y002894D01*
X031885Y002990D01*
X031635Y002990D01*
X031403Y002894D01*
X031260Y002751D01*
X031117Y002894D01*
X030885Y002990D01*
X030635Y002990D01*
X030403Y002894D01*
X030226Y002717D01*
X030130Y002485D01*
X030215Y002690D02*
X029477Y002690D01*
X029477Y003008D02*
X035837Y003008D01*
X035573Y002690D02*
X034894Y002690D01*
X034360Y002690D02*
X034360Y002690D01*
X033826Y002690D02*
X033305Y002690D01*
X033390Y002371D02*
X033785Y002371D01*
X033904Y002053D02*
X033315Y002053D01*
X033176Y001734D02*
X032895Y001734D01*
X032625Y001734D02*
X031895Y001734D01*
X031625Y001734D02*
X030895Y001734D01*
X030625Y001734D02*
X030427Y001734D01*
X030490Y001416D02*
X032837Y001416D01*
X033440Y000720D02*
X033739Y001000D01*
X033957Y001000D01*
X034034Y000923D01*
X034246Y000835D01*
X034474Y000835D01*
X034686Y000923D01*
X034763Y001000D01*
X034936Y001000D01*
X035003Y000993D01*
X035027Y001000D01*
X035051Y001000D01*
X035114Y001026D01*
X035178Y001045D01*
X035198Y001061D01*
X035221Y001070D01*
X035268Y001118D01*
X035541Y001339D01*
X035546Y001312D01*
X035576Y001218D01*
X035621Y001130D01*
X035679Y001050D01*
X035750Y000979D01*
X035830Y000921D01*
X035918Y000876D01*
X036012Y000846D01*
X036110Y000830D01*
X036160Y000830D01*
X036210Y000830D01*
X036308Y000846D01*
X036402Y000876D01*
X036490Y000921D01*
X036570Y000979D01*
X036641Y001050D01*
X036699Y001130D01*
X036744Y001218D01*
X036774Y001312D01*
X036785Y001379D01*
X036835Y001286D01*
X036907Y001179D01*
X036988Y001079D01*
X037079Y000988D01*
X037179Y000907D01*
X037286Y000835D01*
X037399Y000774D01*
X037518Y000725D01*
X037535Y000720D01*
X033440Y000720D01*
X033502Y000779D02*
X037391Y000779D01*
X036974Y001097D02*
X036675Y001097D01*
X036160Y001097D02*
X036160Y001097D01*
X036160Y000830D02*
X036160Y001460D01*
X036160Y001460D01*
X036160Y000830D01*
X035645Y001097D02*
X035248Y001097D01*
X036160Y001416D02*
X036160Y001416D01*
X036659Y001844D02*
X036641Y001870D01*
X036570Y001941D01*
X036548Y001957D01*
X036667Y002076D01*
X037844Y002076D01*
X037844Y001844D01*
X036659Y001844D01*
X036643Y002053D02*
X037844Y002053D01*
X038076Y002053D02*
X039300Y002053D01*
X039265Y002076D02*
X039257Y002152D01*
X039232Y002279D01*
X039195Y002402D01*
X039146Y002521D01*
X039085Y002634D01*
X039013Y002741D01*
X038932Y002841D01*
X038841Y002932D01*
X038741Y003013D01*
X038634Y003085D01*
X038521Y003146D01*
X038402Y003195D01*
X038279Y003232D01*
X038152Y003257D01*
X038076Y003265D01*
X038076Y002076D01*
X039265Y002076D01*
X039300Y002371D02*
X039204Y002371D01*
X039300Y002690D02*
X039048Y002690D01*
X039300Y003008D02*
X038748Y003008D01*
X039300Y003327D02*
X037677Y003327D01*
X037844Y003008D02*
X038076Y003008D01*
X038076Y002690D02*
X037844Y002690D01*
X037844Y002371D02*
X038076Y002371D01*
X039251Y001734D02*
X039300Y001734D01*
X039300Y001416D02*
X039152Y001416D01*
X039300Y001097D02*
X038946Y001097D01*
X039300Y000779D02*
X038529Y000779D01*
X035354Y002371D02*
X034935Y002371D01*
X034961Y002053D02*
X034816Y002053D01*
X036376Y003327D02*
X029470Y003327D01*
X029475Y003645D02*
X033909Y003645D01*
X033830Y003964D02*
X029477Y003964D01*
X029472Y004282D02*
X033911Y004282D01*
X033210Y004919D02*
X037968Y004919D01*
X037950Y005238D02*
X033390Y005238D01*
X033361Y005556D02*
X033973Y005556D01*
X033830Y005875D02*
X033693Y005875D01*
X033227Y005875D02*
X033136Y005875D01*
X034947Y005556D02*
X034973Y005556D01*
X035947Y005556D02*
X035973Y005556D01*
X036947Y005556D02*
X037950Y005556D01*
X037860Y005360D02*
X037660Y006360D01*
X038460Y007160D01*
X039017Y007160D01*
X038460Y007160D01*
X038460Y007160D01*
X038460Y007160D01*
X037903Y007160D01*
X038460Y007160D01*
X039017Y007149D02*
X039300Y007149D01*
X039300Y007467D02*
X038925Y007467D01*
X039006Y007786D02*
X039300Y007786D01*
X039300Y008104D02*
X039017Y008104D01*
X039017Y008423D02*
X039300Y008423D01*
X039300Y008741D02*
X038920Y008741D01*
X038920Y009060D02*
X039300Y009060D01*
X039300Y009378D02*
X038920Y009378D01*
X038920Y009697D02*
X039300Y009697D01*
X039300Y010015D02*
X038920Y010015D01*
X039090Y010334D02*
X039300Y010334D01*
X039300Y010652D02*
X039062Y010652D01*
X038858Y010971D02*
X039300Y010971D01*
X039300Y011289D02*
X039067Y011289D01*
X039074Y011608D02*
X039300Y011608D01*
X039300Y011926D02*
X038885Y011926D01*
X038460Y011926D02*
X038460Y011926D01*
X038035Y011926D02*
X035130Y011926D01*
X034910Y012245D02*
X039300Y012245D01*
X039300Y012563D02*
X034090Y012563D01*
X034090Y012882D02*
X034838Y012882D01*
X034570Y013200D02*
X034034Y013200D01*
X034090Y013519D02*
X034436Y013519D01*
X034398Y013837D02*
X033974Y013837D01*
X034016Y014156D02*
X034445Y014156D01*
X034588Y014474D02*
X034090Y014474D01*
X034004Y014793D02*
X034876Y014793D01*
X034635Y015111D02*
X033997Y015111D01*
X033957Y016067D02*
X034048Y016067D01*
X034090Y016385D02*
X034582Y016385D01*
X034800Y016704D02*
X034041Y016704D01*
X033913Y017022D02*
X034800Y017022D01*
X034800Y017341D02*
X034090Y017341D01*
X034059Y017659D02*
X034703Y017659D01*
X034630Y017978D02*
X033868Y017978D01*
X034074Y018296D02*
X034717Y018296D01*
X034078Y018615D02*
X036824Y018615D01*
X037081Y018933D02*
X033878Y018933D01*
X033042Y018933D02*
X032878Y018933D01*
X032042Y018933D02*
X031878Y018933D01*
X029851Y018933D02*
X029477Y018933D01*
X029470Y018615D02*
X029830Y018615D01*
X029830Y018296D02*
X029470Y018296D01*
X029477Y017978D02*
X029855Y017978D01*
X029830Y017659D02*
X029477Y017659D01*
X029470Y017341D02*
X029830Y017341D01*
X029837Y017022D02*
X029477Y017022D01*
X029477Y016704D02*
X029830Y016704D01*
X029830Y016385D02*
X029589Y016385D01*
X029590Y016067D02*
X029830Y016067D01*
X029897Y015748D02*
X029590Y015748D01*
X029537Y015430D02*
X029830Y015430D01*
X029923Y015111D02*
X029470Y015111D01*
X029470Y014793D02*
X029916Y014793D01*
X029830Y014474D02*
X029470Y014474D01*
X029480Y014156D02*
X029904Y014156D01*
X029946Y013837D02*
X029480Y013837D01*
X029448Y013519D02*
X029830Y013519D01*
X029886Y013200D02*
X029112Y013200D01*
X028808Y013200D02*
X028112Y013200D01*
X027808Y013200D02*
X027112Y013200D01*
X026808Y013200D02*
X026112Y013200D01*
X025808Y013200D02*
X025112Y013200D01*
X024808Y013200D02*
X024112Y013200D01*
X023808Y013200D02*
X023112Y013200D01*
X022808Y013200D02*
X022112Y013200D01*
X022448Y013519D02*
X022472Y013519D01*
X023448Y013519D02*
X023472Y013519D01*
X024448Y013519D02*
X024472Y013519D01*
X025448Y013519D02*
X025472Y013519D01*
X026448Y013519D02*
X026472Y013519D01*
X027448Y013519D02*
X027472Y013519D01*
X028448Y013519D02*
X028472Y013519D01*
X029830Y012245D02*
X022397Y012245D01*
X022639Y011926D02*
X029848Y011926D01*
X029830Y011608D02*
X022881Y011608D01*
X023123Y011289D02*
X029830Y011289D01*
X029858Y010971D02*
X023365Y010971D01*
X023607Y010652D02*
X029830Y010652D01*
X029830Y010334D02*
X023849Y010334D01*
X024091Y010015D02*
X029840Y010015D01*
X029830Y009697D02*
X024317Y009697D01*
X024340Y009378D02*
X029830Y009378D01*
X029830Y009060D02*
X024340Y009060D01*
X024340Y008741D02*
X029894Y008741D01*
X029830Y008423D02*
X029439Y008423D01*
X029480Y008104D02*
X029926Y008104D01*
X029913Y007786D02*
X029480Y007786D01*
X029470Y007467D02*
X029830Y007467D01*
X029907Y007149D02*
X029470Y007149D01*
X029470Y006830D02*
X029939Y006830D01*
X029830Y006512D02*
X029516Y006512D01*
X029590Y006193D02*
X029889Y006193D01*
X029590Y005875D02*
X030227Y005875D01*
X030159Y005556D02*
X029590Y005556D01*
X029477Y005238D02*
X030130Y005238D01*
X030310Y004919D02*
X029477Y004919D01*
X029470Y004601D02*
X037650Y004601D01*
X037460Y004560D02*
X037860Y005360D01*
X038970Y005238D02*
X039300Y005238D01*
X039300Y004919D02*
X039021Y004919D01*
X038950Y004601D02*
X039300Y004601D01*
X039300Y004282D02*
X038633Y004282D01*
X038314Y003964D02*
X039300Y003964D01*
X039300Y003645D02*
X037996Y003645D01*
X037331Y004282D02*
X037009Y004282D01*
X038970Y005556D02*
X039300Y005556D01*
X039300Y005875D02*
X038970Y005875D01*
X039017Y006193D02*
X039300Y006193D01*
X039300Y006512D02*
X038896Y006512D01*
X038909Y006830D02*
X039300Y006830D01*
X038011Y006830D02*
X037088Y006830D01*
X036902Y006512D02*
X038024Y006512D01*
X037903Y006193D02*
X037045Y006193D01*
X037090Y005875D02*
X037950Y005875D01*
X037903Y007149D02*
X037064Y007149D01*
X036844Y007467D02*
X037995Y007467D01*
X037914Y007786D02*
X034007Y007786D01*
X033994Y008104D02*
X037903Y008104D01*
X037903Y008423D02*
X036809Y008423D01*
X037051Y008741D02*
X038000Y008741D01*
X038000Y009060D02*
X037090Y009060D01*
X036933Y009378D02*
X038000Y009378D01*
X038000Y009697D02*
X036310Y009697D01*
X036298Y009685D02*
X036635Y010022D01*
X036635Y010260D01*
X036060Y010260D01*
X036060Y010260D01*
X036060Y009685D01*
X036298Y009685D01*
X036060Y009685D02*
X036060Y010260D01*
X036060Y010260D01*
X036060Y010260D01*
X035485Y010260D01*
X035485Y010022D01*
X035822Y009685D01*
X036060Y009685D01*
X036060Y009697D02*
X036060Y009697D01*
X035810Y009697D02*
X034090Y009697D01*
X034013Y010015D02*
X035492Y010015D01*
X036060Y010015D02*
X036060Y010015D01*
X036628Y010015D02*
X037732Y010015D01*
X037336Y010334D02*
X036635Y010334D01*
X036481Y010652D02*
X037017Y010652D01*
X038000Y010971D02*
X038062Y010971D01*
X037853Y011289D02*
X037682Y011289D01*
X037846Y011608D02*
X037363Y011608D01*
X038460Y011608D02*
X038460Y011608D01*
X038259Y012661D02*
X038127Y012631D01*
X038061Y012623D01*
X038061Y013685D01*
X039123Y013685D01*
X039115Y013618D01*
X039085Y013487D01*
X039040Y013359D01*
X038982Y013237D01*
X038910Y013122D01*
X038825Y013016D01*
X038729Y012921D01*
X038624Y012836D01*
X038509Y012764D01*
X038387Y012706D01*
X038259Y012661D01*
X038061Y012882D02*
X037790Y012882D01*
X037170Y012882D02*
X036367Y012882D01*
X036635Y013200D02*
X036892Y013200D01*
X037790Y013200D02*
X038061Y013200D01*
X038061Y013519D02*
X037790Y013519D01*
X038061Y013837D02*
X039300Y013837D01*
X039300Y013519D02*
X039092Y013519D01*
X038958Y013200D02*
X039300Y013200D01*
X039300Y012882D02*
X038680Y012882D01*
X039085Y014156D02*
X039300Y014156D01*
X039300Y014474D02*
X038938Y014474D01*
X038639Y014793D02*
X039300Y014793D01*
X039300Y015111D02*
X037852Y015111D01*
X037790Y014793D02*
X038061Y014793D01*
X038061Y014474D02*
X037790Y014474D01*
X037790Y014156D02*
X038061Y014156D01*
X037966Y015430D02*
X039300Y015430D01*
X039300Y015748D02*
X037989Y015748D01*
X037925Y016067D02*
X039300Y016067D01*
X039300Y016385D02*
X037763Y016385D01*
X037844Y016704D02*
X038076Y016704D01*
X038076Y016655D02*
X038152Y016663D01*
X038279Y016688D01*
X038402Y016725D01*
X038521Y016774D01*
X038634Y016835D01*
X038741Y016907D01*
X038841Y016988D01*
X038932Y017079D01*
X039013Y017179D01*
X039085Y017286D01*
X039146Y017399D01*
X039195Y017518D01*
X039232Y017641D01*
X039257Y017768D01*
X039265Y017844D01*
X038076Y017844D01*
X038076Y016655D01*
X038331Y016704D02*
X039300Y016704D01*
X039300Y017022D02*
X038875Y017022D01*
X039114Y017341D02*
X039300Y017341D01*
X039300Y017659D02*
X039236Y017659D01*
X039300Y017978D02*
X038076Y017978D01*
X038076Y018076D02*
X039265Y018076D01*
X039257Y018152D01*
X039232Y018279D01*
X039195Y018402D01*
X039146Y018521D01*
X039085Y018634D01*
X039013Y018741D01*
X038932Y018841D01*
X038841Y018932D01*
X038741Y019013D01*
X038634Y019085D01*
X038521Y019146D01*
X038402Y019195D01*
X038279Y019232D01*
X038152Y019257D01*
X038076Y019265D01*
X038076Y018076D01*
X038076Y018296D02*
X037844Y018296D01*
X037844Y017978D02*
X036890Y017978D01*
X036260Y017978D02*
X036260Y017978D01*
X036260Y017960D02*
X036260Y017330D01*
X036260Y017960D01*
X036260Y017960D01*
X036260Y018296D02*
X036260Y018296D01*
X036260Y017659D02*
X036260Y017659D01*
X036260Y017341D02*
X036260Y017341D01*
X036376Y017341D02*
X036806Y017341D01*
X037045Y017022D02*
X035720Y017022D01*
X035720Y016704D02*
X036162Y016704D01*
X035805Y016385D02*
X035723Y016385D01*
X037405Y016704D02*
X037589Y016704D01*
X037844Y017022D02*
X038076Y017022D01*
X038076Y017341D02*
X037844Y017341D01*
X037844Y017659D02*
X038076Y017659D01*
X039227Y018296D02*
X039300Y018296D01*
X039300Y018615D02*
X039096Y018615D01*
X039300Y018933D02*
X038839Y018933D01*
X039300Y019252D02*
X038182Y019252D01*
X038076Y019252D02*
X037844Y019252D01*
X037738Y019252D02*
X029477Y019252D01*
X035720Y017341D02*
X036144Y017341D01*
X037844Y018615D02*
X038076Y018615D01*
X038076Y018933D02*
X037844Y018933D01*
X034210Y012245D02*
X034090Y012245D01*
X034071Y011289D02*
X034197Y011289D01*
X033861Y010971D02*
X034874Y010971D01*
X035639Y010652D02*
X034062Y010652D01*
X034090Y010334D02*
X035485Y010334D01*
X035933Y009378D02*
X035987Y009378D01*
X034987Y009378D02*
X034933Y009378D01*
X034809Y008423D02*
X035111Y008423D01*
X035809Y008423D02*
X036111Y008423D01*
X036076Y007467D02*
X035844Y007467D01*
X035076Y007467D02*
X034844Y007467D01*
X034111Y008423D02*
X034090Y008423D01*
X028481Y008423D02*
X028439Y008423D01*
X027481Y008423D02*
X027439Y008423D01*
X026481Y008423D02*
X026439Y008423D01*
X025481Y008423D02*
X025439Y008423D01*
X024481Y008423D02*
X024439Y008423D01*
X022580Y008741D02*
X020232Y008741D01*
X020232Y008760D02*
X019814Y008760D01*
X019814Y009256D01*
X019814Y008760D01*
X019814Y008760D01*
X020232Y008760D01*
X020224Y009060D02*
X022580Y009060D01*
X022457Y009378D02*
X019380Y009378D01*
X019217Y009697D02*
X022199Y009697D01*
X021941Y010015D02*
X016226Y010015D01*
X016545Y009697D02*
X018703Y009697D01*
X018540Y009378D02*
X016863Y009378D01*
X017182Y009060D02*
X018580Y009060D01*
X018580Y008741D02*
X017437Y008741D01*
X017470Y008423D02*
X017481Y008423D01*
X018439Y008423D02*
X018481Y008423D01*
X019814Y008760D02*
X019814Y008760D01*
X019814Y009060D02*
X019814Y009060D01*
X020440Y008423D02*
X020481Y008423D01*
X019960Y007960D02*
X019960Y006960D01*
X019960Y006960D01*
X019960Y007180D01*
X019960Y007960D01*
X019960Y007960D01*
X019960Y007786D02*
X019960Y007786D01*
X019960Y007467D02*
X019960Y007467D01*
X019960Y007149D02*
X019960Y007149D01*
X019960Y006960D02*
X019960Y005960D01*
X019960Y005960D01*
X019960Y006590D01*
X019960Y006960D01*
X019960Y006960D01*
X019960Y006830D02*
X019960Y006830D01*
X019960Y006512D02*
X019960Y006512D01*
X019960Y006193D02*
X019960Y006193D01*
X021439Y008423D02*
X021481Y008423D01*
X022439Y008423D02*
X022481Y008423D01*
X021683Y010334D02*
X015908Y010334D01*
X015589Y010652D02*
X021425Y010652D01*
X021167Y010971D02*
X003261Y010971D01*
X003277Y011289D02*
X003994Y011289D01*
X003675Y011608D02*
X003103Y011608D01*
X002660Y011608D02*
X002660Y011608D01*
X002660Y011926D02*
X002660Y011926D01*
X003246Y011926D02*
X003404Y011926D01*
X003380Y012245D02*
X003284Y012245D01*
X003380Y012563D02*
X003146Y012563D01*
X003227Y012882D02*
X003380Y012882D01*
X003380Y013200D02*
X003290Y013200D01*
X003264Y013519D02*
X003192Y013519D01*
X004740Y013519D02*
X005011Y013519D01*
X005069Y013460D02*
X004830Y013221D01*
X004830Y012699D01*
X005089Y012440D01*
X004817Y012440D01*
X004740Y012517D01*
X004740Y014436D01*
X004682Y014575D01*
X003882Y015375D01*
X003775Y015482D01*
X003636Y015540D01*
X003171Y015540D01*
X003051Y015660D01*
X003194Y015803D01*
X003256Y015953D01*
X003696Y016430D01*
X003885Y016430D01*
X004117Y016526D01*
X004294Y016703D01*
X004334Y016800D01*
X004364Y016729D01*
X004529Y016564D01*
X004744Y016475D01*
X004976Y016475D01*
X005191Y016564D01*
X005356Y016729D01*
X005365Y016750D01*
X005426Y016603D01*
X005569Y016460D01*
X005426Y016317D01*
X005330Y016085D01*
X005330Y015835D01*
X005426Y015603D01*
X005439Y015590D01*
X005038Y015590D01*
X004943Y015550D01*
X004870Y015477D01*
X004830Y015382D01*
X004830Y014538D01*
X004870Y014443D01*
X004943Y014370D01*
X004968Y014359D01*
X004830Y014221D01*
X004830Y013699D01*
X005069Y013460D01*
X004830Y013200D02*
X004740Y013200D01*
X004740Y012882D02*
X004830Y012882D01*
X004740Y012563D02*
X004966Y012563D01*
X004830Y013837D02*
X004740Y013837D01*
X004740Y014156D02*
X004830Y014156D01*
X004857Y014474D02*
X004724Y014474D01*
X004830Y014793D02*
X004465Y014793D01*
X004146Y015111D02*
X004830Y015111D01*
X004850Y015430D02*
X003828Y015430D01*
X003139Y015748D02*
X005366Y015748D01*
X005330Y016067D02*
X003361Y016067D01*
X003654Y016385D02*
X005494Y016385D01*
X005384Y016704D02*
X005331Y016704D01*
X004389Y016704D02*
X004294Y016704D01*
X002076Y016704D02*
X001894Y016704D01*
X001045Y017022D02*
X000720Y017022D01*
X000720Y017341D02*
X000806Y017341D01*
X005395Y018296D02*
X005417Y018296D01*
X007160Y018615D02*
X007160Y018615D01*
X007160Y018933D02*
X007160Y018933D01*
X008699Y018615D02*
X009450Y018615D01*
X009443Y018933D02*
X008790Y018933D01*
X008721Y019252D02*
X009443Y019252D01*
X008039Y015430D02*
X007881Y015430D01*
X007039Y015430D02*
X006881Y015430D01*
X010448Y013519D02*
X010472Y013519D01*
X011448Y013519D02*
X011472Y013519D01*
X012448Y013519D02*
X012472Y013519D01*
X013448Y013519D02*
X013472Y013519D01*
X014448Y013519D02*
X014472Y013519D01*
X015448Y013519D02*
X015472Y013519D01*
X016448Y013519D02*
X016472Y013519D01*
X017448Y013519D02*
X017472Y013519D01*
X018448Y013519D02*
X018472Y013519D01*
X018960Y013656D02*
X018960Y013960D01*
X018960Y013960D01*
X018960Y014375D01*
X018960Y014960D01*
X018960Y014960D01*
X018960Y015330D01*
X018960Y015960D01*
X018960Y015960D01*
X018960Y014960D01*
X018960Y014960D01*
X018960Y013960D01*
X018960Y013656D01*
X018960Y013656D01*
X018960Y013837D02*
X018960Y013837D01*
X018960Y013960D02*
X018960Y013960D01*
X018960Y014156D02*
X018960Y014156D01*
X018960Y014474D02*
X018960Y014474D01*
X018960Y014793D02*
X018960Y014793D01*
X018960Y015111D02*
X018960Y015111D01*
X018960Y015430D02*
X018960Y015430D01*
X018960Y015748D02*
X018960Y015748D01*
X020448Y013519D02*
X020472Y013519D01*
X031210Y004919D02*
X031310Y004919D01*
X032210Y004919D02*
X032310Y004919D01*
X030205Y002053D02*
X030075Y002053D01*
X029860Y002053D02*
X029860Y002053D01*
X029645Y002053D02*
X029075Y002053D01*
X028860Y002053D02*
X028860Y002053D01*
X028645Y002053D02*
X028076Y002053D01*
X027644Y002053D02*
X027372Y002053D01*
X028860Y001734D02*
X028860Y001734D01*
X029860Y001734D02*
X029860Y001734D01*
X002660Y011289D02*
X002660Y011289D01*
D35*
X004460Y000760D02*
X032810Y000760D01*
X033610Y001510D01*
X033660Y001460D01*
X034210Y001460D01*
X034360Y001410D01*
X034210Y001460D02*
X034960Y001460D01*
X036010Y002310D01*
X036110Y002310D01*
X036160Y002460D01*
X036010Y002310D02*
X038560Y004860D01*
X038460Y005110D01*
X038460Y008160D02*
X038460Y010460D01*
X037860Y010460D01*
X037060Y011260D01*
X036060Y011260D01*
X035260Y011260D01*
X034560Y011760D01*
X035603Y013821D02*
X035603Y013917D01*
X035560Y014960D01*
X034560Y015760D01*
X035260Y016360D01*
X035260Y017960D01*
D36*
X019860Y010060D02*
X016360Y010060D01*
X016260Y009960D01*
X019960Y008460D02*
X020260Y008760D01*
X019960Y008460D02*
X019960Y007960D01*
X019960Y008360D01*
M02*
