G75*
G70*
%OFA0B0*%
%FSLAX24Y24*%
%IPPOS*%
%LPD*%
%AMOC8*
5,1,8,0,0,1.08239X$1,22.5*
%
%ADD10C,0.0000*%
%ADD11C,0.0520*%
%ADD12OC8,0.0660*%
%ADD13OC8,0.0560*%
%ADD14C,0.0600*%
%ADD15OC8,0.0520*%
%ADD16C,0.0660*%
%ADD17R,0.0594X0.0594*%
%ADD18C,0.0594*%
%ADD19OC8,0.0630*%
%ADD20C,0.0630*%
%ADD21C,0.1890*%
%ADD22C,0.0740*%
%ADD23C,0.2100*%
%ADD24R,0.0740X0.0740*%
%ADD25R,0.0236X0.0866*%
%ADD26OC8,0.0740*%
%ADD27R,0.0138X0.0315*%
%ADD28C,0.0500*%
%ADD29R,0.0515X0.0515*%
%ADD30R,0.0472X0.0217*%
%ADD31R,0.0217X0.0472*%
%ADD32C,0.0650*%
%ADD33C,0.0240*%
%ADD34C,0.0160*%
%ADD35C,0.0120*%
%ADD36C,0.0320*%
%ADD37C,0.0400*%
D10*
X000460Y000460D02*
X039560Y000460D01*
X039560Y019560D01*
X000460Y019560D01*
X000460Y000460D01*
D11*
X009960Y007700D02*
X009960Y008220D01*
X010960Y008220D02*
X010960Y007700D01*
X011960Y007700D02*
X011960Y008220D01*
X012960Y008220D02*
X012960Y007700D01*
X013960Y007700D02*
X013960Y008220D01*
X014960Y008220D02*
X014960Y007700D01*
X015960Y007700D02*
X015960Y008220D01*
X016960Y008220D02*
X016960Y007700D01*
X017960Y007700D02*
X017960Y008220D01*
X018960Y008220D02*
X018960Y007700D01*
X019960Y007700D02*
X019960Y008220D01*
X020960Y008220D02*
X020960Y007700D01*
X021960Y007700D02*
X021960Y008220D01*
X022960Y008220D02*
X022960Y007700D01*
X023960Y007700D02*
X023960Y008220D01*
X024960Y008220D02*
X024960Y007700D01*
X025960Y007700D02*
X025960Y008220D01*
X026960Y008220D02*
X026960Y007700D01*
X027960Y007700D02*
X027960Y008220D01*
X028960Y008220D02*
X028960Y007700D01*
X028960Y013700D02*
X028960Y014220D01*
X027960Y014220D02*
X027960Y013700D01*
X026960Y013700D02*
X026960Y014220D01*
X025960Y014220D02*
X025960Y013700D01*
X024960Y013700D02*
X024960Y014220D01*
X023960Y014220D02*
X023960Y013700D01*
X022960Y013700D02*
X022960Y014220D01*
X021960Y014220D02*
X021960Y013700D01*
X020960Y013700D02*
X020960Y014220D01*
X019960Y014220D02*
X019960Y013700D01*
X018960Y013700D02*
X018960Y014220D01*
X017960Y014220D02*
X017960Y013700D01*
X016960Y013700D02*
X016960Y014220D01*
X015960Y014220D02*
X015960Y013700D01*
X014960Y013700D02*
X014960Y014220D01*
X013960Y014220D02*
X013960Y013700D01*
X012960Y013700D02*
X012960Y014220D01*
X011960Y014220D02*
X011960Y013700D01*
X010960Y013700D02*
X010960Y014220D01*
X009960Y014220D02*
X009960Y013700D01*
D12*
X008960Y003110D03*
X008960Y002110D03*
D13*
X002810Y006360D03*
X001810Y006360D03*
X001810Y007360D03*
X002810Y007360D03*
X002810Y008360D03*
X001810Y008360D03*
D14*
X005080Y003650D02*
X005680Y003650D01*
X007640Y003650D02*
X008240Y003650D01*
X008240Y001870D02*
X007640Y001870D01*
X005680Y001870D02*
X005080Y001870D01*
D15*
X017660Y001360D03*
X018660Y001360D03*
X024260Y001360D03*
X025260Y001360D03*
D16*
X034560Y011760D03*
X034560Y015760D03*
D17*
X038460Y008160D03*
D18*
X038460Y007160D03*
X038460Y006160D03*
D19*
X034360Y002410D03*
X036060Y010260D03*
D20*
X036060Y011260D03*
X034360Y001410D03*
D21*
X035603Y013821D03*
X037925Y013821D03*
X036784Y015671D03*
D22*
X033460Y015460D03*
X032460Y015460D03*
X031460Y015460D03*
X030460Y015460D03*
X030460Y014460D03*
X031460Y014460D03*
X032460Y014460D03*
X033460Y014460D03*
X033460Y013460D03*
X032460Y013460D03*
X031460Y013460D03*
X030460Y013460D03*
X031460Y011460D03*
X032460Y011460D03*
X033460Y011460D03*
X033460Y010460D03*
X032460Y010460D03*
X031460Y010460D03*
X034460Y008960D03*
X035460Y008960D03*
X036460Y008960D03*
X038460Y010460D03*
X038460Y011460D03*
X033460Y008460D03*
X032460Y008460D03*
X031460Y008460D03*
X030460Y008460D03*
X030460Y007460D03*
X031460Y007460D03*
X032460Y007460D03*
X033460Y007460D03*
X034460Y006960D03*
X033460Y006460D03*
X032460Y006460D03*
X031460Y006460D03*
X030460Y006460D03*
X030760Y005360D03*
X031760Y005360D03*
X032760Y005360D03*
X034460Y005960D03*
X035460Y005960D03*
X036460Y005960D03*
X036460Y006960D03*
X035460Y006960D03*
X035460Y003960D03*
X036460Y003960D03*
X034460Y003960D03*
X036160Y002460D03*
X036160Y001460D03*
X032760Y002360D03*
X031760Y002360D03*
X030760Y002360D03*
X029860Y001460D03*
X028860Y001460D03*
X027860Y001460D03*
X022460Y001460D03*
X021460Y001460D03*
X020460Y001460D03*
X016660Y001460D03*
X015660Y001460D03*
X014660Y001460D03*
X013660Y001460D03*
X012660Y001460D03*
X011660Y001460D03*
X010660Y001460D03*
X003810Y001510D03*
X003810Y002510D03*
X003810Y003510D03*
X005460Y004960D03*
X006460Y004960D03*
X007460Y004960D03*
X009960Y005960D03*
X010960Y005960D03*
X011960Y005960D03*
X012960Y005960D03*
X013960Y005960D03*
X014960Y005960D03*
X015960Y005960D03*
X016960Y005960D03*
X017960Y005960D03*
X018960Y005960D03*
X019960Y005960D03*
X020960Y005960D03*
X021960Y005960D03*
X022960Y005960D03*
X023960Y005960D03*
X024960Y005960D03*
X025960Y005960D03*
X026960Y005960D03*
X027960Y005960D03*
X008460Y014960D03*
X007460Y014960D03*
X006460Y014960D03*
X005960Y015960D03*
X005960Y016960D03*
X005960Y017960D03*
X007160Y018960D03*
X008160Y018960D03*
X008960Y017960D03*
X008960Y016960D03*
X008960Y015960D03*
X009960Y015960D03*
X010960Y015960D03*
X011960Y015960D03*
X012960Y015960D03*
X013960Y015960D03*
X014960Y015960D03*
X015960Y015960D03*
X016960Y015960D03*
X017960Y015960D03*
X018960Y015960D03*
X019960Y015960D03*
X020960Y015960D03*
X021960Y015960D03*
X022960Y015960D03*
X023960Y015960D03*
X024960Y015960D03*
X025960Y015960D03*
X026960Y015960D03*
X027960Y015960D03*
X031460Y016460D03*
X032460Y016460D03*
X033460Y016460D03*
X033460Y017460D03*
X032460Y017460D03*
X031460Y017460D03*
X031460Y018460D03*
X032460Y018460D03*
X033460Y018460D03*
X035260Y017960D03*
X036260Y017960D03*
X003760Y018060D03*
X003760Y017060D03*
X002660Y016160D03*
X001560Y016160D03*
X001560Y015160D03*
X002660Y015160D03*
X002660Y014160D03*
X001560Y014160D03*
X001560Y013160D03*
X002660Y013160D03*
X002660Y012160D03*
X001560Y012160D03*
X001560Y011160D03*
X002660Y011160D03*
D23*
X001960Y017960D03*
X001960Y001960D03*
X037960Y001960D03*
X037960Y017960D03*
D24*
X030460Y017460D03*
X030460Y016460D03*
X028960Y015960D03*
X030460Y018460D03*
X030460Y012460D03*
X031460Y012460D03*
X032460Y012460D03*
X033460Y012460D03*
X030460Y011460D03*
X030460Y010460D03*
X030460Y009460D03*
X031460Y009460D03*
X032460Y009460D03*
X033460Y009460D03*
X028960Y005960D03*
X026860Y001460D03*
X009660Y001460D03*
X008460Y004960D03*
X005460Y014960D03*
D25*
X005210Y011771D03*
X005710Y011771D03*
X006210Y011771D03*
X006710Y011771D03*
X007210Y011771D03*
X007710Y011771D03*
X008210Y011771D03*
X008710Y011771D03*
X008710Y010984D03*
X008210Y010984D03*
X007710Y010984D03*
X007210Y010984D03*
X006710Y010984D03*
X006210Y010984D03*
X005710Y010984D03*
X005210Y010984D03*
X005210Y008936D03*
X005710Y008936D03*
X006210Y008936D03*
X006710Y008936D03*
X007210Y008936D03*
X007710Y008936D03*
X008210Y008936D03*
X008710Y008936D03*
X008710Y008149D03*
X008210Y008149D03*
X007710Y008149D03*
X007210Y008149D03*
X006710Y008149D03*
X006210Y008149D03*
X005710Y008149D03*
X005210Y008149D03*
D26*
X005460Y006960D03*
X006460Y006960D03*
X007460Y006960D03*
X008460Y006960D03*
X008460Y005960D03*
X007460Y005960D03*
X006460Y005960D03*
X005460Y005960D03*
X005460Y012960D03*
X006460Y012960D03*
X007460Y012960D03*
X008460Y012960D03*
X008460Y013960D03*
X007460Y013960D03*
X006460Y013960D03*
X005460Y013960D03*
D27*
X035204Y008295D03*
X035460Y008295D03*
X035716Y008295D03*
X035716Y007625D03*
X035460Y007625D03*
X035204Y007625D03*
X035204Y005295D03*
X035460Y005295D03*
X035716Y005295D03*
X035716Y004625D03*
X035460Y004625D03*
X035204Y004625D03*
D28*
X028960Y004960D02*
X028960Y002960D01*
X027960Y002960D02*
X027960Y004960D01*
X026960Y004960D02*
X026960Y002960D01*
X025960Y002960D02*
X025960Y004960D01*
X024960Y004960D02*
X024960Y002960D01*
X023960Y002960D02*
X023960Y004960D01*
X022960Y004960D02*
X022960Y002960D01*
X021960Y002960D02*
X021960Y004960D01*
X020960Y004960D02*
X020960Y002960D01*
X019960Y002960D02*
X019960Y004960D01*
X018960Y004960D02*
X018960Y002960D01*
X017960Y002960D02*
X017960Y004960D01*
X016960Y004960D02*
X016960Y002960D01*
X015960Y002960D02*
X015960Y004960D01*
X014960Y004960D02*
X014960Y002960D01*
X013960Y002960D02*
X013960Y004960D01*
X012960Y004960D02*
X012960Y002960D01*
X011960Y002960D02*
X011960Y004960D01*
X010960Y004960D02*
X010960Y002960D01*
X009960Y002960D02*
X009960Y004960D01*
X009960Y016960D02*
X009960Y018960D01*
X010960Y018960D02*
X010960Y016960D01*
X011960Y016960D02*
X011960Y018960D01*
X012960Y018960D02*
X012960Y016960D01*
X013960Y016960D02*
X013960Y018960D01*
X014960Y018960D02*
X014960Y016960D01*
X015960Y016960D02*
X015960Y018960D01*
X016960Y018960D02*
X016960Y016960D01*
X017960Y016960D02*
X017960Y018960D01*
X018960Y018960D02*
X018960Y016960D01*
X019960Y016960D02*
X019960Y018960D01*
X020960Y018960D02*
X020960Y016960D01*
X021960Y016960D02*
X021960Y018960D01*
X022960Y018960D02*
X022960Y016960D01*
X023960Y016960D02*
X023960Y018960D01*
X024960Y018960D02*
X024960Y016960D01*
X025960Y016960D02*
X025960Y018960D01*
X026960Y018960D02*
X026960Y016960D01*
X027960Y016960D02*
X027960Y018960D01*
X028960Y018960D02*
X028960Y016960D01*
X001960Y017960D02*
X001060Y017060D01*
D29*
X009960Y016960D03*
X010960Y016960D03*
X011960Y016960D03*
X012960Y016960D03*
X013960Y016960D03*
X014960Y016960D03*
X015960Y016960D03*
X016960Y016960D03*
X017960Y016960D03*
X018960Y016960D03*
X019960Y016960D03*
X020960Y016960D03*
X021960Y016960D03*
X022960Y016960D03*
X023960Y016960D03*
X024960Y016960D03*
X025960Y016960D03*
X026960Y016960D03*
X027960Y016960D03*
X028960Y016960D03*
X028960Y017960D03*
X027960Y017960D03*
X026960Y017960D03*
X025960Y017960D03*
X024960Y017960D03*
X023960Y017960D03*
X022960Y017960D03*
X021960Y017960D03*
X020960Y017960D03*
X019960Y017960D03*
X018960Y017960D03*
X017960Y017960D03*
X016960Y017960D03*
X015960Y017960D03*
X014960Y017960D03*
X013960Y017960D03*
X012960Y017960D03*
X011960Y017960D03*
X010960Y017960D03*
X009960Y017960D03*
X009960Y018960D03*
X010960Y018960D03*
X011960Y018960D03*
X012960Y018960D03*
X013960Y018960D03*
X014960Y018960D03*
X015960Y018960D03*
X016960Y018960D03*
X017960Y018960D03*
X018960Y018960D03*
X019960Y018960D03*
X020960Y018960D03*
X021960Y018960D03*
X022960Y018960D03*
X023960Y018960D03*
X024960Y018960D03*
X025960Y018960D03*
X026960Y018960D03*
X027960Y018960D03*
X028960Y018960D03*
X028960Y004960D03*
X027960Y004960D03*
X026960Y004960D03*
X025960Y004960D03*
X024960Y004960D03*
X023960Y004960D03*
X022960Y004960D03*
X021960Y004960D03*
X020960Y004960D03*
X019960Y004960D03*
X018960Y004960D03*
X017960Y004960D03*
X016960Y004960D03*
X015960Y004960D03*
X014960Y004960D03*
X013960Y004960D03*
X012960Y004960D03*
X011960Y004960D03*
X010960Y004960D03*
X009960Y004960D03*
X009960Y003960D03*
X010960Y003960D03*
X011960Y003960D03*
X012960Y003960D03*
X013960Y003960D03*
X014960Y003960D03*
X015960Y003960D03*
X016960Y003960D03*
X017960Y003960D03*
X018960Y003960D03*
X019960Y003960D03*
X020960Y003960D03*
X021960Y003960D03*
X022960Y003960D03*
X023960Y003960D03*
X024960Y003960D03*
X025960Y003960D03*
X026960Y003960D03*
X027960Y003960D03*
X028960Y003960D03*
X028960Y002960D03*
X027960Y002960D03*
X026960Y002960D03*
X025960Y002960D03*
X024960Y002960D03*
X023960Y002960D03*
X022960Y002960D03*
X021960Y002960D03*
X020960Y002960D03*
X019960Y002960D03*
X018960Y002960D03*
X017960Y002960D03*
X016960Y002960D03*
X015960Y002960D03*
X014960Y002960D03*
X013960Y002960D03*
X012960Y002960D03*
X011960Y002960D03*
X010960Y002960D03*
X009960Y002960D03*
D30*
X007972Y016586D03*
X007972Y016960D03*
X007972Y017334D03*
X006948Y017334D03*
X006948Y016960D03*
X006948Y016586D03*
D31*
X031386Y004372D03*
X031760Y004372D03*
X032134Y004372D03*
X032134Y003348D03*
X031760Y003348D03*
X031386Y003348D03*
D32*
X019960Y006960D03*
X018960Y006960D03*
X018960Y014960D03*
X019960Y014960D03*
X004860Y017060D03*
X004860Y018060D03*
D33*
X005960Y017960D02*
X006586Y017334D01*
X006948Y017334D01*
X006948Y016960D02*
X005960Y016960D01*
X006586Y016586D02*
X005960Y015960D01*
X006586Y016586D02*
X006948Y016586D01*
X007972Y016586D02*
X008334Y016586D01*
X008960Y015960D01*
X008960Y016960D02*
X007972Y016960D01*
X007972Y017334D02*
X008334Y017334D01*
X008960Y017960D01*
X009060Y018960D02*
X008160Y018960D01*
X004860Y017060D02*
X004860Y016260D01*
X004660Y016060D01*
X004660Y003860D01*
X004810Y003710D01*
X005120Y003710D01*
X005380Y003650D01*
X004660Y002560D02*
X004260Y002960D01*
X004660Y002560D02*
X008360Y002560D01*
X008810Y002110D01*
X008960Y002110D01*
X008960Y000760D02*
X030560Y000760D01*
X030760Y000960D01*
X030760Y002360D02*
X031386Y002986D01*
X031386Y003348D01*
X031760Y003348D02*
X031760Y002360D01*
X032134Y002986D02*
X032760Y002360D01*
X032134Y002986D02*
X032134Y003348D01*
X032134Y004372D02*
X032134Y004734D01*
X032760Y005360D01*
X031760Y005360D02*
X031760Y004372D01*
X031386Y004372D02*
X031386Y004734D01*
X030760Y005360D01*
X025160Y001360D02*
X024460Y002060D01*
X022060Y002060D01*
X021960Y001960D01*
X021460Y001460D01*
X021460Y001360D02*
X021460Y001560D01*
X021460Y001360D02*
X022060Y000760D01*
X021860Y000760D01*
X021660Y000960D01*
X021360Y000960D01*
X021260Y000860D01*
X021360Y001160D02*
X021360Y001260D01*
X021860Y000760D02*
X017860Y000760D01*
X022060Y000760D02*
X025460Y000760D01*
X025860Y001160D01*
X025860Y000860D01*
X025760Y000760D01*
X025260Y001360D02*
X025160Y001360D01*
X018960Y009360D02*
X018960Y011560D01*
X019960Y012560D01*
X008710Y011771D02*
X008710Y010984D01*
X008210Y010984D02*
X008210Y011771D01*
X007710Y011771D02*
X007710Y010984D01*
X007210Y010984D02*
X007210Y011771D01*
X006710Y011771D02*
X006710Y010984D01*
X006210Y010984D02*
X006210Y011771D01*
X005710Y011771D02*
X005710Y010984D01*
X005210Y010984D02*
X005210Y011771D01*
X001560Y012160D02*
X001360Y012160D01*
X000960Y012560D01*
X000960Y016960D01*
X001060Y017060D01*
X005210Y008936D02*
X005210Y008149D01*
X005710Y008149D02*
X005710Y008936D01*
X006210Y008936D02*
X006210Y008149D01*
X006710Y008149D02*
X006710Y008936D01*
X007210Y008936D02*
X007210Y008149D01*
X007710Y008149D02*
X007710Y008936D01*
X008210Y008936D02*
X008210Y008149D01*
X008710Y008149D02*
X008710Y008936D01*
D34*
X005960Y006460D02*
X006460Y005960D01*
X004360Y006160D02*
X003760Y006760D01*
X003760Y007660D01*
X003060Y008360D01*
X002810Y008360D01*
X004360Y006160D02*
X004360Y003060D01*
X004260Y002960D01*
X017660Y001360D02*
X017660Y001260D01*
X018160Y000760D01*
X020960Y000760D01*
X021360Y001160D01*
X021360Y001260D02*
X021460Y001360D01*
X021460Y001460D01*
X018660Y002360D02*
X025960Y002360D01*
X026860Y001460D01*
X034460Y003960D02*
X035204Y004625D01*
X035460Y004625D02*
X035460Y003960D01*
X035716Y004625D02*
X036460Y003960D01*
X035716Y005295D02*
X036460Y005960D01*
X035460Y005960D02*
X035460Y005295D01*
X035204Y005295D02*
X034460Y005960D01*
X034460Y006960D02*
X035204Y007625D01*
X035460Y007625D02*
X035460Y006960D01*
X035716Y007625D02*
X036460Y006960D01*
X035716Y008295D02*
X036460Y008960D01*
X035460Y008960D02*
X035460Y008295D01*
X035204Y008295D02*
X034460Y008960D01*
X019960Y015960D02*
X019460Y016460D01*
X009660Y016460D02*
X009460Y016660D01*
X009460Y018560D02*
X009060Y018960D01*
D35*
X009460Y018560D02*
X009460Y016660D01*
X009660Y016460D02*
X019460Y016460D01*
X008960Y013460D02*
X008960Y012510D01*
X008710Y012260D01*
X008710Y011771D01*
X008210Y011771D02*
X008210Y012710D01*
X008460Y012960D01*
X007960Y012510D02*
X007710Y012260D01*
X007710Y011771D01*
X007210Y011771D02*
X007210Y012710D01*
X007460Y012960D01*
X006960Y012560D02*
X006710Y012310D01*
X006710Y011771D01*
X006210Y011771D02*
X006210Y012710D01*
X006460Y012960D01*
X006960Y012560D02*
X006960Y013460D01*
X006460Y013960D01*
X005960Y013460D02*
X005460Y013960D01*
X005960Y013460D02*
X005960Y012510D01*
X005710Y012260D01*
X005710Y011771D01*
X005210Y011771D02*
X005210Y012710D01*
X005460Y012960D01*
X007460Y013960D02*
X007960Y013460D01*
X007960Y012510D01*
X008960Y013460D02*
X008460Y013960D01*
X008210Y008149D02*
X008210Y007660D01*
X007960Y007410D01*
X007960Y006460D01*
X008460Y005960D01*
X007460Y005960D02*
X006960Y006460D01*
X006960Y007410D01*
X007210Y007660D01*
X007210Y008149D01*
X006710Y008149D02*
X006710Y007210D01*
X006460Y006960D01*
X005960Y007410D02*
X005960Y006460D01*
X005460Y006960D02*
X005710Y007210D01*
X005710Y008149D01*
X005210Y008149D02*
X005210Y007660D01*
X004960Y007410D01*
X004960Y006460D01*
X005460Y005960D01*
X007460Y006960D02*
X007710Y007210D01*
X007710Y008149D01*
X008710Y008149D02*
X008710Y007210D01*
X008460Y006960D01*
X006210Y007660D02*
X006210Y008149D01*
X006210Y007660D02*
X005960Y007410D01*
D36*
X004160Y007260D03*
X003660Y008860D03*
X001260Y010160D03*
X003660Y011160D03*
X010160Y012960D03*
X009260Y014860D03*
X007460Y015960D03*
X003760Y015760D03*
X000960Y015660D03*
X007660Y017960D03*
X014360Y012960D03*
X017560Y012860D03*
X019960Y012560D03*
X023660Y011860D03*
X020960Y009860D03*
X018960Y009360D03*
X017960Y010160D03*
X012560Y011060D03*
X009260Y006960D03*
X009260Y004560D03*
X006660Y003060D03*
X004260Y002960D03*
X002360Y003960D03*
X003160Y005460D03*
X008360Y001260D03*
X003260Y000860D03*
X018660Y002360D03*
X021960Y001960D03*
X025960Y001460D03*
X030460Y003760D03*
X034360Y004960D03*
X037160Y005360D03*
X038760Y003760D03*
X035060Y002860D03*
X031760Y001360D03*
X036460Y007960D03*
X029060Y009760D03*
X029060Y012460D03*
X026460Y014760D03*
X029660Y014960D03*
X036760Y012660D03*
X038760Y016360D03*
X021460Y014760D03*
D37*
X021609Y014746D02*
X021460Y014597D01*
X021311Y014746D01*
X021083Y014840D01*
X020837Y014840D01*
X020613Y014748D01*
X020645Y014824D01*
X020645Y015096D01*
X020541Y015346D01*
X020546Y015341D01*
X020815Y015230D01*
X021105Y015230D01*
X021374Y015341D01*
X021460Y015428D01*
X021546Y015341D01*
X021815Y015230D01*
X022105Y015230D01*
X022374Y015341D01*
X022460Y015428D01*
X022546Y015341D01*
X022815Y015230D01*
X023105Y015230D01*
X023374Y015341D01*
X023460Y015428D01*
X023546Y015341D01*
X023815Y015230D01*
X024105Y015230D01*
X024374Y015341D01*
X024460Y015428D01*
X024546Y015341D01*
X024815Y015230D01*
X025105Y015230D01*
X025374Y015341D01*
X025460Y015428D01*
X025546Y015341D01*
X025815Y015230D01*
X026105Y015230D01*
X026374Y015341D01*
X026460Y015428D01*
X026546Y015341D01*
X026815Y015230D01*
X027105Y015230D01*
X027374Y015341D01*
X027460Y015428D01*
X027546Y015341D01*
X027815Y015230D01*
X028105Y015230D01*
X028343Y015328D01*
X028386Y015285D01*
X028518Y015230D01*
X029402Y015230D01*
X029534Y015285D01*
X029635Y015386D01*
X029690Y015518D01*
X029690Y016402D01*
X029635Y016534D01*
X029566Y016603D01*
X029577Y016631D01*
X029577Y017289D01*
X029570Y017307D01*
X029570Y017613D01*
X029577Y017631D01*
X029577Y018289D01*
X029570Y018307D01*
X029570Y018613D01*
X029577Y018631D01*
X029577Y019200D01*
X037426Y019200D01*
X037382Y019182D01*
X037265Y019119D01*
X037155Y019046D01*
X037052Y018961D01*
X036959Y018868D01*
X036874Y018765D01*
X036801Y018655D01*
X036738Y018538D01*
X036706Y018461D01*
X036703Y018465D01*
X036633Y018518D01*
X036557Y018562D01*
X036476Y018596D01*
X036391Y018619D01*
X036304Y018630D01*
X036260Y018630D01*
X036260Y017960D01*
X036260Y017960D01*
X036930Y017960D01*
X036930Y018004D01*
X036926Y018036D01*
X037884Y018036D01*
X037884Y017884D01*
X038036Y017884D01*
X038036Y016611D01*
X038158Y016623D01*
X038288Y016649D01*
X038415Y016687D01*
X038538Y016738D01*
X038655Y016801D01*
X038765Y016874D01*
X038868Y016959D01*
X038961Y017052D01*
X039046Y017155D01*
X039119Y017265D01*
X039182Y017382D01*
X039200Y017426D01*
X039200Y002494D01*
X039182Y002538D01*
X039119Y002655D01*
X039046Y002765D01*
X038961Y002868D01*
X038868Y002961D01*
X038765Y003046D01*
X038655Y003119D01*
X038538Y003182D01*
X038415Y003233D01*
X038288Y003271D01*
X038158Y003297D01*
X038036Y003309D01*
X038036Y002036D01*
X037884Y002036D01*
X037884Y003309D01*
X037762Y003297D01*
X037632Y003271D01*
X037505Y003233D01*
X037382Y003182D01*
X037265Y003119D01*
X037155Y003046D01*
X037052Y002961D01*
X036959Y002868D01*
X036874Y002765D01*
X036843Y002718D01*
X036779Y002874D01*
X036574Y003079D01*
X036305Y003190D01*
X036015Y003190D01*
X035746Y003079D01*
X035541Y002874D01*
X035430Y002605D01*
X035430Y002315D01*
X035541Y002046D01*
X035670Y001918D01*
X035655Y001903D01*
X035602Y001833D01*
X035558Y001757D01*
X035524Y001676D01*
X035501Y001591D01*
X035490Y001504D01*
X035490Y001460D01*
X036160Y001460D01*
X036160Y001460D01*
X035490Y001460D01*
X035490Y001416D01*
X035501Y001329D01*
X035524Y001244D01*
X035558Y001163D01*
X035602Y001087D01*
X035655Y001017D01*
X035717Y000955D01*
X035787Y000902D01*
X035863Y000858D01*
X035944Y000824D01*
X035960Y000820D01*
X034699Y000820D01*
X034742Y000838D01*
X034932Y001028D01*
X035035Y001276D01*
X035035Y001544D01*
X034932Y001792D01*
X034772Y001952D01*
X034975Y002155D01*
X034975Y002410D01*
X034975Y002665D01*
X034615Y003025D01*
X034360Y003025D01*
X034360Y002410D01*
X034360Y002410D01*
X034975Y002410D01*
X034360Y002410D01*
X034360Y002410D01*
X034360Y002410D01*
X033745Y002410D01*
X033745Y002665D01*
X034105Y003025D01*
X034360Y003025D01*
X034360Y002410D01*
X033745Y002410D01*
X033745Y002155D01*
X033948Y001952D01*
X033788Y001792D01*
X033685Y001544D01*
X033685Y001276D01*
X033788Y001028D01*
X033978Y000838D01*
X034021Y000820D01*
X030060Y000820D01*
X030076Y000824D01*
X030157Y000858D01*
X030233Y000902D01*
X030303Y000955D01*
X030365Y001017D01*
X030418Y001087D01*
X030462Y001163D01*
X030496Y001244D01*
X030519Y001329D01*
X030530Y001416D01*
X030530Y001460D01*
X030530Y001504D01*
X030519Y001591D01*
X030496Y001676D01*
X030494Y001680D01*
X030615Y001630D01*
X030905Y001630D01*
X031174Y001741D01*
X031260Y001828D01*
X031346Y001741D01*
X031615Y001630D01*
X031905Y001630D01*
X032174Y001741D01*
X032260Y001828D01*
X032346Y001741D01*
X032615Y001630D01*
X032905Y001630D01*
X033174Y001741D01*
X033379Y001946D01*
X033490Y002215D01*
X033490Y002505D01*
X033379Y002774D01*
X033174Y002979D01*
X032905Y003090D01*
X032709Y003090D01*
X032614Y003185D01*
X032614Y003444D01*
X032602Y003472D01*
X032602Y003656D01*
X032547Y003788D01*
X032476Y003860D01*
X032547Y003932D01*
X032602Y004064D01*
X032602Y004248D01*
X032614Y004276D01*
X032614Y004535D01*
X032709Y004630D01*
X032905Y004630D01*
X033174Y004741D01*
X033379Y004946D01*
X033490Y005215D01*
X033490Y005505D01*
X033397Y005730D01*
X033605Y005730D01*
X033742Y005787D01*
X033841Y005546D01*
X034046Y005341D01*
X034315Y005230D01*
X034605Y005230D01*
X034613Y005233D01*
X034775Y005088D01*
X034775Y005066D01*
X034819Y004960D01*
X034775Y004854D01*
X034775Y004832D01*
X034613Y004687D01*
X034605Y004690D01*
X034315Y004690D01*
X034046Y004579D01*
X033841Y004374D01*
X033730Y004105D01*
X033730Y003815D01*
X033841Y003546D01*
X034046Y003341D01*
X034315Y003230D01*
X034605Y003230D01*
X034874Y003341D01*
X034960Y003428D01*
X035046Y003341D01*
X035315Y003230D01*
X035605Y003230D01*
X035874Y003341D01*
X035960Y003428D01*
X036046Y003341D01*
X036315Y003230D01*
X036605Y003230D01*
X036874Y003341D01*
X037079Y003546D01*
X037190Y003815D01*
X037190Y004105D01*
X037079Y004374D01*
X036874Y004579D01*
X036605Y004690D01*
X036315Y004690D01*
X036307Y004687D01*
X036145Y004832D01*
X036145Y004854D01*
X036101Y004960D01*
X036145Y005066D01*
X036145Y005088D01*
X036307Y005233D01*
X036315Y005230D01*
X036605Y005230D01*
X036874Y005341D01*
X037079Y005546D01*
X037190Y005815D01*
X037190Y006105D01*
X037079Y006374D01*
X036992Y006460D01*
X037079Y006546D01*
X037190Y006815D01*
X037190Y007105D01*
X037079Y007374D01*
X036874Y007579D01*
X036605Y007690D01*
X036315Y007690D01*
X036307Y007687D01*
X036145Y007832D01*
X036145Y007854D01*
X036101Y007960D01*
X036145Y008066D01*
X036145Y008088D01*
X036307Y008233D01*
X036315Y008230D01*
X036605Y008230D01*
X036874Y008341D01*
X037079Y008546D01*
X037190Y008815D01*
X037190Y009105D01*
X037079Y009374D01*
X036874Y009579D01*
X036605Y009690D01*
X036360Y009690D01*
X036675Y010005D01*
X036675Y010260D01*
X036675Y010515D01*
X036472Y010718D01*
X036632Y010878D01*
X036735Y011126D01*
X036735Y011394D01*
X036632Y011642D01*
X036442Y011832D01*
X036194Y011935D01*
X035926Y011935D01*
X035678Y011832D01*
X035488Y011642D01*
X035385Y011394D01*
X035385Y011126D01*
X035488Y010878D01*
X035648Y010718D01*
X035445Y010515D01*
X035445Y010260D01*
X036060Y010260D01*
X036675Y010260D01*
X036060Y010260D01*
X036060Y010260D01*
X036060Y009645D01*
X036206Y009645D01*
X036046Y009579D01*
X035960Y009492D01*
X035874Y009579D01*
X035605Y009690D01*
X035315Y009690D01*
X035046Y009579D01*
X034960Y009492D01*
X034874Y009579D01*
X034605Y009690D01*
X034315Y009690D01*
X034190Y009638D01*
X034190Y009902D01*
X034135Y010034D01*
X034092Y010077D01*
X034190Y010315D01*
X034190Y010605D01*
X034079Y010874D01*
X033992Y010960D01*
X034079Y011046D01*
X034143Y011201D01*
X034169Y011175D01*
X034423Y011070D01*
X034697Y011070D01*
X034951Y011175D01*
X035145Y011369D01*
X035250Y011623D01*
X035250Y011897D01*
X035145Y012151D01*
X034951Y012345D01*
X034697Y012450D01*
X034423Y012450D01*
X034190Y012354D01*
X034190Y012902D01*
X034135Y013034D01*
X034092Y013077D01*
X034190Y013315D01*
X034190Y013605D01*
X034079Y013874D01*
X033992Y013960D01*
X034079Y014046D01*
X034190Y014315D01*
X034190Y014605D01*
X034079Y014874D01*
X033992Y014960D01*
X034079Y015046D01*
X034143Y015201D01*
X034169Y015175D01*
X034423Y015070D01*
X034697Y015070D01*
X034951Y015175D01*
X035145Y015369D01*
X035250Y015623D01*
X035250Y015897D01*
X035145Y016151D01*
X034951Y016345D01*
X034697Y016450D01*
X034423Y016450D01*
X034190Y016354D01*
X034190Y016605D01*
X034079Y016874D01*
X033992Y016960D01*
X034079Y017046D01*
X034190Y017315D01*
X034190Y017605D01*
X034079Y017874D01*
X033992Y017960D01*
X034079Y018046D01*
X034190Y018315D01*
X034190Y018605D01*
X034079Y018874D01*
X033874Y019079D01*
X033605Y019190D01*
X033315Y019190D01*
X033046Y019079D01*
X032960Y018992D01*
X032874Y019079D01*
X032605Y019190D01*
X032315Y019190D01*
X032046Y019079D01*
X031960Y018992D01*
X031874Y019079D01*
X031605Y019190D01*
X031315Y019190D01*
X031077Y019092D01*
X031034Y019135D01*
X030902Y019190D01*
X030018Y019190D01*
X029886Y019135D01*
X029785Y019034D01*
X029730Y018902D01*
X029730Y018018D01*
X029754Y017960D01*
X029730Y017902D01*
X029730Y017018D01*
X029754Y016960D01*
X029730Y016902D01*
X029730Y016018D01*
X029785Y015886D01*
X029828Y015843D01*
X029730Y015605D01*
X029730Y015315D01*
X029841Y015046D01*
X029928Y014960D01*
X029841Y014874D01*
X029730Y014605D01*
X029730Y014315D01*
X029841Y014046D01*
X029928Y013960D01*
X029841Y013874D01*
X029730Y013605D01*
X029730Y013315D01*
X029828Y013077D01*
X029785Y013034D01*
X029730Y012902D01*
X029730Y012018D01*
X029754Y011960D01*
X029730Y011902D01*
X029730Y011018D01*
X029754Y010960D01*
X029730Y010902D01*
X029730Y010018D01*
X029754Y009960D01*
X029730Y009902D01*
X029730Y009018D01*
X029785Y008886D01*
X029828Y008843D01*
X029730Y008605D01*
X029730Y008315D01*
X029841Y008046D01*
X029928Y007960D01*
X029841Y007874D01*
X029730Y007605D01*
X029730Y007315D01*
X029841Y007046D01*
X029928Y006960D01*
X029841Y006874D01*
X029730Y006605D01*
X029730Y006315D01*
X029841Y006046D01*
X030046Y005841D01*
X030161Y005794D01*
X030141Y005774D01*
X030030Y005505D01*
X030030Y005215D01*
X030141Y004946D01*
X030346Y004741D01*
X030615Y004630D01*
X030811Y004630D01*
X030906Y004535D01*
X030906Y004276D01*
X030918Y004248D01*
X030918Y004064D01*
X030973Y003932D01*
X031044Y003860D01*
X030973Y003788D01*
X030918Y003656D01*
X030918Y003472D01*
X030906Y003444D01*
X030906Y003185D01*
X030811Y003090D01*
X030615Y003090D01*
X030346Y002979D01*
X030141Y002774D01*
X030030Y002505D01*
X030030Y002215D01*
X030080Y002094D01*
X030076Y002096D01*
X029991Y002119D01*
X029904Y002130D01*
X029860Y002130D01*
X029860Y001460D01*
X029860Y001460D01*
X030530Y001460D01*
X029860Y001460D01*
X029860Y001460D01*
X029860Y002130D01*
X029816Y002130D01*
X029729Y002119D01*
X029644Y002096D01*
X029563Y002062D01*
X029487Y002018D01*
X029417Y001965D01*
X029360Y001908D01*
X029303Y001965D01*
X029233Y002018D01*
X029157Y002062D01*
X029076Y002096D01*
X028991Y002119D01*
X028904Y002130D01*
X028860Y002130D01*
X028860Y001460D01*
X028860Y001460D01*
X029860Y001460D01*
X029860Y001460D01*
X029190Y001460D01*
X028860Y001460D01*
X028860Y001460D01*
X028860Y002130D01*
X028816Y002130D01*
X028729Y002119D01*
X028644Y002096D01*
X028563Y002062D01*
X028487Y002018D01*
X028417Y001965D01*
X028402Y001950D01*
X028274Y002079D01*
X028005Y002190D01*
X027715Y002190D01*
X027477Y002092D01*
X027434Y002135D01*
X027302Y002190D01*
X026752Y002190D01*
X026578Y002365D01*
X026631Y002343D01*
X027289Y002343D01*
X027421Y002397D01*
X027460Y002436D01*
X027499Y002397D01*
X027631Y002343D01*
X028289Y002343D01*
X028421Y002397D01*
X028460Y002436D01*
X028499Y002397D01*
X028631Y002343D01*
X029289Y002343D01*
X029421Y002397D01*
X029523Y002499D01*
X029577Y002631D01*
X029577Y003289D01*
X029570Y003307D01*
X029570Y003613D01*
X029577Y003631D01*
X029577Y004289D01*
X029570Y004307D01*
X029570Y004613D01*
X029577Y004631D01*
X029577Y005289D01*
X029566Y005317D01*
X029635Y005386D01*
X029690Y005518D01*
X029690Y006402D01*
X029635Y006534D01*
X029534Y006635D01*
X029402Y006690D01*
X028518Y006690D01*
X028386Y006635D01*
X028343Y006592D01*
X028105Y006690D01*
X027815Y006690D01*
X027546Y006579D01*
X027460Y006492D01*
X027374Y006579D01*
X027105Y006690D01*
X026815Y006690D01*
X026546Y006579D01*
X026460Y006492D01*
X026374Y006579D01*
X026105Y006690D01*
X025815Y006690D01*
X025546Y006579D01*
X025460Y006492D01*
X025374Y006579D01*
X025105Y006690D01*
X024815Y006690D01*
X024546Y006579D01*
X024460Y006492D01*
X024374Y006579D01*
X024105Y006690D01*
X023815Y006690D01*
X023546Y006579D01*
X023460Y006492D01*
X023374Y006579D01*
X023105Y006690D01*
X022815Y006690D01*
X022546Y006579D01*
X022460Y006492D01*
X022374Y006579D01*
X022105Y006690D01*
X021815Y006690D01*
X021546Y006579D01*
X021460Y006492D01*
X021374Y006579D01*
X021105Y006690D01*
X020815Y006690D01*
X020546Y006579D01*
X020418Y006450D01*
X020403Y006465D01*
X020372Y006488D01*
X020437Y006553D01*
X020495Y006632D01*
X020539Y006720D01*
X020570Y006814D01*
X020585Y006911D01*
X020585Y006960D01*
X020585Y007009D01*
X020570Y007106D01*
X020539Y007200D01*
X020495Y007288D01*
X020492Y007291D01*
X020609Y007174D01*
X020837Y007080D01*
X021083Y007080D01*
X021311Y007174D01*
X021460Y007323D01*
X021609Y007174D01*
X021837Y007080D01*
X022083Y007080D01*
X022311Y007174D01*
X022460Y007323D01*
X022609Y007174D01*
X022837Y007080D01*
X023083Y007080D01*
X023311Y007174D01*
X023460Y007323D01*
X023609Y007174D01*
X023837Y007080D01*
X024083Y007080D01*
X024311Y007174D01*
X024460Y007323D01*
X024609Y007174D01*
X024837Y007080D01*
X025083Y007080D01*
X025311Y007174D01*
X025460Y007323D01*
X025609Y007174D01*
X025837Y007080D01*
X026083Y007080D01*
X026311Y007174D01*
X026460Y007323D01*
X026609Y007174D01*
X026837Y007080D01*
X027083Y007080D01*
X027311Y007174D01*
X027460Y007323D01*
X027609Y007174D01*
X027837Y007080D01*
X028083Y007080D01*
X028311Y007174D01*
X028460Y007323D01*
X028609Y007174D01*
X028837Y007080D01*
X029083Y007080D01*
X029311Y007174D01*
X029486Y007349D01*
X029580Y007577D01*
X029580Y008343D01*
X029486Y008571D01*
X029311Y008746D01*
X029083Y008840D01*
X028837Y008840D01*
X028609Y008746D01*
X028460Y008597D01*
X028311Y008746D01*
X028083Y008840D01*
X027837Y008840D01*
X027609Y008746D01*
X027460Y008597D01*
X027311Y008746D01*
X027083Y008840D01*
X026837Y008840D01*
X026609Y008746D01*
X026460Y008597D01*
X026311Y008746D01*
X026083Y008840D01*
X025837Y008840D01*
X025609Y008746D01*
X025460Y008597D01*
X025311Y008746D01*
X025083Y008840D01*
X024837Y008840D01*
X024609Y008746D01*
X024460Y008597D01*
X024311Y008746D01*
X024083Y008840D01*
X023837Y008840D01*
X023609Y008746D01*
X023460Y008597D01*
X023311Y008746D01*
X023083Y008840D01*
X022837Y008840D01*
X022609Y008746D01*
X022460Y008597D01*
X022311Y008746D01*
X022083Y008840D01*
X021837Y008840D01*
X021609Y008746D01*
X021460Y008597D01*
X021311Y008746D01*
X021083Y008840D01*
X020837Y008840D01*
X020609Y008746D01*
X020434Y008571D01*
X020421Y008538D01*
X020387Y008585D01*
X020325Y008647D01*
X020254Y008699D01*
X020175Y008739D01*
X020091Y008766D01*
X020004Y008780D01*
X019960Y008780D01*
X019960Y007960D01*
X019960Y007960D01*
X019960Y008780D01*
X019916Y008780D01*
X019829Y008766D01*
X019745Y008739D01*
X019666Y008699D01*
X019595Y008647D01*
X019533Y008585D01*
X019499Y008538D01*
X019486Y008571D01*
X019311Y008746D01*
X019083Y008840D01*
X018837Y008840D01*
X018609Y008746D01*
X018460Y008597D01*
X018311Y008746D01*
X018083Y008840D01*
X017837Y008840D01*
X017609Y008746D01*
X017460Y008597D01*
X017311Y008746D01*
X017083Y008840D01*
X016837Y008840D01*
X016609Y008746D01*
X016460Y008597D01*
X016311Y008746D01*
X016083Y008840D01*
X015837Y008840D01*
X015609Y008746D01*
X015460Y008597D01*
X015311Y008746D01*
X015083Y008840D01*
X014837Y008840D01*
X014609Y008746D01*
X014460Y008597D01*
X014311Y008746D01*
X014083Y008840D01*
X013837Y008840D01*
X013609Y008746D01*
X013460Y008597D01*
X013311Y008746D01*
X013083Y008840D01*
X012837Y008840D01*
X012609Y008746D01*
X012460Y008597D01*
X012311Y008746D01*
X012083Y008840D01*
X011837Y008840D01*
X011609Y008746D01*
X011460Y008597D01*
X011311Y008746D01*
X011083Y008840D01*
X010837Y008840D01*
X010609Y008746D01*
X010460Y008597D01*
X010311Y008746D01*
X010083Y008840D01*
X009837Y008840D01*
X009609Y008746D01*
X009434Y008571D01*
X009340Y008343D01*
X009340Y007577D01*
X009434Y007349D01*
X009609Y007174D01*
X009837Y007080D01*
X010083Y007080D01*
X010311Y007174D01*
X010460Y007323D01*
X010609Y007174D01*
X010837Y007080D01*
X011083Y007080D01*
X011311Y007174D01*
X011460Y007323D01*
X011609Y007174D01*
X011837Y007080D01*
X012083Y007080D01*
X012311Y007174D01*
X012460Y007323D01*
X012609Y007174D01*
X012837Y007080D01*
X013083Y007080D01*
X013311Y007174D01*
X013460Y007323D01*
X013609Y007174D01*
X013837Y007080D01*
X014083Y007080D01*
X014311Y007174D01*
X014460Y007323D01*
X014609Y007174D01*
X014837Y007080D01*
X015083Y007080D01*
X015311Y007174D01*
X015460Y007323D01*
X015609Y007174D01*
X015837Y007080D01*
X016083Y007080D01*
X016311Y007174D01*
X016460Y007323D01*
X016609Y007174D01*
X016837Y007080D01*
X017083Y007080D01*
X017311Y007174D01*
X017460Y007323D01*
X017609Y007174D01*
X017837Y007080D01*
X018083Y007080D01*
X018307Y007172D01*
X018275Y007096D01*
X018275Y006824D01*
X018379Y006574D01*
X018374Y006579D01*
X018105Y006690D01*
X017815Y006690D01*
X017546Y006579D01*
X017460Y006492D01*
X017374Y006579D01*
X017105Y006690D01*
X016815Y006690D01*
X016546Y006579D01*
X016460Y006492D01*
X016374Y006579D01*
X016105Y006690D01*
X015815Y006690D01*
X015546Y006579D01*
X015460Y006492D01*
X015374Y006579D01*
X015105Y006690D01*
X014815Y006690D01*
X014546Y006579D01*
X014460Y006492D01*
X014374Y006579D01*
X014105Y006690D01*
X013815Y006690D01*
X013546Y006579D01*
X013460Y006492D01*
X013374Y006579D01*
X013105Y006690D01*
X012815Y006690D01*
X012546Y006579D01*
X012460Y006492D01*
X012374Y006579D01*
X012105Y006690D01*
X011815Y006690D01*
X011546Y006579D01*
X011460Y006492D01*
X011374Y006579D01*
X011105Y006690D01*
X010815Y006690D01*
X010546Y006579D01*
X010460Y006492D01*
X010374Y006579D01*
X010105Y006690D01*
X009815Y006690D01*
X009546Y006579D01*
X009341Y006374D01*
X009230Y006105D01*
X009230Y005815D01*
X009341Y005546D01*
X009432Y005456D01*
X009397Y005421D01*
X009343Y005289D01*
X009343Y004631D01*
X009350Y004613D01*
X009350Y004307D01*
X009343Y004289D01*
X009343Y003703D01*
X009246Y003800D01*
X008892Y003800D01*
X008800Y004024D01*
X008614Y004210D01*
X008564Y004230D01*
X008902Y004230D01*
X009034Y004285D01*
X009135Y004386D01*
X009190Y004518D01*
X009190Y005402D01*
X009135Y005534D01*
X009101Y005568D01*
X009190Y005658D01*
X009190Y006262D01*
X008992Y006460D01*
X009190Y006658D01*
X009190Y007262D01*
X009130Y007322D01*
X009130Y007509D01*
X009133Y007512D01*
X009188Y007644D01*
X009188Y008049D01*
X009190Y008053D01*
X009190Y009032D01*
X009188Y009036D01*
X009188Y009441D01*
X009133Y009573D01*
X009032Y009675D01*
X008900Y009729D01*
X008520Y009729D01*
X008460Y009704D01*
X008400Y009729D01*
X008020Y009729D01*
X007960Y009704D01*
X007900Y009729D01*
X007520Y009729D01*
X007460Y009704D01*
X007400Y009729D01*
X007020Y009729D01*
X006960Y009704D01*
X006900Y009729D01*
X006520Y009729D01*
X006460Y009704D01*
X006400Y009729D01*
X006020Y009729D01*
X005960Y009704D01*
X005900Y009729D01*
X005520Y009729D01*
X005460Y009704D01*
X005400Y009729D01*
X005140Y009729D01*
X005140Y010191D01*
X005400Y010191D01*
X005460Y010216D01*
X005520Y010191D01*
X005900Y010191D01*
X005960Y010216D01*
X006020Y010191D01*
X006400Y010191D01*
X006460Y010216D01*
X006520Y010191D01*
X006900Y010191D01*
X006960Y010216D01*
X007020Y010191D01*
X007400Y010191D01*
X007460Y010216D01*
X007520Y010191D01*
X007900Y010191D01*
X007960Y010216D01*
X008020Y010191D01*
X008400Y010191D01*
X008460Y010216D01*
X008520Y010191D01*
X008900Y010191D01*
X009032Y010245D01*
X009133Y010347D01*
X009188Y010479D01*
X009188Y010884D01*
X009190Y010888D01*
X009190Y011867D01*
X009188Y011871D01*
X009188Y012144D01*
X009316Y012272D01*
X009380Y012426D01*
X009380Y013480D01*
X009434Y013349D01*
X009609Y013174D01*
X009837Y013080D01*
X010083Y013080D01*
X010311Y013174D01*
X010460Y013323D01*
X010609Y013174D01*
X010837Y013080D01*
X011083Y013080D01*
X011311Y013174D01*
X011460Y013323D01*
X011609Y013174D01*
X011837Y013080D01*
X012083Y013080D01*
X012311Y013174D01*
X012460Y013323D01*
X012609Y013174D01*
X012837Y013080D01*
X013083Y013080D01*
X013311Y013174D01*
X013460Y013323D01*
X013609Y013174D01*
X013837Y013080D01*
X014083Y013080D01*
X014311Y013174D01*
X014460Y013323D01*
X014609Y013174D01*
X014837Y013080D01*
X015083Y013080D01*
X015311Y013174D01*
X015460Y013323D01*
X015609Y013174D01*
X015837Y013080D01*
X016083Y013080D01*
X016311Y013174D01*
X016460Y013323D01*
X016609Y013174D01*
X016837Y013080D01*
X017083Y013080D01*
X017311Y013174D01*
X017460Y013323D01*
X017609Y013174D01*
X017837Y013080D01*
X018083Y013080D01*
X018311Y013174D01*
X018486Y013349D01*
X018499Y013382D01*
X018533Y013335D01*
X018595Y013273D01*
X018666Y013221D01*
X018745Y013181D01*
X018829Y013154D01*
X018916Y013140D01*
X018960Y013140D01*
X019004Y013140D01*
X019091Y013154D01*
X019175Y013181D01*
X019254Y013221D01*
X019325Y013273D01*
X019387Y013335D01*
X019421Y013382D01*
X019434Y013349D01*
X019609Y013174D01*
X019837Y013080D01*
X020083Y013080D01*
X020311Y013174D01*
X020460Y013323D01*
X020609Y013174D01*
X020837Y013080D01*
X021083Y013080D01*
X021311Y013174D01*
X021460Y013323D01*
X021609Y013174D01*
X021837Y013080D01*
X022083Y013080D01*
X022311Y013174D01*
X022460Y013323D01*
X022609Y013174D01*
X022837Y013080D01*
X023083Y013080D01*
X023311Y013174D01*
X023460Y013323D01*
X023609Y013174D01*
X023837Y013080D01*
X024083Y013080D01*
X024311Y013174D01*
X024460Y013323D01*
X024609Y013174D01*
X024837Y013080D01*
X025083Y013080D01*
X025311Y013174D01*
X025460Y013323D01*
X025609Y013174D01*
X025837Y013080D01*
X026083Y013080D01*
X026311Y013174D01*
X026460Y013323D01*
X026609Y013174D01*
X026837Y013080D01*
X027083Y013080D01*
X027311Y013174D01*
X027460Y013323D01*
X027609Y013174D01*
X027837Y013080D01*
X028083Y013080D01*
X028311Y013174D01*
X028460Y013323D01*
X028609Y013174D01*
X028837Y013080D01*
X029083Y013080D01*
X029311Y013174D01*
X029486Y013349D01*
X029580Y013577D01*
X029580Y014343D01*
X029486Y014571D01*
X029311Y014746D01*
X029083Y014840D01*
X028837Y014840D01*
X028609Y014746D01*
X028460Y014597D01*
X028311Y014746D01*
X028083Y014840D01*
X027837Y014840D01*
X027609Y014746D01*
X027460Y014597D01*
X027311Y014746D01*
X027083Y014840D01*
X026837Y014840D01*
X026609Y014746D01*
X026460Y014597D01*
X026311Y014746D01*
X026083Y014840D01*
X025837Y014840D01*
X025609Y014746D01*
X025460Y014597D01*
X025311Y014746D01*
X025083Y014840D01*
X024837Y014840D01*
X024609Y014746D01*
X024460Y014597D01*
X024311Y014746D01*
X024083Y014840D01*
X023837Y014840D01*
X023609Y014746D01*
X023460Y014597D01*
X023311Y014746D01*
X023083Y014840D01*
X022837Y014840D01*
X022609Y014746D01*
X022460Y014597D01*
X022311Y014746D01*
X022083Y014840D01*
X021837Y014840D01*
X021609Y014746D01*
X021755Y014806D02*
X021165Y014806D01*
X020755Y014806D02*
X020638Y014806D01*
X020600Y015205D02*
X029776Y015205D01*
X029730Y015603D02*
X029690Y015603D01*
X029690Y016002D02*
X029737Y016002D01*
X029730Y016400D02*
X029690Y016400D01*
X029730Y016799D02*
X029577Y016799D01*
X029577Y017197D02*
X029730Y017197D01*
X029730Y017596D02*
X029570Y017596D01*
X029577Y017994D02*
X029740Y017994D01*
X029730Y018393D02*
X029570Y018393D01*
X029577Y018791D02*
X029730Y018791D01*
X029577Y019190D02*
X030017Y019190D01*
X030903Y019190D02*
X031314Y019190D01*
X031606Y019190D02*
X032314Y019190D01*
X032606Y019190D02*
X033314Y019190D01*
X033606Y019190D02*
X037401Y019190D01*
X036896Y018791D02*
X034113Y018791D01*
X034190Y018393D02*
X034660Y018393D01*
X034641Y018374D02*
X034530Y018105D01*
X034530Y017815D01*
X034641Y017546D01*
X034846Y017341D01*
X035115Y017230D01*
X035405Y017230D01*
X035674Y017341D01*
X035802Y017470D01*
X035817Y017455D01*
X035887Y017402D01*
X035963Y017358D01*
X036044Y017324D01*
X036129Y017301D01*
X036216Y017290D01*
X036260Y017290D01*
X036304Y017290D01*
X036391Y017301D01*
X036476Y017324D01*
X036557Y017358D01*
X036633Y017402D01*
X036703Y017455D01*
X036706Y017459D01*
X036738Y017382D01*
X036801Y017265D01*
X036874Y017155D01*
X036959Y017052D01*
X037052Y016959D01*
X037068Y016946D01*
X036955Y016976D01*
X036612Y016976D01*
X036280Y016887D01*
X035982Y016715D01*
X035739Y016472D01*
X035568Y016175D01*
X035479Y015843D01*
X035479Y015499D01*
X035568Y015167D01*
X035592Y015126D01*
X035431Y015126D01*
X035099Y015037D01*
X034801Y014865D01*
X034558Y014622D01*
X034387Y014324D01*
X034298Y013992D01*
X034298Y013649D01*
X034387Y013317D01*
X034558Y013019D01*
X034801Y012776D01*
X035099Y012605D01*
X035431Y012516D01*
X035774Y012516D01*
X036106Y012605D01*
X036404Y012776D01*
X036647Y013019D01*
X036801Y013286D01*
X036834Y013218D01*
X036908Y013099D01*
X036996Y012990D01*
X037095Y012891D01*
X037204Y012804D01*
X037322Y012729D01*
X037448Y012669D01*
X037580Y012623D01*
X037716Y012591D01*
X037830Y012579D01*
X037830Y013725D01*
X038021Y013725D01*
X038021Y013916D01*
X039167Y013916D01*
X039155Y014029D01*
X039123Y014166D01*
X039077Y014298D01*
X039017Y014424D01*
X038942Y014542D01*
X038855Y014651D01*
X038756Y014750D01*
X038647Y014838D01*
X038528Y014912D01*
X038403Y014973D01*
X038271Y015019D01*
X038134Y015050D01*
X038021Y015063D01*
X038021Y013916D01*
X037830Y013916D01*
X037830Y014874D01*
X038000Y015167D01*
X038089Y015499D01*
X038089Y015843D01*
X038000Y016175D01*
X037828Y016472D01*
X037656Y016644D01*
X037762Y016623D01*
X037884Y016611D01*
X037884Y017884D01*
X036926Y017884D01*
X036930Y017916D01*
X036930Y017960D01*
X036260Y017960D01*
X036260Y017960D01*
X036260Y017290D01*
X036260Y017960D01*
X036260Y017960D01*
X036260Y018630D01*
X036216Y018630D01*
X036129Y018619D01*
X036044Y018596D01*
X035963Y018562D01*
X035887Y018518D01*
X035817Y018465D01*
X035802Y018450D01*
X035674Y018579D01*
X035405Y018690D01*
X035115Y018690D01*
X034846Y018579D01*
X034641Y018374D01*
X034530Y017994D02*
X034026Y017994D01*
X034190Y017596D02*
X034621Y017596D01*
X034141Y017197D02*
X036846Y017197D01*
X036260Y017596D02*
X036260Y017596D01*
X036260Y017994D02*
X036260Y017994D01*
X036930Y017994D02*
X037884Y017994D01*
X037884Y017596D02*
X038036Y017596D01*
X038036Y017197D02*
X037884Y017197D01*
X037884Y016799D02*
X038036Y016799D01*
X037869Y016400D02*
X039200Y016400D01*
X039200Y016002D02*
X038046Y016002D01*
X038089Y015603D02*
X039200Y015603D01*
X039200Y015205D02*
X038010Y015205D01*
X038021Y014806D02*
X037830Y014806D01*
X037830Y014408D02*
X038021Y014408D01*
X038021Y014009D02*
X037830Y014009D01*
X038021Y013725D02*
X039167Y013725D01*
X039155Y013612D01*
X039123Y013475D01*
X039077Y013343D01*
X039017Y013218D01*
X038942Y013099D01*
X038855Y012990D01*
X038756Y012891D01*
X038647Y012804D01*
X038528Y012729D01*
X038403Y012669D01*
X038271Y012623D01*
X038134Y012591D01*
X038021Y012579D01*
X038021Y013725D01*
X038021Y013611D02*
X037830Y013611D01*
X037830Y013212D02*
X038021Y013212D01*
X038021Y012814D02*
X037830Y012814D01*
X037192Y012814D02*
X036441Y012814D01*
X036758Y013212D02*
X036838Y013212D01*
X038244Y012096D02*
X038329Y012119D01*
X038416Y012130D01*
X038460Y012130D01*
X038504Y012130D01*
X038591Y012119D01*
X038676Y012096D01*
X038757Y012062D01*
X038833Y012018D01*
X038903Y011965D01*
X038965Y011903D01*
X039018Y011833D01*
X039062Y011757D01*
X039096Y011676D01*
X039119Y011591D01*
X039130Y011504D01*
X039130Y011460D01*
X038460Y011460D01*
X038460Y011460D01*
X038460Y011460D01*
X038460Y012130D01*
X038460Y011460D01*
X039130Y011460D01*
X039130Y011416D01*
X039119Y011329D01*
X039096Y011244D01*
X039062Y011163D01*
X039018Y011087D01*
X038965Y011017D01*
X038950Y011002D01*
X039079Y010874D01*
X039190Y010605D01*
X039190Y010315D01*
X039079Y010046D01*
X038874Y009841D01*
X038605Y009730D01*
X038315Y009730D01*
X038046Y009841D01*
X037841Y010046D01*
X037730Y010315D01*
X037730Y010605D01*
X037841Y010874D01*
X037970Y011002D01*
X037955Y011017D01*
X037902Y011087D01*
X037858Y011163D01*
X037824Y011244D01*
X037801Y011329D01*
X037790Y011416D01*
X037790Y011460D01*
X038460Y011460D01*
X038460Y011460D01*
X037790Y011460D01*
X037790Y011504D01*
X037801Y011591D01*
X037824Y011676D01*
X037858Y011757D01*
X037902Y011833D01*
X037955Y011903D01*
X038017Y011965D01*
X038087Y012018D01*
X038163Y012062D01*
X038244Y012096D01*
X038085Y012017D02*
X035201Y012017D01*
X035248Y011618D02*
X035478Y011618D01*
X035385Y011220D02*
X034995Y011220D01*
X035544Y010821D02*
X034101Y010821D01*
X034190Y010423D02*
X035445Y010423D01*
X035445Y010260D02*
X035445Y010005D01*
X035805Y009645D01*
X036060Y009645D01*
X036060Y010260D01*
X036060Y010260D01*
X036060Y010260D01*
X035445Y010260D01*
X035445Y010024D02*
X034139Y010024D01*
X034761Y009626D02*
X035159Y009626D01*
X035761Y009626D02*
X036159Y009626D01*
X036060Y010024D02*
X036060Y010024D01*
X036675Y010024D02*
X037864Y010024D01*
X037730Y010423D02*
X036675Y010423D01*
X036576Y010821D02*
X037819Y010821D01*
X037834Y011220D02*
X036735Y011220D01*
X036642Y011618D02*
X037809Y011618D01*
X038460Y011618D02*
X038460Y011618D01*
X038460Y012017D02*
X038460Y012017D01*
X038835Y012017D02*
X039200Y012017D01*
X039200Y012415D02*
X034782Y012415D01*
X034338Y012415D02*
X034190Y012415D01*
X034190Y012814D02*
X034764Y012814D01*
X034447Y013212D02*
X034147Y013212D01*
X034188Y013611D02*
X034308Y013611D01*
X034302Y014009D02*
X034041Y014009D01*
X034190Y014408D02*
X034435Y014408D01*
X034743Y014806D02*
X034107Y014806D01*
X034980Y015205D02*
X035558Y015205D01*
X035479Y015603D02*
X035242Y015603D01*
X035207Y016002D02*
X035521Y016002D01*
X035698Y016400D02*
X034818Y016400D01*
X034302Y016400D02*
X034190Y016400D01*
X034110Y016799D02*
X036127Y016799D01*
X038651Y016799D02*
X039200Y016799D01*
X039200Y017197D02*
X039074Y017197D01*
X036260Y018393D02*
X036260Y018393D01*
X038686Y014806D02*
X039200Y014806D01*
X039200Y014408D02*
X039024Y014408D01*
X039157Y014009D02*
X039200Y014009D01*
X039200Y013611D02*
X039154Y013611D01*
X039200Y013212D02*
X039013Y013212D01*
X039200Y012814D02*
X038659Y012814D01*
X039111Y011618D02*
X039200Y011618D01*
X039200Y011220D02*
X039086Y011220D01*
X039101Y010821D02*
X039200Y010821D01*
X039190Y010423D02*
X039200Y010423D01*
X039200Y010024D02*
X039056Y010024D01*
X039200Y009626D02*
X036761Y009626D01*
X037140Y009227D02*
X039200Y009227D01*
X039200Y008829D02*
X037190Y008829D01*
X037803Y008528D02*
X037803Y007792D01*
X037858Y007659D01*
X037959Y007558D01*
X037999Y007541D01*
X037950Y007473D01*
X037907Y007389D01*
X037878Y007300D01*
X037863Y007207D01*
X037863Y007160D01*
X037863Y007113D01*
X037878Y007020D01*
X037907Y006931D01*
X037950Y006847D01*
X038005Y006771D01*
X038071Y006705D01*
X038074Y006703D01*
X037903Y006532D01*
X037803Y006291D01*
X037803Y006029D01*
X037903Y005788D01*
X038088Y005603D01*
X038329Y005503D01*
X038591Y005503D01*
X038832Y005603D01*
X039017Y005788D01*
X039117Y006029D01*
X039117Y006291D01*
X039017Y006532D01*
X038846Y006703D01*
X038849Y006705D01*
X038915Y006771D01*
X038970Y006847D01*
X039013Y006931D01*
X039042Y007020D01*
X039057Y007113D01*
X039057Y007160D01*
X039057Y007207D01*
X039042Y007300D01*
X039013Y007389D01*
X038970Y007473D01*
X038921Y007541D01*
X038961Y007558D01*
X039062Y007659D01*
X039117Y007792D01*
X039117Y008528D01*
X039062Y008661D01*
X038961Y008762D01*
X038828Y008817D01*
X038092Y008817D01*
X037959Y008762D01*
X037858Y008661D01*
X037803Y008528D01*
X037803Y008430D02*
X036962Y008430D01*
X036131Y008032D02*
X037803Y008032D01*
X037884Y007633D02*
X036743Y007633D01*
X037136Y007235D02*
X037868Y007235D01*
X037863Y007160D02*
X038460Y007160D01*
X039057Y007160D01*
X038460Y007160D01*
X038460Y007160D01*
X038460Y007160D01*
X037863Y007160D01*
X037958Y006836D02*
X037190Y006836D01*
X037015Y006438D02*
X037864Y006438D01*
X037803Y006039D02*
X037190Y006039D01*
X037118Y005641D02*
X038051Y005641D01*
X038869Y005641D02*
X039200Y005641D01*
X039200Y005242D02*
X036634Y005242D01*
X036145Y004844D02*
X039200Y004844D01*
X039200Y004445D02*
X037007Y004445D01*
X037190Y004047D02*
X039200Y004047D01*
X039200Y003648D02*
X037121Y003648D01*
X037560Y003250D02*
X036652Y003250D01*
X036268Y003250D02*
X035652Y003250D01*
X035268Y003250D02*
X034652Y003250D01*
X034268Y003250D02*
X032614Y003250D01*
X032602Y003648D02*
X033799Y003648D01*
X033730Y004047D02*
X032595Y004047D01*
X032614Y004445D02*
X033913Y004445D01*
X033276Y004844D02*
X034775Y004844D01*
X034286Y005242D02*
X033490Y005242D01*
X033434Y005641D02*
X033802Y005641D01*
X030906Y004445D02*
X029570Y004445D01*
X029577Y004047D02*
X030925Y004047D01*
X030918Y003648D02*
X029577Y003648D01*
X029577Y003250D02*
X030906Y003250D01*
X030219Y002851D02*
X029577Y002851D01*
X029477Y002453D02*
X030030Y002453D01*
X029860Y002054D02*
X029860Y002054D01*
X029549Y002054D02*
X029171Y002054D01*
X028860Y002054D02*
X028860Y002054D01*
X028549Y002054D02*
X028298Y002054D01*
X028860Y001656D02*
X028860Y001656D01*
X029860Y001656D02*
X029860Y001656D01*
X030501Y001656D02*
X030553Y001656D01*
X030967Y001656D02*
X031553Y001656D01*
X031967Y001656D02*
X032553Y001656D01*
X032967Y001656D02*
X033731Y001656D01*
X033693Y001257D02*
X030499Y001257D01*
X030158Y000859D02*
X033957Y000859D01*
X034763Y000859D02*
X035862Y000859D01*
X035521Y001257D02*
X035027Y001257D01*
X034989Y001656D02*
X035519Y001656D01*
X035538Y002054D02*
X034874Y002054D01*
X034975Y002453D02*
X035430Y002453D01*
X035532Y002851D02*
X034789Y002851D01*
X034360Y002851D02*
X034360Y002851D01*
X033931Y002851D02*
X033301Y002851D01*
X033490Y002453D02*
X033745Y002453D01*
X034360Y002453D02*
X034360Y002453D01*
X033846Y002054D02*
X033423Y002054D01*
X036788Y002851D02*
X036945Y002851D01*
X037884Y002851D02*
X038036Y002851D01*
X038036Y002453D02*
X037884Y002453D01*
X037884Y002054D02*
X038036Y002054D01*
X038975Y002851D02*
X039200Y002851D01*
X039200Y003250D02*
X038360Y003250D01*
X038036Y003250D02*
X037884Y003250D01*
X039117Y006039D02*
X039200Y006039D01*
X039200Y006438D02*
X039056Y006438D01*
X038962Y006836D02*
X039200Y006836D01*
X039200Y007235D02*
X039052Y007235D01*
X039036Y007633D02*
X039200Y007633D01*
X039200Y008032D02*
X039117Y008032D01*
X039117Y008430D02*
X039200Y008430D01*
X030086Y005641D02*
X029690Y005641D01*
X029577Y005242D02*
X030030Y005242D01*
X030244Y004844D02*
X029577Y004844D01*
X029690Y006039D02*
X029849Y006039D01*
X029730Y006438D02*
X029675Y006438D01*
X029826Y006836D02*
X020573Y006836D01*
X020585Y006960D02*
X019960Y006960D01*
X020585Y006960D01*
X020549Y007235D02*
X020522Y007235D01*
X019960Y007235D02*
X019960Y007235D01*
X019960Y006960D02*
X019960Y007585D01*
X019960Y007960D01*
X019960Y006960D01*
X019960Y006960D01*
X019960Y006960D01*
X019960Y005960D01*
X019960Y005960D01*
X019960Y006630D01*
X019960Y006960D01*
X019960Y006960D01*
X019960Y006836D02*
X019960Y006836D01*
X019960Y006438D02*
X019960Y006438D01*
X019960Y006039D02*
X019960Y006039D01*
X018275Y006836D02*
X009190Y006836D01*
X009190Y007235D02*
X009549Y007235D01*
X009340Y007633D02*
X009183Y007633D01*
X009188Y008032D02*
X009340Y008032D01*
X009376Y008430D02*
X009190Y008430D01*
X009190Y008829D02*
X009809Y008829D01*
X010111Y008829D02*
X010809Y008829D01*
X011111Y008829D02*
X011809Y008829D01*
X012111Y008829D02*
X012809Y008829D01*
X013111Y008829D02*
X013809Y008829D01*
X014111Y008829D02*
X014809Y008829D01*
X015111Y008829D02*
X015809Y008829D01*
X016111Y008829D02*
X016809Y008829D01*
X017111Y008829D02*
X017809Y008829D01*
X018111Y008829D02*
X018809Y008829D01*
X018857Y008840D02*
X019063Y008840D01*
X019255Y008919D01*
X019401Y009065D01*
X019480Y009257D01*
X019480Y009463D01*
X019440Y009560D01*
X019440Y011361D01*
X020158Y012079D01*
X020255Y012119D01*
X020401Y012265D01*
X020480Y012457D01*
X020480Y012663D01*
X020401Y012855D01*
X020255Y013001D01*
X020063Y013080D01*
X019857Y013080D01*
X019665Y013001D01*
X019519Y012855D01*
X019479Y012758D01*
X018553Y011832D01*
X018480Y011655D01*
X018480Y009560D01*
X018440Y009463D01*
X018440Y009257D01*
X018519Y009065D01*
X018665Y008919D01*
X018857Y008840D01*
X019111Y008829D02*
X020809Y008829D01*
X021111Y008829D02*
X021809Y008829D01*
X022111Y008829D02*
X022809Y008829D01*
X023111Y008829D02*
X023809Y008829D01*
X024111Y008829D02*
X024809Y008829D01*
X025111Y008829D02*
X025809Y008829D01*
X026111Y008829D02*
X026809Y008829D01*
X027111Y008829D02*
X027809Y008829D01*
X028111Y008829D02*
X028809Y008829D01*
X029111Y008829D02*
X029822Y008829D01*
X029730Y009227D02*
X019468Y009227D01*
X019440Y009626D02*
X029730Y009626D01*
X029730Y010024D02*
X019440Y010024D01*
X019440Y010423D02*
X029730Y010423D01*
X029730Y010821D02*
X019440Y010821D01*
X019440Y011220D02*
X029730Y011220D01*
X029730Y011618D02*
X019697Y011618D01*
X020095Y012017D02*
X029731Y012017D01*
X029730Y012415D02*
X020463Y012415D01*
X020418Y012814D02*
X029730Y012814D01*
X029773Y013212D02*
X029349Y013212D01*
X029580Y013611D02*
X029732Y013611D01*
X029879Y014009D02*
X029580Y014009D01*
X029553Y014408D02*
X029730Y014408D01*
X029813Y014806D02*
X029165Y014806D01*
X028755Y014806D02*
X028165Y014806D01*
X027755Y014806D02*
X027165Y014806D01*
X026755Y014806D02*
X026165Y014806D01*
X025755Y014806D02*
X025165Y014806D01*
X024755Y014806D02*
X024165Y014806D01*
X023755Y014806D02*
X023165Y014806D01*
X022755Y014806D02*
X022165Y014806D01*
X018960Y014806D02*
X018960Y014806D01*
X018960Y014960D02*
X018960Y014335D01*
X018960Y013960D01*
X018960Y013960D01*
X018960Y014960D01*
X018960Y014960D01*
X018960Y015585D01*
X018960Y015960D01*
X018960Y015960D01*
X018960Y014960D01*
X018960Y014960D01*
X018960Y014960D01*
X018335Y014960D01*
X018335Y015009D01*
X018350Y015106D01*
X018381Y015200D01*
X018425Y015288D01*
X018483Y015367D01*
X018548Y015432D01*
X018517Y015455D01*
X018502Y015470D01*
X018374Y015341D01*
X018105Y015230D01*
X017815Y015230D01*
X017546Y015341D01*
X017460Y015428D01*
X017374Y015341D01*
X017105Y015230D01*
X016815Y015230D01*
X016546Y015341D01*
X016460Y015428D01*
X016374Y015341D01*
X016105Y015230D01*
X015815Y015230D01*
X015546Y015341D01*
X015460Y015428D01*
X015374Y015341D01*
X015105Y015230D01*
X014815Y015230D01*
X014546Y015341D01*
X014460Y015428D01*
X014374Y015341D01*
X014105Y015230D01*
X013815Y015230D01*
X013546Y015341D01*
X013460Y015428D01*
X013374Y015341D01*
X013105Y015230D01*
X012815Y015230D01*
X012546Y015341D01*
X012460Y015428D01*
X012374Y015341D01*
X012105Y015230D01*
X011815Y015230D01*
X011546Y015341D01*
X011460Y015428D01*
X011374Y015341D01*
X011105Y015230D01*
X010815Y015230D01*
X010546Y015341D01*
X010460Y015428D01*
X010374Y015341D01*
X010105Y015230D01*
X009815Y015230D01*
X009546Y015341D01*
X009460Y015428D01*
X009374Y015341D01*
X009133Y015242D01*
X009190Y015105D01*
X009190Y014815D01*
X009079Y014546D01*
X008992Y014460D01*
X009190Y014262D01*
X009190Y013824D01*
X009198Y013816D01*
X009316Y013698D01*
X009340Y013640D01*
X009340Y014343D01*
X009434Y014571D01*
X009609Y014746D01*
X009837Y014840D01*
X010083Y014840D01*
X010311Y014746D01*
X010460Y014597D01*
X010609Y014746D01*
X010837Y014840D01*
X011083Y014840D01*
X011311Y014746D01*
X011460Y014597D01*
X011609Y014746D01*
X011837Y014840D01*
X012083Y014840D01*
X012311Y014746D01*
X012460Y014597D01*
X012609Y014746D01*
X012837Y014840D01*
X013083Y014840D01*
X013311Y014746D01*
X013460Y014597D01*
X013609Y014746D01*
X013837Y014840D01*
X014083Y014840D01*
X014311Y014746D01*
X014460Y014597D01*
X014609Y014746D01*
X014837Y014840D01*
X015083Y014840D01*
X015311Y014746D01*
X015460Y014597D01*
X015609Y014746D01*
X015837Y014840D01*
X016083Y014840D01*
X016311Y014746D01*
X016460Y014597D01*
X016609Y014746D01*
X016837Y014840D01*
X017083Y014840D01*
X017311Y014746D01*
X017460Y014597D01*
X017609Y014746D01*
X017837Y014840D01*
X018083Y014840D01*
X018311Y014746D01*
X018428Y014629D01*
X018425Y014632D01*
X018381Y014720D01*
X018350Y014814D01*
X018335Y014911D01*
X018335Y014960D01*
X018960Y014960D01*
X018960Y015205D02*
X018960Y015205D01*
X018960Y015603D02*
X018960Y015603D01*
X018383Y015205D02*
X009149Y015205D01*
X009186Y014806D02*
X009755Y014806D01*
X010165Y014806D02*
X010755Y014806D01*
X011165Y014806D02*
X011755Y014806D01*
X012165Y014806D02*
X012755Y014806D01*
X013165Y014806D02*
X013755Y014806D01*
X014165Y014806D02*
X014755Y014806D01*
X015165Y014806D02*
X015755Y014806D01*
X016165Y014806D02*
X016755Y014806D01*
X017165Y014806D02*
X017755Y014806D01*
X018165Y014806D02*
X018353Y014806D01*
X018960Y014408D02*
X018960Y014408D01*
X018960Y014009D02*
X018960Y014009D01*
X018960Y013960D02*
X018960Y013140D01*
X018960Y013960D01*
X018960Y013960D01*
X018960Y013611D02*
X018960Y013611D01*
X018960Y013212D02*
X018960Y013212D01*
X019236Y013212D02*
X019571Y013212D01*
X019502Y012814D02*
X009380Y012814D01*
X009380Y013212D02*
X009571Y013212D01*
X010349Y013212D02*
X010571Y013212D01*
X011349Y013212D02*
X011571Y013212D01*
X012349Y013212D02*
X012571Y013212D01*
X013349Y013212D02*
X013571Y013212D01*
X014349Y013212D02*
X014571Y013212D01*
X015349Y013212D02*
X015571Y013212D01*
X016349Y013212D02*
X016571Y013212D01*
X017349Y013212D02*
X017571Y013212D01*
X018349Y013212D02*
X018684Y013212D01*
X019136Y012415D02*
X009375Y012415D01*
X009188Y012017D02*
X018738Y012017D01*
X018480Y011618D02*
X009190Y011618D01*
X009190Y011220D02*
X018480Y011220D01*
X018480Y010821D02*
X009188Y010821D01*
X009165Y010423D02*
X018480Y010423D01*
X018480Y010024D02*
X005140Y010024D01*
X004180Y010024D02*
X000820Y010024D01*
X000820Y009626D02*
X004180Y009626D01*
X004180Y009227D02*
X000820Y009227D01*
X000820Y008829D02*
X001373Y008829D01*
X001545Y009000D02*
X001170Y008625D01*
X001170Y008095D01*
X001405Y007860D01*
X001170Y007625D01*
X001170Y007095D01*
X001405Y006860D01*
X001170Y006625D01*
X001170Y006095D01*
X001545Y005720D01*
X002075Y005720D01*
X002352Y005997D01*
X002570Y005780D01*
X002810Y005780D01*
X003050Y005780D01*
X003390Y006120D01*
X003390Y006360D01*
X003390Y006508D01*
X003511Y006387D01*
X003920Y005978D01*
X003920Y004240D01*
X003665Y004240D01*
X003396Y004129D01*
X003191Y003924D01*
X003080Y003655D01*
X003080Y003365D01*
X003191Y003096D01*
X003278Y003010D01*
X003191Y002924D01*
X003095Y002691D01*
X003046Y002765D01*
X002961Y002868D01*
X002868Y002961D01*
X002765Y003046D01*
X002655Y003119D01*
X002538Y003182D01*
X002415Y003233D01*
X002288Y003271D01*
X002158Y003297D01*
X002036Y003309D01*
X002036Y002036D01*
X001884Y002036D01*
X001884Y003309D01*
X001762Y003297D01*
X001632Y003271D01*
X001505Y003233D01*
X001382Y003182D01*
X001265Y003119D01*
X001155Y003046D01*
X001052Y002961D01*
X000959Y002868D01*
X000874Y002765D01*
X000820Y002684D01*
X000820Y017236D01*
X000874Y017155D01*
X000959Y017052D01*
X001052Y016959D01*
X001155Y016874D01*
X001240Y016818D01*
X001146Y016779D01*
X000941Y016574D01*
X000830Y016305D01*
X000830Y016015D01*
X000941Y015746D01*
X001028Y015660D01*
X000941Y015574D01*
X000830Y015305D01*
X000830Y015015D01*
X000941Y014746D01*
X001028Y014660D01*
X000941Y014574D01*
X000830Y014305D01*
X000830Y014015D01*
X000941Y013746D01*
X001028Y013660D01*
X000941Y013574D01*
X000830Y013305D01*
X000830Y013015D01*
X000941Y012746D01*
X001070Y012618D01*
X001055Y012603D01*
X001002Y012533D01*
X000958Y012457D01*
X000924Y012376D01*
X000901Y012291D01*
X000890Y012204D01*
X000890Y012160D01*
X001560Y012160D01*
X002660Y012160D01*
X003330Y012160D01*
X003330Y012204D01*
X003319Y012291D01*
X003296Y012376D01*
X003262Y012457D01*
X003218Y012533D01*
X003165Y012603D01*
X003150Y012618D01*
X003279Y012746D01*
X003390Y013015D01*
X003390Y013305D01*
X003279Y013574D01*
X003192Y013660D01*
X003279Y013746D01*
X003390Y014015D01*
X003390Y014305D01*
X003279Y014574D01*
X003192Y014660D01*
X003279Y014746D01*
X003390Y015015D01*
X003390Y015305D01*
X003279Y015574D01*
X003192Y015660D01*
X003279Y015746D01*
X003390Y016015D01*
X003390Y016305D01*
X003325Y016463D01*
X003346Y016441D01*
X003615Y016330D01*
X003905Y016330D01*
X004174Y016441D01*
X004342Y016609D01*
X004380Y016571D01*
X004380Y016459D01*
X004253Y016332D01*
X004180Y016155D01*
X004180Y007796D01*
X004133Y007909D01*
X003450Y008592D01*
X003450Y008625D01*
X003075Y009000D01*
X002545Y009000D01*
X002310Y008765D01*
X002075Y009000D01*
X001545Y009000D01*
X002247Y008829D02*
X002373Y008829D01*
X003247Y008829D02*
X004180Y008829D01*
X004180Y008430D02*
X003612Y008430D01*
X004011Y008032D02*
X004180Y008032D01*
X001381Y006836D02*
X000820Y006836D01*
X000820Y006438D02*
X001170Y006438D01*
X001226Y006039D02*
X000820Y006039D01*
X000820Y005641D02*
X003920Y005641D01*
X003920Y005242D02*
X000820Y005242D01*
X000820Y004844D02*
X003920Y004844D01*
X003920Y004445D02*
X000820Y004445D01*
X000820Y004047D02*
X003314Y004047D01*
X003080Y003648D02*
X000820Y003648D01*
X000820Y003250D02*
X001560Y003250D01*
X001884Y003250D02*
X002036Y003250D01*
X002360Y003250D02*
X003128Y003250D01*
X003161Y002851D02*
X002975Y002851D01*
X002036Y002851D02*
X001884Y002851D01*
X001884Y002453D02*
X002036Y002453D01*
X002036Y002054D02*
X001884Y002054D01*
X000945Y002851D02*
X000820Y002851D01*
X003120Y001267D02*
X003191Y001096D01*
X003396Y000891D01*
X003568Y000820D01*
X002684Y000820D01*
X002765Y000874D01*
X002868Y000959D01*
X002961Y001052D01*
X003046Y001155D01*
X003119Y001265D01*
X003120Y001267D01*
X003114Y001257D02*
X003125Y001257D01*
X003475Y000859D02*
X002741Y000859D01*
X004052Y000820D02*
X009051Y000820D01*
X008985Y000886D01*
X008930Y001018D01*
X008930Y001420D01*
X008674Y001420D01*
X008656Y001438D01*
X008631Y001412D01*
X008554Y001357D01*
X008470Y001314D01*
X008380Y001285D01*
X008287Y001270D01*
X007940Y001270D01*
X007940Y001870D01*
X007940Y001870D01*
X007940Y001870D01*
X007040Y001870D01*
X007040Y001917D01*
X007055Y002010D01*
X007077Y002080D01*
X006243Y002080D01*
X006265Y002010D01*
X006280Y001917D01*
X006280Y001870D01*
X005380Y001870D01*
X005380Y001870D01*
X006280Y001870D01*
X006280Y001823D01*
X006265Y001729D01*
X006236Y001640D01*
X006193Y001556D01*
X006138Y001479D01*
X006071Y001412D01*
X005994Y001357D01*
X005910Y001314D01*
X005820Y001285D01*
X005727Y001270D01*
X005380Y001270D01*
X005380Y001870D01*
X005380Y001870D01*
X005380Y001870D01*
X004480Y001870D01*
X004480Y001917D01*
X004495Y002010D01*
X004523Y002097D01*
X004443Y002130D01*
X004429Y002096D01*
X004342Y002010D01*
X004429Y001924D01*
X004486Y001786D01*
X004480Y001823D01*
X004480Y001870D01*
X005380Y001870D01*
X005380Y001270D01*
X005033Y001270D01*
X004939Y001285D01*
X004850Y001314D01*
X004766Y001357D01*
X004689Y001412D01*
X004622Y001479D01*
X004567Y001556D01*
X004540Y001608D01*
X004540Y001365D01*
X004429Y001096D01*
X004224Y000891D01*
X004052Y000820D01*
X004145Y000859D02*
X009012Y000859D01*
X008930Y001257D02*
X004495Y001257D01*
X005380Y001656D02*
X005380Y001656D01*
X006241Y001656D02*
X007079Y001656D01*
X007084Y001640D02*
X007127Y001556D01*
X007182Y001479D01*
X007249Y001412D01*
X007326Y001357D01*
X007410Y001314D01*
X007499Y001285D01*
X007593Y001270D01*
X007940Y001270D01*
X007940Y001870D01*
X007040Y001870D01*
X007040Y001823D01*
X007055Y001729D01*
X007084Y001640D01*
X007069Y002054D02*
X006251Y002054D01*
X007940Y001656D02*
X007940Y001656D01*
X009650Y002190D02*
X009650Y002343D01*
X010289Y002343D01*
X010421Y002397D01*
X010460Y002436D01*
X010499Y002397D01*
X010631Y002343D01*
X011289Y002343D01*
X011421Y002397D01*
X011460Y002436D01*
X011499Y002397D01*
X011631Y002343D01*
X012289Y002343D01*
X012421Y002397D01*
X012460Y002436D01*
X012499Y002397D01*
X012631Y002343D01*
X013289Y002343D01*
X013421Y002397D01*
X013460Y002436D01*
X013499Y002397D01*
X013631Y002343D01*
X014289Y002343D01*
X014421Y002397D01*
X014460Y002436D01*
X014499Y002397D01*
X014631Y002343D01*
X015289Y002343D01*
X015421Y002397D01*
X015460Y002436D01*
X015499Y002397D01*
X015631Y002343D01*
X016289Y002343D01*
X016421Y002397D01*
X016460Y002436D01*
X016499Y002397D01*
X016631Y002343D01*
X017289Y002343D01*
X017421Y002397D01*
X017460Y002436D01*
X017499Y002397D01*
X017631Y002343D01*
X018140Y002343D01*
X018140Y002257D01*
X018219Y002065D01*
X018354Y001931D01*
X018118Y001694D01*
X017892Y001920D01*
X017660Y001920D01*
X017660Y001360D01*
X017660Y001360D01*
X017660Y001920D01*
X017428Y001920D01*
X017263Y001755D01*
X017262Y001757D01*
X017218Y001833D01*
X017165Y001903D01*
X017103Y001965D01*
X017033Y002018D01*
X016957Y002062D01*
X016876Y002096D01*
X016791Y002119D01*
X016704Y002130D01*
X016660Y002130D01*
X016660Y001460D01*
X016660Y001460D01*
X016660Y001460D01*
X015660Y001460D01*
X015660Y001460D01*
X015660Y001460D01*
X015660Y002130D01*
X015704Y002130D01*
X015791Y002119D01*
X015876Y002096D01*
X015957Y002062D01*
X016033Y002018D01*
X016103Y001965D01*
X016160Y001908D01*
X016217Y001965D01*
X016287Y002018D01*
X016363Y002062D01*
X016444Y002096D01*
X016529Y002119D01*
X016616Y002130D01*
X016660Y002130D01*
X016660Y001460D01*
X015990Y001460D01*
X015660Y001460D01*
X015660Y001460D01*
X014660Y001460D01*
X014660Y001460D01*
X014660Y001460D01*
X014660Y002130D01*
X014704Y002130D01*
X014791Y002119D01*
X014876Y002096D01*
X014957Y002062D01*
X015033Y002018D01*
X015103Y001965D01*
X015160Y001908D01*
X015217Y001965D01*
X015287Y002018D01*
X015363Y002062D01*
X015444Y002096D01*
X015529Y002119D01*
X015616Y002130D01*
X015660Y002130D01*
X015660Y001460D01*
X015330Y001460D01*
X014660Y001460D01*
X014660Y001460D01*
X013660Y001460D01*
X013660Y001460D01*
X013660Y001460D01*
X013660Y002130D01*
X013704Y002130D01*
X013791Y002119D01*
X013876Y002096D01*
X013957Y002062D01*
X014033Y002018D01*
X014103Y001965D01*
X014160Y001908D01*
X014217Y001965D01*
X014287Y002018D01*
X014363Y002062D01*
X014444Y002096D01*
X014529Y002119D01*
X014616Y002130D01*
X014660Y002130D01*
X014660Y001460D01*
X013990Y001460D01*
X013660Y001460D01*
X013660Y002130D01*
X013616Y002130D01*
X013529Y002119D01*
X013444Y002096D01*
X013363Y002062D01*
X013287Y002018D01*
X013217Y001965D01*
X013202Y001950D01*
X013074Y002079D01*
X012805Y002190D01*
X012515Y002190D01*
X012246Y002079D01*
X012160Y001992D01*
X012074Y002079D01*
X011805Y002190D01*
X011515Y002190D01*
X011246Y002079D01*
X011160Y001992D01*
X011074Y002079D01*
X010805Y002190D01*
X010515Y002190D01*
X010277Y002092D01*
X010234Y002135D01*
X010102Y002190D01*
X009650Y002190D01*
X011098Y002054D02*
X011222Y002054D01*
X012098Y002054D02*
X012222Y002054D01*
X013098Y002054D02*
X013349Y002054D01*
X013660Y002054D02*
X013660Y002054D01*
X013971Y002054D02*
X014349Y002054D01*
X014660Y002054D02*
X014660Y002054D01*
X014971Y002054D02*
X015349Y002054D01*
X015660Y002054D02*
X015660Y002054D01*
X015971Y002054D02*
X016349Y002054D01*
X016660Y002054D02*
X016660Y002054D01*
X016971Y002054D02*
X018231Y002054D01*
X017660Y001656D02*
X017660Y001656D01*
X017660Y001360D02*
X017660Y000820D01*
X017660Y000820D01*
X017660Y001360D01*
X017660Y001360D01*
X017660Y001257D02*
X017660Y001257D01*
X017660Y000859D02*
X017660Y000859D01*
X016660Y001656D02*
X016660Y001656D01*
X015660Y001656D02*
X015660Y001656D01*
X014660Y001656D02*
X014660Y001656D01*
X013660Y001656D02*
X013660Y001656D01*
X009343Y004047D02*
X008777Y004047D01*
X009160Y004445D02*
X009350Y004445D01*
X009343Y004844D02*
X009190Y004844D01*
X009190Y005242D02*
X009343Y005242D01*
X009302Y005641D02*
X009173Y005641D01*
X009190Y006039D02*
X009230Y006039D01*
X009405Y006438D02*
X009015Y006438D01*
X010371Y007235D02*
X010549Y007235D01*
X011371Y007235D02*
X011549Y007235D01*
X012371Y007235D02*
X012549Y007235D01*
X013371Y007235D02*
X013549Y007235D01*
X014371Y007235D02*
X014549Y007235D01*
X015371Y007235D02*
X015549Y007235D01*
X016371Y007235D02*
X016549Y007235D01*
X017371Y007235D02*
X017549Y007235D01*
X019960Y007633D02*
X019960Y007633D01*
X019960Y007960D02*
X019960Y007960D01*
X019960Y008032D02*
X019960Y008032D01*
X019960Y008430D02*
X019960Y008430D01*
X018452Y009227D02*
X009188Y009227D01*
X009081Y009626D02*
X018480Y009626D01*
X021371Y007235D02*
X021549Y007235D01*
X022371Y007235D02*
X022549Y007235D01*
X023371Y007235D02*
X023549Y007235D01*
X024371Y007235D02*
X024549Y007235D01*
X025371Y007235D02*
X025549Y007235D01*
X026371Y007235D02*
X026549Y007235D01*
X027371Y007235D02*
X027549Y007235D01*
X028371Y007235D02*
X028549Y007235D01*
X029371Y007235D02*
X029763Y007235D01*
X029742Y007633D02*
X029580Y007633D01*
X029580Y008032D02*
X029856Y008032D01*
X029730Y008430D02*
X029544Y008430D01*
X028571Y013212D02*
X028349Y013212D01*
X027571Y013212D02*
X027349Y013212D01*
X026571Y013212D02*
X026349Y013212D01*
X025571Y013212D02*
X025349Y013212D01*
X024571Y013212D02*
X024349Y013212D01*
X023571Y013212D02*
X023349Y013212D01*
X022571Y013212D02*
X022349Y013212D01*
X021571Y013212D02*
X021349Y013212D01*
X020571Y013212D02*
X020349Y013212D01*
X009340Y014009D02*
X009190Y014009D01*
X009045Y014408D02*
X009367Y014408D01*
X008046Y015579D02*
X007960Y015492D01*
X007874Y015579D01*
X007605Y015690D01*
X007315Y015690D01*
X007046Y015579D01*
X006960Y015492D01*
X006874Y015579D01*
X006633Y015678D01*
X006690Y015815D01*
X006690Y016011D01*
X006785Y016106D01*
X007044Y016106D01*
X007072Y016118D01*
X007256Y016118D01*
X007388Y016173D01*
X007460Y016244D01*
X007532Y016173D01*
X007664Y016118D01*
X007848Y016118D01*
X007876Y016106D01*
X008135Y016106D01*
X008230Y016011D01*
X008230Y015815D01*
X008287Y015678D01*
X008046Y015579D01*
X008105Y015603D02*
X007815Y015603D01*
X008230Y016002D02*
X006690Y016002D01*
X006815Y015603D02*
X007105Y015603D01*
X004321Y016400D02*
X004074Y016400D01*
X003446Y016400D02*
X003351Y016400D01*
X003384Y016002D02*
X004180Y016002D01*
X004180Y015603D02*
X003249Y015603D01*
X003390Y015205D02*
X004180Y015205D01*
X004180Y014806D02*
X003304Y014806D01*
X003348Y014408D02*
X004180Y014408D01*
X004180Y014009D02*
X003388Y014009D01*
X003242Y013611D02*
X004180Y013611D01*
X004180Y013212D02*
X003390Y013212D01*
X003307Y012814D02*
X004180Y012814D01*
X004180Y012415D02*
X003280Y012415D01*
X003330Y012160D02*
X002660Y012160D01*
X002660Y012160D01*
X002660Y011160D01*
X002660Y011160D01*
X003330Y011160D01*
X003330Y011204D01*
X003319Y011291D01*
X003296Y011376D01*
X003262Y011457D01*
X003218Y011533D01*
X003165Y011603D01*
X003108Y011660D01*
X003165Y011717D01*
X003218Y011787D01*
X003262Y011863D01*
X003296Y011944D01*
X003319Y012029D01*
X003330Y012116D01*
X003330Y012160D01*
X003315Y012017D02*
X004180Y012017D01*
X004180Y011618D02*
X003150Y011618D01*
X002660Y011618D02*
X002660Y011618D01*
X002660Y011830D02*
X002660Y011160D01*
X002660Y011160D01*
X002660Y011160D01*
X001560Y011160D01*
X001560Y011160D01*
X001560Y011160D01*
X001560Y012160D01*
X001560Y012160D01*
X001990Y012160D01*
X002660Y012160D01*
X002660Y012160D01*
X002660Y012160D01*
X002660Y011830D01*
X002660Y012017D02*
X002660Y012017D01*
X001560Y012017D02*
X001560Y012017D01*
X001560Y012160D02*
X001560Y011830D01*
X001560Y011160D01*
X001990Y011160D01*
X002660Y011160D01*
X003330Y011160D01*
X003330Y011116D01*
X003319Y011029D01*
X003296Y010944D01*
X003262Y010863D01*
X003218Y010787D01*
X003165Y010717D01*
X003103Y010655D01*
X003033Y010602D01*
X002957Y010558D01*
X002876Y010524D01*
X002791Y010501D01*
X002704Y010490D01*
X002660Y010490D01*
X002660Y011160D01*
X002660Y011160D01*
X002660Y010490D01*
X002616Y010490D01*
X002529Y010501D01*
X002444Y010524D01*
X002363Y010558D01*
X002287Y010602D01*
X002217Y010655D01*
X002155Y010717D01*
X002110Y010776D01*
X002065Y010717D01*
X002003Y010655D01*
X001933Y010602D01*
X001857Y010558D01*
X001776Y010524D01*
X001691Y010501D01*
X001604Y010490D01*
X001560Y010490D01*
X001560Y011160D01*
X001560Y011160D01*
X001560Y011160D01*
X000890Y011160D01*
X000890Y011204D01*
X000901Y011291D01*
X000924Y011376D01*
X000958Y011457D01*
X001002Y011533D01*
X001055Y011603D01*
X001112Y011660D01*
X001055Y011717D01*
X001002Y011787D01*
X000958Y011863D01*
X000924Y011944D01*
X000901Y012029D01*
X000890Y012116D01*
X000890Y012160D01*
X001560Y012160D01*
X001560Y012160D01*
X001560Y012160D01*
X000940Y012415D02*
X000820Y012415D01*
X000820Y012017D02*
X000905Y012017D01*
X000820Y011618D02*
X001070Y011618D01*
X001560Y011618D02*
X001560Y011618D01*
X001560Y011220D02*
X001560Y011220D01*
X001560Y011160D02*
X000890Y011160D01*
X000890Y011116D01*
X000901Y011029D01*
X000924Y010944D01*
X000958Y010863D01*
X001002Y010787D01*
X001055Y010717D01*
X001117Y010655D01*
X001187Y010602D01*
X001263Y010558D01*
X001344Y010524D01*
X001429Y010501D01*
X001516Y010490D01*
X001560Y010490D01*
X001560Y011160D01*
X000892Y011220D02*
X000820Y011220D01*
X000820Y010821D02*
X000982Y010821D01*
X001560Y010821D02*
X001560Y010821D01*
X000820Y010423D02*
X004180Y010423D01*
X004180Y010821D02*
X003238Y010821D01*
X002660Y010821D02*
X002660Y010821D01*
X002660Y011220D02*
X002660Y011220D01*
X003328Y011220D02*
X004180Y011220D01*
X000913Y012814D02*
X000820Y012814D01*
X000820Y013212D02*
X000830Y013212D01*
X000820Y013611D02*
X000978Y013611D01*
X000832Y014009D02*
X000820Y014009D01*
X000820Y014408D02*
X000872Y014408D01*
X000916Y014806D02*
X000820Y014806D01*
X000820Y015205D02*
X000830Y015205D01*
X000820Y015603D02*
X000971Y015603D01*
X000836Y016002D02*
X000820Y016002D01*
X000820Y016400D02*
X000869Y016400D01*
X000820Y016799D02*
X001194Y016799D01*
X000846Y017197D02*
X000820Y017197D01*
X003189Y018521D02*
X003182Y018538D01*
X003119Y018655D01*
X003046Y018765D01*
X002961Y018868D01*
X002868Y018961D01*
X002765Y019046D01*
X002655Y019119D01*
X002538Y019182D01*
X002494Y019200D01*
X006534Y019200D01*
X006524Y019176D01*
X006501Y019091D01*
X006490Y019004D01*
X006490Y018960D01*
X007160Y018960D01*
X007160Y018960D01*
X007160Y018290D01*
X007204Y018290D01*
X007291Y018301D01*
X007376Y018324D01*
X007457Y018358D01*
X007533Y018402D01*
X007603Y018455D01*
X007618Y018470D01*
X007746Y018341D01*
X008015Y018230D01*
X008282Y018230D01*
X008230Y018105D01*
X008230Y017909D01*
X008135Y017814D01*
X007876Y017814D01*
X007848Y017802D01*
X007664Y017802D01*
X007532Y017747D01*
X007460Y017676D01*
X007388Y017747D01*
X007256Y017802D01*
X007072Y017802D01*
X007044Y017814D01*
X006785Y017814D01*
X006690Y017909D01*
X006690Y018105D01*
X006579Y018374D01*
X006374Y018579D01*
X006105Y018690D01*
X005815Y018690D01*
X005546Y018579D01*
X005428Y018461D01*
X005248Y018641D01*
X004996Y018745D01*
X004724Y018745D01*
X004472Y018641D01*
X004342Y018511D01*
X004174Y018679D01*
X003905Y018790D01*
X003615Y018790D01*
X003346Y018679D01*
X003189Y018521D01*
X003024Y018791D02*
X006512Y018791D01*
X006501Y018829D02*
X006524Y018744D01*
X006558Y018663D01*
X006602Y018587D01*
X006655Y018517D01*
X006717Y018455D01*
X006787Y018402D01*
X006863Y018358D01*
X006944Y018324D01*
X007029Y018301D01*
X007116Y018290D01*
X007160Y018290D01*
X007160Y018960D01*
X007160Y018960D01*
X006490Y018960D01*
X006490Y018916D01*
X006501Y018829D01*
X006530Y019190D02*
X002519Y019190D01*
X006560Y018393D02*
X006803Y018393D01*
X007160Y018393D02*
X007160Y018393D01*
X007517Y018393D02*
X007695Y018393D01*
X007160Y018791D02*
X007160Y018791D01*
X006690Y017994D02*
X008230Y017994D01*
X001170Y008430D02*
X000820Y008430D01*
X000820Y008032D02*
X001233Y008032D01*
X001178Y007633D02*
X000820Y007633D01*
X000820Y007235D02*
X001170Y007235D01*
X002810Y006360D02*
X002810Y006360D01*
X003390Y006360D01*
X002810Y006360D01*
X002810Y006360D01*
X002810Y005780D01*
X002810Y006360D01*
X002810Y006039D02*
X002810Y006039D01*
X003309Y006039D02*
X003859Y006039D01*
X003460Y006438D02*
X003390Y006438D01*
X005798Y004310D02*
X005874Y004341D01*
X005960Y004428D01*
X006046Y004341D01*
X006315Y004230D01*
X006605Y004230D01*
X006874Y004341D01*
X006960Y004428D01*
X007046Y004341D01*
X007315Y004230D01*
X007316Y004230D01*
X007266Y004210D01*
X007080Y004024D01*
X006980Y003781D01*
X006980Y003519D01*
X007080Y003276D01*
X007266Y003090D01*
X007388Y003040D01*
X005932Y003040D01*
X006054Y003090D01*
X006240Y003276D01*
X006340Y003519D01*
X006340Y003781D01*
X006240Y004024D01*
X006054Y004210D01*
X005811Y004310D01*
X005798Y004310D01*
X006217Y004047D02*
X007103Y004047D01*
X006980Y003648D02*
X006340Y003648D01*
X006213Y003250D02*
X007107Y003250D01*
X004509Y002054D02*
X004386Y002054D01*
X021460Y001920D02*
X021460Y001460D01*
X021460Y001920D01*
X021460Y001920D01*
X021460Y001656D02*
X021460Y001656D01*
X021460Y001460D02*
X021460Y001460D01*
X021460Y000820D01*
X021460Y000820D01*
X021460Y001460D01*
X021460Y001460D01*
X021460Y001257D02*
X021460Y001257D01*
X021460Y000859D02*
X021460Y000859D01*
X024577Y001920D02*
X025778Y001920D01*
X026130Y001568D01*
X026130Y001018D01*
X026185Y000886D01*
X026251Y000820D01*
X025512Y000820D01*
X025820Y001128D01*
X025820Y001360D01*
X025820Y001592D01*
X025492Y001920D01*
X025260Y001920D01*
X025260Y001360D01*
X025260Y001360D01*
X025820Y001360D01*
X025260Y001360D01*
X025260Y001360D01*
X025260Y001920D01*
X025028Y001920D01*
X024802Y001694D01*
X024577Y001920D01*
X025260Y001656D02*
X025260Y001656D01*
X025756Y001656D02*
X026042Y001656D01*
X026130Y001257D02*
X025820Y001257D01*
X025260Y001360D02*
X024880Y001360D01*
X025260Y001360D01*
X025260Y001360D01*
X024880Y001360D02*
X024880Y001360D01*
X025550Y000859D02*
X026212Y000859D01*
M02*
