%
M48
M72
T01C0.0200
T02C0.0276
T03C0.0315
T04C0.0320
T05C0.0360
T06C0.0394
T07C0.0400
T08C0.0440
T09C0.1102
T10C0.1181
%
T01
X3260Y860
X4260Y2960
X2360Y3960
X3160Y5460
X4160Y7260
X3660Y8860
X1260Y10160
X3660Y11160
X10160Y12960
X9260Y14860
X7460Y15960
X3760Y15760
X960Y15660
X7660Y17960
X14360Y12960
X17560Y12860
X19960Y12560
X23660Y11860
X20960Y9860
X18960Y9360
X17960Y10160
X12560Y11060
X9260Y6960
X9260Y4560
X6660Y3060
X8360Y1260
X18660Y2360
X21960Y1960
X25960Y1460
X30460Y3760
X34360Y4960
X37160Y5360
X38760Y3760
X35060Y2860
X31760Y1360
X36460Y7960
X29060Y9760
X29060Y12460
X26460Y14760
X29660Y14960
X36760Y12660
X38760Y16360
X21460Y14760
T02
X19960Y14960
X18960Y14960
X4860Y17060
X4860Y18060
X18960Y6960
X19960Y6960
T03
X19960Y4960
X18960Y4960
X17960Y4960
X16960Y4960
X15960Y4960
X14960Y4960
X13960Y4960
X12960Y4960
X11960Y4960
X10960Y4960
X9960Y4960
X9960Y3960
X10960Y3960
X11960Y3960
X12960Y3960
X13960Y3960
X14960Y3960
X15960Y3960
X16960Y3960
X17960Y3960
X18960Y3960
X19960Y3960
X20960Y3960
X21960Y3960
X22960Y3960
X23960Y3960
X24960Y3960
X25960Y3960
X26960Y3960
X27960Y3960
X28960Y3960
X28960Y2960
X27960Y2960
X26960Y2960
X25960Y2960
X24960Y2960
X23960Y2960
X22960Y2960
X21960Y2960
X20960Y2960
X19960Y2960
X18960Y2960
X17960Y2960
X16960Y2960
X15960Y2960
X14960Y2960
X13960Y2960
X12960Y2960
X11960Y2960
X10960Y2960
X9960Y2960
X20460Y1460
X21460Y1460
X22460Y1460
X21960Y4960
X22960Y4960
X23960Y4960
X24960Y4960
X25960Y4960
X26960Y4960
X27960Y4960
X28960Y4960
X20960Y4960
X20960Y16960
X19960Y16960
X18960Y16960
X17960Y16960
X16960Y16960
X15960Y16960
X14960Y16960
X13960Y16960
X12960Y16960
X11960Y16960
X10960Y16960
X9960Y16960
X9960Y17960
X10960Y17960
X11960Y17960
X12960Y17960
X13960Y17960
X14960Y17960
X15960Y17960
X16960Y17960
X17960Y17960
X18960Y17960
X19960Y17960
X20960Y17960
X21960Y17960
X22960Y17960
X23960Y17960
X24960Y17960
X25960Y17960
X26960Y17960
X27960Y17960
X28960Y17960
X28960Y16960
X27960Y16960
X26960Y16960
X25960Y16960
X24960Y16960
X23960Y16960
X22960Y16960
X21960Y16960
X21960Y18960
X22960Y18960
X23960Y18960
X24960Y18960
X25960Y18960
X26960Y18960
X27960Y18960
X28960Y18960
X20960Y18960
X19960Y18960
X18960Y18960
X17960Y18960
X16960Y18960
X15960Y18960
X14960Y18960
X13960Y18960
X12960Y18960
X11960Y18960
X10960Y18960
X9960Y18960
T04
X9960Y13960
X10960Y13960
X11960Y13960
X12960Y13960
X13960Y13960
X14960Y13960
X15960Y13960
X16960Y13960
X17960Y13960
X18960Y13960
X19960Y13960
X20960Y13960
X21960Y13960
X22960Y13960
X23960Y13960
X24960Y13960
X25960Y13960
X26960Y13960
X27960Y13960
X28960Y13960
X36060Y11260
X36060Y10260
X28960Y7960
X27960Y7960
X26960Y7960
X25960Y7960
X24960Y7960
X23960Y7960
X22960Y7960
X21960Y7960
X20960Y7960
X19960Y7960
X18960Y7960
X17960Y7960
X16960Y7960
X15960Y7960
X14960Y7960
X13960Y7960
X12960Y7960
X11960Y7960
X10960Y7960
X9960Y7960
X8960Y3110
X8960Y2110
X17660Y1360
X18660Y1360
X24260Y1360
X25260Y1360
X34360Y1410
X34360Y2410
T05
X2810Y6360
X1810Y6360
X1810Y7360
X2810Y7360
X2810Y8360
X1810Y8360
T06
X38460Y8160
X38460Y7160
X38460Y6160
T07
X36460Y5960
X35460Y5960
X34460Y5960
X33460Y6460
X34460Y6960
X35460Y6960
X36460Y6960
X33460Y7460
X32460Y7460
X31460Y7460
X30460Y7460
X30460Y8460
X31460Y8460
X32460Y8460
X33460Y8460
X34460Y8960
X33460Y9460
X32460Y9460
X31460Y9460
X30460Y9460
X30460Y10460
X31460Y10460
X32460Y10460
X33460Y10460
X33460Y11460
X32460Y11460
X31460Y11460
X30460Y11460
X30460Y12460
X31460Y12460
X32460Y12460
X33460Y12460
X33460Y13460
X32460Y13460
X31460Y13460
X30460Y13460
X30460Y14460
X31460Y14460
X32460Y14460
X33460Y14460
X33460Y15460
X32460Y15460
X31460Y15460
X30460Y15460
X28960Y15960
X27960Y15960
X26960Y15960
X25960Y15960
X24960Y15960
X23960Y15960
X22960Y15960
X21960Y15960
X20960Y15960
X19960Y15960
X18960Y15960
X17960Y15960
X16960Y15960
X15960Y15960
X14960Y15960
X13960Y15960
X12960Y15960
X11960Y15960
X10960Y15960
X9960Y15960
X8960Y15960
X8960Y16960
X8960Y17960
X8160Y18960
X7160Y18960
X5960Y17960
X5960Y16960
X5960Y15960
X5460Y14960
X6460Y14960
X7460Y14960
X8460Y14960
X8460Y13960
X7460Y13960
X6460Y13960
X5460Y13960
X5460Y12960
X6460Y12960
X7460Y12960
X8460Y12960
X2660Y13160
X1560Y13160
X1560Y12160
X2660Y12160
X2660Y11160
X1560Y11160
X1560Y14160
X2660Y14160
X2660Y15160
X1560Y15160
X1560Y16160
X2660Y16160
X3760Y17060
X3760Y18060
X5460Y6960
X6460Y6960
X7460Y6960
X8460Y6960
X8460Y5960
X7460Y5960
X6460Y5960
X5460Y5960
X5460Y4960
X6460Y4960
X7460Y4960
X8460Y4960
X9960Y5960
X10960Y5960
X11960Y5960
X12960Y5960
X13960Y5960
X14960Y5960
X15960Y5960
X16960Y5960
X17960Y5960
X18960Y5960
X19960Y5960
X20960Y5960
X21960Y5960
X22960Y5960
X23960Y5960
X24960Y5960
X25960Y5960
X26960Y5960
X27960Y5960
X28960Y5960
X30460Y6460
X31460Y6460
X32460Y6460
X32760Y5360
X31760Y5360
X30760Y5360
X34460Y3960
X35460Y3960
X36460Y3960
X36160Y2460
X36160Y1460
X32760Y2360
X31760Y2360
X30760Y2360
X29860Y1460
X28860Y1460
X27860Y1460
X26860Y1460
X16660Y1460
X15660Y1460
X14660Y1460
X13660Y1460
X12660Y1460
X11660Y1460
X10660Y1460
X9660Y1460
X7940Y1870
X5380Y1870
X3810Y1510
X3810Y2510
X3810Y3510
X5380Y3650
X7940Y3650
X30460Y16460
X31460Y16460
X32460Y16460
X33460Y16460
X33460Y17460
X32460Y17460
X31460Y17460
X30460Y17460
X30460Y18460
X31460Y18460
X32460Y18460
X33460Y18460
X35260Y17960
X36260Y17960
X38460Y11460
X38460Y10460
X36460Y8960
X35460Y8960
T08
X34560Y11760
X34560Y15760
T09
X37960Y17960
X37960Y1960
X1960Y1960
X1960Y17960
T10
X35603Y13821
X37925Y13821
X36784Y15671
M30
