G75*
G70*
%OFA0B0*%
%FSLAX24Y24*%
%IPPOS*%
%LPD*%
%AMOC8*
5,1,8,0,0,1.08239X$1,22.5*
%
%ADD10C,0.0000*%
%ADD11C,0.0560*%
%ADD12OC8,0.0700*%
%ADD13OC8,0.0600*%
%ADD14C,0.0640*%
%ADD15OC8,0.0560*%
%ADD16C,0.0700*%
%ADD17R,0.0634X0.0634*%
%ADD18C,0.0634*%
%ADD19OC8,0.0670*%
%ADD20C,0.0670*%
%ADD21C,0.1930*%
%ADD22C,0.0780*%
%ADD23C,0.2140*%
%ADD24R,0.0780X0.0780*%
%ADD25OC8,0.0780*%
%ADD26R,0.0555X0.0555*%
%ADD27C,0.0690*%
%ADD28R,0.0355X0.0512*%
D10*
X000460Y000460D02*
X039560Y000460D01*
X039560Y019560D01*
X000460Y019560D01*
X000460Y000460D01*
D11*
X009960Y007700D02*
X009960Y008220D01*
X010960Y008220D02*
X010960Y007700D01*
X011960Y007700D02*
X011960Y008220D01*
X012960Y008220D02*
X012960Y007700D01*
X013960Y007700D02*
X013960Y008220D01*
X014960Y008220D02*
X014960Y007700D01*
X015960Y007700D02*
X015960Y008220D01*
X016960Y008220D02*
X016960Y007700D01*
X017960Y007700D02*
X017960Y008220D01*
X018960Y008220D02*
X018960Y007700D01*
X019960Y007700D02*
X019960Y008220D01*
X020960Y008220D02*
X020960Y007700D01*
X021960Y007700D02*
X021960Y008220D01*
X022960Y008220D02*
X022960Y007700D01*
X023960Y007700D02*
X023960Y008220D01*
X024960Y008220D02*
X024960Y007700D01*
X025960Y007700D02*
X025960Y008220D01*
X026960Y008220D02*
X026960Y007700D01*
X027960Y007700D02*
X027960Y008220D01*
X028960Y008220D02*
X028960Y007700D01*
X028960Y013700D02*
X028960Y014220D01*
X027960Y014220D02*
X027960Y013700D01*
X026960Y013700D02*
X026960Y014220D01*
X025960Y014220D02*
X025960Y013700D01*
X024960Y013700D02*
X024960Y014220D01*
X023960Y014220D02*
X023960Y013700D01*
X022960Y013700D02*
X022960Y014220D01*
X021960Y014220D02*
X021960Y013700D01*
X020960Y013700D02*
X020960Y014220D01*
X019960Y014220D02*
X019960Y013700D01*
X018960Y013700D02*
X018960Y014220D01*
X017960Y014220D02*
X017960Y013700D01*
X016960Y013700D02*
X016960Y014220D01*
X015960Y014220D02*
X015960Y013700D01*
X014960Y013700D02*
X014960Y014220D01*
X013960Y014220D02*
X013960Y013700D01*
X012960Y013700D02*
X012960Y014220D01*
X011960Y014220D02*
X011960Y013700D01*
X010960Y013700D02*
X010960Y014220D01*
X009960Y014220D02*
X009960Y013700D01*
D12*
X008960Y003110D03*
X008960Y002110D03*
D13*
X002810Y006360D03*
X001810Y006360D03*
X001810Y007360D03*
X002810Y007360D03*
X002810Y008360D03*
X001810Y008360D03*
D14*
X005080Y003650D02*
X005680Y003650D01*
X007640Y003650D02*
X008240Y003650D01*
X008240Y001870D02*
X007640Y001870D01*
X005680Y001870D02*
X005080Y001870D01*
D15*
X017660Y001360D03*
X018660Y001360D03*
X024260Y001360D03*
X025260Y001360D03*
D16*
X034560Y011760D03*
X034560Y015760D03*
D17*
X038460Y008160D03*
D18*
X038460Y007160D03*
X038460Y006160D03*
D19*
X034360Y002410D03*
X036060Y010260D03*
D20*
X036060Y011260D03*
X034360Y001410D03*
D21*
X035603Y013821D03*
X037925Y013821D03*
X036784Y015671D03*
D22*
X033460Y015460D03*
X032460Y015460D03*
X031460Y015460D03*
X030460Y015460D03*
X030460Y014460D03*
X031460Y014460D03*
X032460Y014460D03*
X033460Y014460D03*
X033460Y013460D03*
X032460Y013460D03*
X031460Y013460D03*
X030460Y013460D03*
X031460Y011460D03*
X032460Y011460D03*
X033460Y011460D03*
X033460Y010460D03*
X032460Y010460D03*
X031460Y010460D03*
X034460Y008960D03*
X035460Y008960D03*
X036460Y008960D03*
X038460Y010460D03*
X038460Y011460D03*
X033460Y008460D03*
X032460Y008460D03*
X031460Y008460D03*
X030460Y008460D03*
X030460Y007460D03*
X031460Y007460D03*
X032460Y007460D03*
X033460Y007460D03*
X034460Y006960D03*
X033460Y006460D03*
X032460Y006460D03*
X031460Y006460D03*
X030460Y006460D03*
X030760Y005360D03*
X031760Y005360D03*
X032760Y005360D03*
X034460Y005960D03*
X035460Y005960D03*
X036460Y005960D03*
X036460Y006960D03*
X035460Y006960D03*
X035460Y003960D03*
X036460Y003960D03*
X034460Y003960D03*
X036160Y002460D03*
X036160Y001460D03*
X032760Y002360D03*
X031760Y002360D03*
X030760Y002360D03*
X029860Y001460D03*
X028860Y001460D03*
X027860Y001460D03*
X022460Y001460D03*
X021460Y001460D03*
X020460Y001460D03*
X016660Y001460D03*
X015660Y001460D03*
X014660Y001460D03*
X013660Y001460D03*
X012660Y001460D03*
X011660Y001460D03*
X010660Y001460D03*
X003810Y001510D03*
X003810Y002510D03*
X003810Y003510D03*
X005460Y004960D03*
X006460Y004960D03*
X007460Y004960D03*
X009960Y005960D03*
X010960Y005960D03*
X011960Y005960D03*
X012960Y005960D03*
X013960Y005960D03*
X014960Y005960D03*
X015960Y005960D03*
X016960Y005960D03*
X017960Y005960D03*
X018960Y005960D03*
X019960Y005960D03*
X020960Y005960D03*
X021960Y005960D03*
X022960Y005960D03*
X023960Y005960D03*
X024960Y005960D03*
X025960Y005960D03*
X026960Y005960D03*
X027960Y005960D03*
X008460Y014960D03*
X007460Y014960D03*
X006460Y014960D03*
X005960Y015960D03*
X005960Y016960D03*
X005960Y017960D03*
X007160Y018960D03*
X008160Y018960D03*
X008960Y017960D03*
X008960Y016960D03*
X008960Y015960D03*
X009960Y015960D03*
X010960Y015960D03*
X011960Y015960D03*
X012960Y015960D03*
X013960Y015960D03*
X014960Y015960D03*
X015960Y015960D03*
X016960Y015960D03*
X017960Y015960D03*
X018960Y015960D03*
X019960Y015960D03*
X020960Y015960D03*
X021960Y015960D03*
X022960Y015960D03*
X023960Y015960D03*
X024960Y015960D03*
X025960Y015960D03*
X026960Y015960D03*
X027960Y015960D03*
X031460Y016460D03*
X032460Y016460D03*
X033460Y016460D03*
X033460Y017460D03*
X032460Y017460D03*
X031460Y017460D03*
X031460Y018460D03*
X032460Y018460D03*
X033460Y018460D03*
X035260Y017960D03*
X036260Y017960D03*
X003760Y018060D03*
X003760Y017060D03*
X002660Y016160D03*
X001560Y016160D03*
X001560Y015160D03*
X002660Y015160D03*
X002660Y014160D03*
X001560Y014160D03*
X001560Y013160D03*
X002660Y013160D03*
X002660Y012160D03*
X001560Y012160D03*
X001560Y011160D03*
X002660Y011160D03*
D23*
X001960Y017960D03*
X001960Y001960D03*
X037960Y001960D03*
X037960Y017960D03*
D24*
X030460Y017460D03*
X030460Y016460D03*
X028960Y015960D03*
X030460Y018460D03*
X030460Y012460D03*
X031460Y012460D03*
X032460Y012460D03*
X033460Y012460D03*
X030460Y011460D03*
X030460Y010460D03*
X030460Y009460D03*
X031460Y009460D03*
X032460Y009460D03*
X033460Y009460D03*
X028960Y005960D03*
X026860Y001460D03*
X009660Y001460D03*
X008460Y004960D03*
X005460Y014960D03*
D25*
X005460Y013960D03*
X006460Y013960D03*
X007460Y013960D03*
X008460Y013960D03*
X008460Y012960D03*
X007460Y012960D03*
X006460Y012960D03*
X005460Y012960D03*
X005460Y006960D03*
X006460Y006960D03*
X007460Y006960D03*
X008460Y006960D03*
X008460Y005960D03*
X007460Y005960D03*
X006460Y005960D03*
X005460Y005960D03*
D26*
X009960Y004960D03*
X010960Y004960D03*
X011960Y004960D03*
X012960Y004960D03*
X013960Y004960D03*
X014960Y004960D03*
X015960Y004960D03*
X016960Y004960D03*
X017960Y004960D03*
X018960Y004960D03*
X019960Y004960D03*
X020960Y004960D03*
X021960Y004960D03*
X022960Y004960D03*
X023960Y004960D03*
X024960Y004960D03*
X025960Y004960D03*
X026960Y004960D03*
X027960Y004960D03*
X028960Y004960D03*
X028960Y003960D03*
X027960Y003960D03*
X026960Y003960D03*
X025960Y003960D03*
X024960Y003960D03*
X023960Y003960D03*
X022960Y003960D03*
X021960Y003960D03*
X020960Y003960D03*
X019960Y003960D03*
X018960Y003960D03*
X017960Y003960D03*
X016960Y003960D03*
X015960Y003960D03*
X014960Y003960D03*
X013960Y003960D03*
X012960Y003960D03*
X011960Y003960D03*
X010960Y003960D03*
X009960Y003960D03*
X009960Y002960D03*
X010960Y002960D03*
X011960Y002960D03*
X012960Y002960D03*
X013960Y002960D03*
X014960Y002960D03*
X015960Y002960D03*
X016960Y002960D03*
X017960Y002960D03*
X018960Y002960D03*
X019960Y002960D03*
X020960Y002960D03*
X021960Y002960D03*
X022960Y002960D03*
X023960Y002960D03*
X024960Y002960D03*
X025960Y002960D03*
X026960Y002960D03*
X027960Y002960D03*
X028960Y002960D03*
X028960Y016960D03*
X027960Y016960D03*
X026960Y016960D03*
X025960Y016960D03*
X024960Y016960D03*
X023960Y016960D03*
X022960Y016960D03*
X021960Y016960D03*
X020960Y016960D03*
X019960Y016960D03*
X018960Y016960D03*
X017960Y016960D03*
X016960Y016960D03*
X015960Y016960D03*
X014960Y016960D03*
X013960Y016960D03*
X012960Y016960D03*
X011960Y016960D03*
X010960Y016960D03*
X009960Y016960D03*
X009960Y017960D03*
X010960Y017960D03*
X011960Y017960D03*
X012960Y017960D03*
X013960Y017960D03*
X014960Y017960D03*
X015960Y017960D03*
X016960Y017960D03*
X017960Y017960D03*
X018960Y017960D03*
X019960Y017960D03*
X020960Y017960D03*
X021960Y017960D03*
X022960Y017960D03*
X023960Y017960D03*
X024960Y017960D03*
X025960Y017960D03*
X026960Y017960D03*
X027960Y017960D03*
X028960Y017960D03*
X028960Y018960D03*
X027960Y018960D03*
X026960Y018960D03*
X025960Y018960D03*
X024960Y018960D03*
X023960Y018960D03*
X022960Y018960D03*
X021960Y018960D03*
X020960Y018960D03*
X019960Y018960D03*
X018960Y018960D03*
X017960Y018960D03*
X016960Y018960D03*
X015960Y018960D03*
X014960Y018960D03*
X013960Y018960D03*
X012960Y018960D03*
X011960Y018960D03*
X010960Y018960D03*
X009960Y018960D03*
D27*
X004860Y018060D03*
X004860Y017060D03*
X018960Y014960D03*
X019960Y014960D03*
X019960Y006960D03*
X018960Y006960D03*
D28*
X019106Y008760D03*
X019814Y008760D03*
X019814Y013160D03*
X019106Y013160D03*
M02*
